<?xml version="1.0" encoding="utf-8"?>
<!-- Generator: Adobe Illustrator 27.5.0, SVG Export Plug-In . SVG Version: 6.00 Build 0)  -->
<svg version="1.1" xmlns="http://www.w3.org/2000/svg" xmlns:xlink="http://www.w3.org/1999/xlink" x="0px" y="0px"
	 viewBox="0 0 500 500" style="enable-background:new 0 0 500 500;" xml:space="preserve">
<g id="Background_Complete">
	<g>
		<rect y="382.398" style="fill:#EBEBEB;" width="500" height="0.25"/>
		<rect x="416.779" y="398.494" style="fill:#EBEBEB;" width="33.122" height="0.25"/>
		<rect x="322.527" y="401.208" style="fill:#EBEBEB;" width="8.693" height="0.25"/>
		<rect x="396.586" y="389.208" style="fill:#EBEBEB;" width="19.192" height="0.25"/>
		<rect x="52.459" y="390.888" style="fill:#EBEBEB;" width="43.193" height="0.25"/>
		<rect x="104.556" y="390.888" style="fill:#EBEBEB;" width="6.333" height="0.25"/>
		<rect x="131.471" y="395.111" style="fill:#EBEBEB;" width="93.676" height="0.25"/>
		<path style="fill:#EBEBEB;" d="M237.014,337.8H43.915c-3.147,0-5.708-2.561-5.708-5.708V60.66c0-3.147,2.561-5.708,5.708-5.708
			h193.099c3.146,0,5.707,2.561,5.707,5.708v271.432C242.721,335.239,240.16,337.8,237.014,337.8z M43.915,55.203
			c-3.01,0-5.458,2.448-5.458,5.458v271.432c0,3.01,2.448,5.458,5.458,5.458h193.099c3.009,0,5.457-2.448,5.457-5.458V60.66
			c0-3.009-2.448-5.458-5.457-5.458H43.915z"/>
		<path style="fill:#EBEBEB;" d="M453.31,337.8H260.212c-3.147,0-5.707-2.561-5.707-5.708V60.66c0-3.147,2.561-5.708,5.707-5.708
			H453.31c3.148,0,5.708,2.561,5.708,5.708v271.432C459.019,335.239,456.458,337.8,453.31,337.8z M260.212,55.203
			c-3.009,0-5.457,2.448-5.457,5.458v271.432c0,3.01,2.448,5.458,5.457,5.458H453.31c3.01,0,5.458-2.448,5.458-5.458V60.66
			c0-3.009-2.448-5.458-5.458-5.458H260.212z"/>
	</g>
	<g>
		<path style="fill:#E0E0E0;" d="M405.975,367.52c0.217-2.617-0.14-6.01-3.195-7.017c-5.178-1.708-8.251-5.719-8.077-10.255
			c0.173-4.536-5.278-8.95-9.366-4.699c-4.088,4.251-3.543-3.269-8.994-5.096c-5.451-1.827-10.071,2.606-8.579,6.658
			c1.493,4.052-3.886,6.583-10.327,3.137c-6.441-3.446-13.527,2.823-12.165,7.729c1.363,4.906,0.247,5.451-3.828,3.816
			c-3.293-1.321-8.682,1.451-9.283,5.727H405.975z"/>
		<path style="fill:#E0E0E0;" d="M130.625,367.52c0.252-2.073,0.141-5.098-2.431-5.946c-4.02-1.326-6.405-4.439-6.27-7.96
			c0.134-3.521-4.097-6.948-7.271-3.648c-3.174,3.3-2.75-2.537-6.982-3.956c-4.231-1.418-7.819,2.023-6.66,5.169
			c1.159,3.146-3.017,5.11-8.017,2.435c-5-2.675-10.501,2.191-9.443,6c1.058,3.809,0.192,4.232-2.972,2.962
			c-2.682-1.076-7.138,1.348-7.232,4.945H130.625z"/>
		<path style="fill:#E0E0E0;" d="M137.286,367.52h94.108c1.324-4.416-2.1-9.713-5.828-10.458c-4.581-0.916-9.186-8.978-9.403-14.109
			c-0.217-5.132-8.463-20.916-21.291-11.169c-12.827,9.748-8.929,1.435-18.208-1.303c-9.279-2.738-15.133,5.141-11.061,11.051
			c0,0-9.322-2.336-13.161,6.368c-3.84,8.704,0,14.11,0,14.11S140.659,361.666,137.286,367.52z"/>
		<path style="fill:#F5F5F5;" d="M285.308,120.53c0-2.444,1.982-4.426,4.426-4.426c0.442,0,0.868,0.067,1.271,0.187
			c-0.064-0.444-0.099-0.897-0.099-1.359c0-5.176,4.196-9.372,9.372-9.372c0.59,0,1.167,0.057,1.726,0.161
			c1.44-2.357,4.03-3.936,6.995-3.936c4.488,0,8.128,3.606,8.194,8.077c0.046-0.001,0.091-0.007,0.137-0.007
			c4.169,0,7.55,3.38,7.55,7.55c0,4.17-3.38,7.55-7.55,7.55h-27.726l0.006-0.006C287.223,124.883,285.308,122.932,285.308,120.53z"
			/>
		<path style="fill:#F5F5F5;" d="M129.341,146.624c0-2.444,1.982-4.426,4.426-4.426c0.442,0,0.868,0.067,1.271,0.187
			c-0.064-0.444-0.099-0.897-0.099-1.359c0-5.176,4.196-9.372,9.372-9.372c0.59,0,1.167,0.057,1.726,0.161
			c1.441-2.358,4.03-3.936,6.995-3.936c4.488,0,8.128,3.606,8.194,8.077c0.046-0.001,0.09-0.007,0.137-0.007
			c4.17,0,7.55,3.38,7.55,7.55s-3.38,7.55-7.55,7.55h-27.726l0.006-0.006C131.256,150.977,129.341,149.027,129.341,146.624z"/>
		<path style="fill:#F5F5F5;" d="M229.776,133.789c0-1.52,1.232-2.751,2.752-2.751c0.275,0,0.54,0.041,0.79,0.117
			c-0.04-0.276-0.062-0.558-0.062-0.845c0-3.218,2.609-5.827,5.827-5.827c0.367,0,0.725,0.036,1.073,0.1
			c0.896-1.466,2.505-2.447,4.349-2.447c2.79,0,5.053,2.242,5.095,5.022c0.028-0.001,0.056-0.004,0.085-0.004
			c2.592,0,4.694,2.102,4.694,4.694s-2.101,4.694-4.694,4.694h-17.237l0.004-0.004C230.967,136.495,229.776,135.283,229.776,133.789
			z"/>
		<path style="fill:#F5F5F5;" d="M77.79,128.413c0-1.52,1.232-2.752,2.752-2.752c0.275,0,0.54,0.042,0.79,0.117
			c-0.04-0.276-0.062-0.558-0.062-0.845c0-3.218,2.609-5.827,5.827-5.827c0.367,0,0.725,0.035,1.073,0.1
			c0.896-1.466,2.506-2.447,4.349-2.447c2.79,0,5.053,2.242,5.095,5.022c0.029-0.001,0.056-0.004,0.085-0.004
			c2.592,0,4.694,2.101,4.694,4.694c0,2.592-2.102,4.694-4.694,4.694H80.461l0.003-0.004
			C78.981,131.119,77.79,129.906,77.79,128.413z"/>
		<path style="fill:#F5F5F5;" d="M384.568,145.042c0-1.52,1.232-2.752,2.752-2.752c0.275,0,0.54,0.041,0.79,0.116
			c-0.04-0.276-0.062-0.558-0.062-0.845c0-3.218,2.609-5.827,5.827-5.827c0.367,0,0.725,0.036,1.073,0.1
			c0.896-1.466,2.505-2.447,4.349-2.447c2.79,0,5.053,2.242,5.095,5.022c0.029,0,0.056-0.004,0.085-0.004
			c2.592,0,4.694,2.101,4.694,4.694s-2.101,4.694-4.694,4.694h-17.237l0.003-0.004C385.759,147.748,384.568,146.535,384.568,145.042
			z"/>
		<g>
			<path style="fill:#EBEBEB;" d="M146.517,223.501c-0.139-0.505-0.222-1.083-0.26-1.72c-0.212-3.568-3.618-3.003-6.516-3.487
				c-2.264-0.378,3.731-6.098-0.834-7.943c-0.848-0.343-1.769-0.73-2.203-1.535c-0.573-1.065,0.007-2.467,0.994-3.165
				s2.257-0.846,3.466-0.869c0.745-0.905,0.139-2.268-0.582-3.192c-0.721-0.924-1.603-1.976-1.33-3.116
				c0.412-1.721,2.818-1.783,4.556-1.448c0.642-1.04,0.63-2.34,0.941-3.522c0.312-1.182,1.251-2.422,2.465-2.274
				c1.143,0.139,1.841,1.43,2.962,1.694c1.302,0.307,2.429-0.844,3.45-1.708c1.021-0.864,2.807-1.403,3.51-0.265
				c0.421,0.681,0.169,1.63,0.606,2.301c0.758,1.162,2.557,0.441,3.673-0.383c1.117-0.824,2.895-1.57,3.681-0.426
				c0.241,0.35,0.294,0.792,0.433,1.193c0.528,1.524,2.176,2.284,3.459,3.261c1.283,0.978,2.3,2.922,1.214,4.115
				c-0.536,0.589-1.478,0.827-1.744,1.577c-0.333,0.937,0.625,1.777,1.383,2.422c1.261,1.073,1.49,4.283-0.178,5.161
				c-0.7,0.368-1.727,0.482-1.899,1.254c-0.154,0.691,0.547,1.228,1.013,1.76c1.279,1.462,0.737,4.095-1.015,4.934
				c-0.4,0.192-0.892,0.349-1.041,0.768c-0.106,0.299,0.01,0.626,0.096,0.932c0.162,0.579,0.217,1.188,0.16,1.787
				c-0.019,0.205-0.061,0.427-0.217,0.561c-0.142,0.122-0.342,0.14-0.529,0.149c-2.408,0.107-3.57-0.745-5.04,1.351
				c-0.141,0.201-0.289,0.409-0.502,0.533c-0.199,0.116-0.435,0.147-0.664,0.165c-1.656,0.137-2.738-0.897-4.25-1.09
				c-2.099-0.267-2.544,0.815-4.393,1.684C148.474,226.326,147.064,225.483,146.517,223.501z"/>
			<path style="fill:#EBEBEB;" d="M174.253,220.505c-0.139-0.505-0.222-1.083-0.26-1.72c-0.212-3.568-3.618-3.003-6.516-3.487
				c-2.264-0.378,3.731-6.098-0.834-7.943c-0.848-0.343-1.769-0.73-2.203-1.535c-0.573-1.065,0.007-2.467,0.994-3.165
				c0.988-0.698,2.257-0.846,3.466-0.869c0.745-0.905,0.139-2.267-0.581-3.192s-1.603-1.976-1.33-3.116
				c0.412-1.721,2.818-1.783,4.556-1.449c0.642-1.04,0.63-2.34,0.941-3.522c0.311-1.182,1.251-2.422,2.465-2.274
				c1.143,0.139,1.841,1.43,2.962,1.694c1.302,0.307,2.429-0.844,3.45-1.708c1.021-0.863,2.807-1.402,3.51-0.265
				c0.421,0.681,0.169,1.63,0.607,2.301c0.758,1.162,2.557,0.441,3.673-0.383c1.117-0.824,2.895-1.57,3.681-0.426
				c0.241,0.35,0.294,0.792,0.433,1.194c0.528,1.524,2.176,2.283,3.459,3.261c1.283,0.978,2.3,2.922,1.214,4.115
				c-0.536,0.589-1.478,0.827-1.744,1.577c-0.333,0.937,0.625,1.777,1.383,2.422c1.261,1.073,1.49,4.283-0.177,5.161
				c-0.7,0.369-1.727,0.482-1.899,1.254c-0.153,0.69,0.547,1.228,1.013,1.76c1.279,1.462,0.737,4.095-1.014,4.934
				c-0.4,0.192-0.892,0.349-1.041,0.768c-0.106,0.3,0.01,0.626,0.096,0.932c0.163,0.579,0.217,1.188,0.161,1.787
				c-0.019,0.205-0.061,0.427-0.217,0.561c-0.142,0.122-0.342,0.141-0.529,0.149c-2.408,0.107-3.57-0.745-5.04,1.351
				c-0.141,0.201-0.289,0.409-0.501,0.533c-0.199,0.116-0.435,0.147-0.665,0.166c-1.656,0.137-2.738-0.897-4.25-1.09
				c-2.099-0.268-2.544,0.815-4.393,1.684C176.209,223.329,174.799,222.486,174.253,220.505z"/>
			<path style="fill:#EBEBEB;" d="M176.925,202.842c-0.139-0.505-0.222-1.083-0.26-1.72c-0.212-3.568-3.618-3.003-6.516-3.487
				c-2.264-0.378,3.731-6.098-0.834-7.943c-0.848-0.343-1.769-0.73-2.203-1.535c-0.573-1.065,0.007-2.467,0.994-3.165
				c0.988-0.698,2.257-0.846,3.466-0.869c0.745-0.905,0.139-2.268-0.582-3.192c-0.721-0.924-1.603-1.976-1.33-3.116
				c0.412-1.721,2.818-1.783,4.556-1.448c0.642-1.04,0.63-2.34,0.941-3.522c0.312-1.182,1.252-2.422,2.465-2.275
				c1.143,0.139,1.841,1.43,2.962,1.694c1.302,0.307,2.428-0.844,3.45-1.708c1.021-0.863,2.807-1.402,3.51-0.265
				c0.421,0.681,0.169,1.63,0.607,2.301c0.758,1.162,2.557,0.441,3.673-0.383c1.117-0.824,2.895-1.57,3.681-0.426
				c0.241,0.35,0.294,0.792,0.433,1.193c0.528,1.524,2.176,2.284,3.459,3.261c1.283,0.978,2.3,2.922,1.214,4.115
				c-0.536,0.589-1.478,0.827-1.744,1.577c-0.333,0.937,0.625,1.777,1.383,2.422c1.261,1.073,1.49,4.283-0.178,5.161
				c-0.7,0.368-1.727,0.482-1.899,1.254c-0.154,0.691,0.547,1.228,1.013,1.76c1.279,1.462,0.737,4.095-1.014,4.934
				c-0.401,0.192-0.892,0.349-1.041,0.768c-0.106,0.299,0.01,0.626,0.096,0.932c0.163,0.579,0.217,1.188,0.161,1.787
				c-0.019,0.205-0.061,0.427-0.217,0.561c-0.142,0.122-0.342,0.141-0.529,0.149c-2.408,0.107-3.57-0.745-5.04,1.35
				c-0.141,0.201-0.289,0.409-0.502,0.533c-0.199,0.116-0.435,0.147-0.665,0.166c-1.656,0.136-2.738-0.897-4.25-1.09
				c-2.099-0.267-2.544,0.815-4.393,1.684C178.882,205.666,177.472,204.823,176.925,202.842z"/>
			<path style="fill:#EBEBEB;" d="M195.196,211.639c-0.139-0.505-0.222-1.083-0.26-1.72c-0.212-3.568-3.618-3.003-6.516-3.487
				c-2.264-0.378,3.731-6.098-0.834-7.943c-0.848-0.343-1.769-0.73-2.203-1.535c-0.573-1.065,0.007-2.467,0.994-3.165
				c0.988-0.698,2.257-0.846,3.466-0.869c0.745-0.905,0.139-2.267-0.582-3.192c-0.721-0.924-1.603-1.976-1.33-3.116
				c0.412-1.721,2.818-1.783,4.556-1.449c0.642-1.04,0.63-2.34,0.941-3.522c0.312-1.182,1.251-2.422,2.465-2.274
				c1.143,0.139,1.841,1.43,2.962,1.694c1.302,0.307,2.428-0.844,3.45-1.708c1.021-0.864,2.807-1.402,3.51-0.265
				c0.421,0.681,0.169,1.63,0.606,2.3c0.758,1.162,2.557,0.441,3.673-0.383c1.117-0.824,2.895-1.57,3.681-0.426
				c0.241,0.35,0.294,0.792,0.433,1.193c0.528,1.524,2.176,2.284,3.459,3.261c1.283,0.978,2.3,2.922,1.214,4.115
				c-0.536,0.589-1.478,0.827-1.744,1.577c-0.333,0.937,0.625,1.777,1.383,2.422c1.261,1.073,1.49,4.283-0.178,5.161
				c-0.7,0.368-1.727,0.482-1.899,1.254c-0.154,0.691,0.547,1.228,1.013,1.76c1.279,1.462,0.737,4.095-1.015,4.934
				c-0.4,0.192-0.892,0.349-1.041,0.768c-0.106,0.3,0.01,0.626,0.096,0.932c0.163,0.579,0.217,1.188,0.16,1.787
				c-0.019,0.205-0.061,0.427-0.217,0.561c-0.142,0.122-0.342,0.141-0.529,0.149c-2.408,0.107-3.57-0.745-5.04,1.351
				c-0.141,0.201-0.289,0.409-0.502,0.533c-0.199,0.116-0.435,0.147-0.664,0.165c-1.656,0.136-2.738-0.897-4.25-1.09
				c-2.099-0.268-2.544,0.815-4.393,1.684C197.152,214.464,195.742,213.621,195.196,211.639z"/>
			<path style="fill:#EBEBEB;" d="M213.661,207.576c-0.139-0.505-0.222-1.083-0.26-1.72c-0.212-3.568-3.618-3.003-6.517-3.487
				c-2.264-0.378,3.731-6.098-0.834-7.943c-0.848-0.343-1.769-0.73-2.203-1.535c-0.573-1.065,0.007-2.467,0.994-3.165
				c0.988-0.698,2.257-0.846,3.466-0.869c0.745-0.905,0.139-2.267-0.582-3.192c-0.721-0.924-1.603-1.976-1.33-3.116
				c0.412-1.721,2.818-1.783,4.556-1.449c0.642-1.04,0.63-2.34,0.941-3.522c0.312-1.182,1.251-2.422,2.465-2.274
				c1.143,0.139,1.841,1.43,2.962,1.694c1.302,0.307,2.428-0.844,3.45-1.708s2.807-1.402,3.51-0.265
				c0.421,0.681,0.169,1.63,0.606,2.301c0.758,1.162,2.557,0.441,3.673-0.383c1.117-0.824,2.895-1.57,3.681-0.426
				c0.241,0.35,0.294,0.792,0.433,1.193c0.528,1.524,2.176,2.284,3.459,3.261c1.283,0.978,2.3,2.922,1.214,4.115
				c-0.536,0.589-1.478,0.827-1.744,1.577c-0.333,0.937,0.625,1.777,1.383,2.421c1.261,1.073,1.49,4.283-0.178,5.161
				c-0.7,0.369-1.727,0.482-1.899,1.254c-0.154,0.691,0.547,1.228,1.013,1.76c1.279,1.462,0.737,4.095-1.015,4.934
				c-0.4,0.192-0.892,0.349-1.041,0.768c-0.106,0.3,0.01,0.626,0.096,0.932c0.162,0.579,0.217,1.188,0.16,1.787
				c-0.019,0.205-0.061,0.427-0.217,0.561c-0.142,0.122-0.342,0.141-0.529,0.149c-2.408,0.107-3.57-0.745-5.04,1.351
				c-0.141,0.201-0.289,0.409-0.502,0.533c-0.199,0.116-0.435,0.147-0.665,0.166c-1.656,0.136-2.738-0.897-4.25-1.09
				c-2.099-0.268-2.544,0.815-4.393,1.684C215.617,210.4,214.207,209.557,213.661,207.576z"/>
			<path style="fill:#EBEBEB;" d="M213.902,227.328c-0.109-0.397-0.175-0.853-0.205-1.354c-0.167-2.81-2.849-2.364-5.131-2.746
				c-1.783-0.298,2.938-4.801-0.657-6.254c-0.668-0.27-1.393-0.575-1.734-1.209c-0.451-0.839,0.005-1.942,0.783-2.492
				c0.777-0.55,1.777-0.666,2.729-0.684c0.586-0.713,0.109-1.785-0.458-2.513c-0.567-0.728-1.262-1.556-1.047-2.454
				c0.325-1.355,2.219-1.404,3.587-1.14c0.506-0.819,0.496-1.843,0.741-2.773s0.985-1.907,1.941-1.791
				c0.9,0.11,1.45,1.126,2.332,1.334c1.025,0.241,1.912-0.665,2.716-1.345c0.804-0.68,2.21-1.104,2.764-0.209
				c0.332,0.536,0.133,1.284,0.478,1.812c0.597,0.915,2.013,0.347,2.892-0.302c0.879-0.649,2.28-1.236,2.898-0.336
				c0.189,0.276,0.231,0.624,0.341,0.94c0.416,1.2,1.713,1.798,2.724,2.568c1.01,0.77,1.811,2.301,0.956,3.24
				c-0.422,0.463-1.164,0.651-1.374,1.242c-0.262,0.738,0.492,1.399,1.089,1.907c0.993,0.845,1.173,3.373-0.14,4.064
				c-0.551,0.29-1.36,0.379-1.495,0.987c-0.121,0.544,0.431,0.967,0.797,1.386c1.007,1.151,0.581,3.225-0.799,3.885
				c-0.315,0.151-0.703,0.275-0.819,0.605c-0.084,0.236,0.008,0.493,0.075,0.734c0.128,0.456,0.171,0.936,0.126,1.407
				c-0.015,0.161-0.048,0.336-0.171,0.442c-0.111,0.096-0.269,0.111-0.416,0.117c-1.896,0.085-2.811-0.587-3.968,1.063
				c-0.111,0.159-0.228,0.322-0.395,0.419c-0.157,0.091-0.342,0.115-0.523,0.13c-1.304,0.107-2.156-0.706-3.347-0.858
				c-1.653-0.211-2.003,0.642-3.459,1.326C215.442,229.552,214.332,228.888,213.902,227.328z"/>
			<path style="fill:#EBEBEB;" d="M224.248,220.505c-0.139-0.505-0.222-1.083-0.26-1.72c-0.212-3.568-3.618-3.003-6.516-3.487
				c-2.264-0.378,3.731-6.098-0.834-7.943c-0.848-0.343-1.769-0.73-2.203-1.535c-0.573-1.065,0.007-2.467,0.994-3.165
				c0.988-0.698,2.256-0.846,3.466-0.869c0.745-0.905,0.139-2.267-0.581-3.192s-1.603-1.976-1.33-3.116
				c0.412-1.721,2.818-1.783,4.556-1.449c0.642-1.04,0.63-2.34,0.941-3.522c0.312-1.182,1.252-2.422,2.465-2.274
				c1.143,0.139,1.841,1.43,2.962,1.694c1.302,0.307,2.429-0.844,3.45-1.708c1.021-0.863,2.807-1.402,3.51-0.265
				c0.421,0.681,0.169,1.63,0.606,2.301c0.758,1.162,2.557,0.441,3.673-0.383c1.117-0.824,2.895-1.57,3.681-0.426
				c0.241,0.35,0.294,0.792,0.433,1.194c0.528,1.524,2.176,2.283,3.459,3.261c1.283,0.978,2.3,2.922,1.214,4.115
				c-0.536,0.589-1.478,0.827-1.744,1.577c-0.333,0.937,0.625,1.777,1.383,2.422c1.261,1.073,1.49,4.283-0.178,5.161
				c-0.7,0.369-1.727,0.482-1.899,1.254c-0.154,0.69,0.547,1.228,1.013,1.76c1.279,1.462,0.737,4.095-1.014,4.934
				c-0.4,0.192-0.892,0.349-1.041,0.768c-0.106,0.3,0.01,0.626,0.096,0.932c0.163,0.579,0.217,1.188,0.161,1.787
				c-0.019,0.205-0.061,0.427-0.217,0.561c-0.142,0.122-0.342,0.141-0.529,0.149c-2.408,0.107-3.57-0.745-5.04,1.351
				c-0.141,0.201-0.289,0.409-0.501,0.533c-0.199,0.116-0.435,0.147-0.665,0.166c-1.656,0.137-2.738-0.897-4.25-1.09
				c-2.099-0.268-2.544,0.815-4.393,1.684C226.204,223.329,224.794,222.486,224.248,220.505z"/>
			<path style="fill:#EBEBEB;" d="M195.196,189.913c-0.139-0.505-0.222-1.083-0.26-1.72c-0.212-3.568-3.618-3.003-6.516-3.487
				c-2.264-0.378,3.731-6.098-0.834-7.943c-0.848-0.343-1.769-0.73-2.203-1.535c-0.573-1.065,0.007-2.467,0.994-3.165
				c0.988-0.698,2.257-0.846,3.466-0.869c0.745-0.905,0.139-2.268-0.582-3.192c-0.721-0.924-1.603-1.976-1.33-3.116
				c0.412-1.721,2.818-1.783,4.556-1.448c0.642-1.04,0.63-2.34,0.941-3.522c0.312-1.182,1.251-2.422,2.465-2.275
				c1.143,0.139,1.841,1.43,2.962,1.694c1.302,0.307,2.428-0.844,3.45-1.708c1.021-0.864,2.807-1.402,3.51-0.265
				c0.421,0.681,0.169,1.63,0.606,2.301c0.758,1.162,2.557,0.441,3.673-0.383c1.117-0.824,2.895-1.57,3.681-0.426
				c0.241,0.35,0.294,0.792,0.433,1.193c0.528,1.524,2.176,2.284,3.459,3.261c1.283,0.978,2.3,2.922,1.214,4.115
				c-0.536,0.589-1.478,0.827-1.744,1.577c-0.333,0.937,0.625,1.777,1.383,2.422c1.261,1.073,1.49,4.283-0.178,5.161
				c-0.7,0.369-1.727,0.482-1.899,1.254c-0.154,0.69,0.547,1.228,1.013,1.76c1.279,1.462,0.737,4.095-1.015,4.934
				c-0.4,0.192-0.892,0.349-1.041,0.768c-0.106,0.299,0.01,0.626,0.096,0.932c0.163,0.579,0.217,1.188,0.16,1.787
				c-0.019,0.205-0.061,0.427-0.217,0.561c-0.142,0.122-0.342,0.141-0.529,0.149c-2.408,0.107-3.57-0.745-5.04,1.35
				c-0.141,0.201-0.289,0.409-0.502,0.533c-0.199,0.116-0.435,0.147-0.664,0.165c-1.656,0.137-2.738-0.897-4.25-1.09
				c-2.099-0.267-2.544,0.815-4.393,1.684C197.152,192.737,195.742,191.895,195.196,189.913z"/>
			<path style="fill:#EBEBEB;" d="M171.474,191.126c-0.139-0.505-0.222-1.083-0.26-1.72c-0.212-3.568-3.618-3.003-6.516-3.487
				c-2.264-0.378,3.731-6.098-0.834-7.943c-0.848-0.343-1.769-0.73-2.203-1.535c-0.573-1.065,0.007-2.467,0.994-3.165
				c0.988-0.698,2.257-0.846,3.466-0.869c0.745-0.905,0.139-2.267-0.582-3.192c-0.721-0.924-1.603-1.976-1.33-3.116
				c0.412-1.721,2.818-1.783,4.556-1.449c0.642-1.04,0.63-2.34,0.941-3.522s1.251-2.422,2.465-2.274
				c1.143,0.139,1.841,1.43,2.962,1.694c1.302,0.307,2.428-0.844,3.45-1.708c1.021-0.864,2.807-1.402,3.51-0.265
				c0.421,0.681,0.169,1.63,0.607,2.301c0.758,1.162,2.557,0.441,3.673-0.383c1.117-0.824,2.895-1.57,3.681-0.426
				c0.241,0.35,0.294,0.792,0.433,1.194c0.528,1.524,2.176,2.283,3.459,3.261c1.283,0.978,2.3,2.922,1.214,4.115
				c-0.536,0.589-1.478,0.827-1.744,1.577c-0.333,0.937,0.625,1.777,1.383,2.422c1.261,1.073,1.49,4.283-0.177,5.161
				c-0.7,0.368-1.727,0.482-1.899,1.254c-0.154,0.69,0.547,1.228,1.013,1.76c1.279,1.462,0.737,4.095-1.014,4.934
				c-0.4,0.192-0.892,0.349-1.041,0.768c-0.106,0.3,0.01,0.626,0.096,0.932c0.163,0.579,0.217,1.188,0.161,1.787
				c-0.019,0.205-0.061,0.427-0.217,0.561c-0.142,0.122-0.342,0.141-0.529,0.149c-2.408,0.107-3.57-0.745-5.04,1.35
				c-0.141,0.201-0.289,0.409-0.502,0.533c-0.199,0.116-0.435,0.147-0.665,0.166c-1.656,0.136-2.738-0.897-4.25-1.09
				c-2.099-0.268-2.544,0.815-4.393,1.684C173.431,193.95,172.021,193.108,171.474,191.126z"/>
			<path style="fill:#EBEBEB;" d="M157.066,200.833c-0.139-0.505-0.222-1.083-0.26-1.72c-0.212-3.568-3.618-3.003-6.516-3.487
				c-2.264-0.378,3.731-6.098-0.834-7.943c-0.848-0.343-1.769-0.73-2.203-1.535c-0.573-1.065,0.007-2.467,0.994-3.165
				c0.988-0.698,2.257-0.846,3.466-0.869c0.745-0.905,0.139-2.268-0.581-3.192c-0.721-0.924-1.603-1.976-1.33-3.116
				c0.412-1.721,2.818-1.783,4.556-1.448c0.642-1.04,0.63-2.34,0.941-3.522c0.312-1.182,1.251-2.422,2.465-2.274
				c1.143,0.139,1.841,1.43,2.962,1.694c1.302,0.307,2.429-0.844,3.45-1.708c1.021-0.863,2.807-1.402,3.51-0.265
				c0.421,0.681,0.169,1.63,0.606,2.301c0.758,1.162,2.557,0.441,3.673-0.383c1.117-0.824,2.895-1.57,3.681-0.426
				c0.241,0.35,0.294,0.792,0.433,1.193c0.528,1.524,2.176,2.284,3.459,3.261c1.283,0.978,2.3,2.922,1.214,4.115
				c-0.536,0.589-1.478,0.827-1.744,1.577c-0.333,0.937,0.625,1.777,1.383,2.422c1.261,1.073,1.49,4.283-0.178,5.161
				c-0.7,0.368-1.727,0.482-1.899,1.254c-0.154,0.691,0.547,1.228,1.013,1.76c1.279,1.462,0.737,4.095-1.015,4.935
				c-0.4,0.192-0.892,0.349-1.041,0.768c-0.106,0.299,0.01,0.626,0.096,0.932c0.163,0.579,0.217,1.188,0.16,1.787
				c-0.019,0.205-0.061,0.427-0.217,0.561c-0.142,0.122-0.342,0.141-0.529,0.149c-2.408,0.107-3.57-0.745-5.04,1.351
				c-0.141,0.201-0.289,0.409-0.502,0.533c-0.199,0.116-0.435,0.147-0.664,0.165c-1.656,0.137-2.738-0.897-4.25-1.09
				c-2.099-0.267-2.544,0.815-4.393,1.684C159.022,203.658,157.612,202.815,157.066,200.833z"/>
			<path style="fill:#E6E6E6;" d="M161.434,213.103c0,0,6.026,8.519,8.104,11.22c2.078,2.701,12.467,19.532,13.881,30.664
				c0.151,1.188,0.3,2.211,0.445,3.105c-4.469,29.496-3.767,83.461-3.61,92.7h14.157c0.13-10.418,1.333-105.651,1.777-108.559
				c0.469-3.076,6.388-14.793,15.53-19.607c9.143-4.814,17.043-20.744,17.043-20.744h-2.914c0,0-5.402,9.766-13.09,15.168
				c-1.117,0.785-2.273,1.437-3.459,2.051c0.276-8.8-3.057-17.219-3.057-17.219l-1.573,1.454c2.124,8.698,1.845,14.269,1.202,17.469
				c-2.58,1.293-5.257,2.79-7.949,5.32c-7.975-10.37-12.459-34.086-12.459-34.086l-2.042,1.115c0,0,0.664,6.441,2.637,14.545
				c1.494,6.138,5.891,17.695,7.937,22.942c-2.033,2.824-4.053,6.475-6.024,11.308c-0.223-0.344-0.475-0.657-0.77-0.922
				c-5.195-4.697-14.961-26.887-14.961-26.887c-2.362-5.159,1.247-18.701,1.247-18.701h-2.726l-1.222,11.844l-6.857-7.48
				l-1.247,1.039l7.272,9.35l3.74,11.846l-9.766-10.808L161.434,213.103z"/>
		</g>
		<g>
			<path style="fill:#EBEBEB;" d="M404.054,255.275c0.107-0.387,0.171-0.831,0.199-1.32c0.163-2.738,2.776-2.304,5-2.675
				c1.737-0.29-2.863-4.679,0.64-6.094c0.651-0.263,1.358-0.56,1.69-1.178c0.44-0.817-0.005-1.893-0.763-2.429
				c-0.758-0.536-1.731-0.649-2.659-0.667c-0.571-0.695-0.107-1.74,0.446-2.449c0.553-0.709,1.23-1.516,1.02-2.391
				c-0.316-1.321-2.162-1.368-3.495-1.111c-0.493-0.798-0.483-1.796-0.722-2.702c-0.239-0.907-0.96-1.859-1.891-1.745
				c-0.877,0.107-1.413,1.097-2.273,1.3c-0.999,0.235-1.863-0.648-2.647-1.31c-0.783-0.662-2.154-1.076-2.693-0.203
				c-0.323,0.522-0.13,1.251-0.465,1.765c-0.582,0.892-1.962,0.338-2.818-0.294c-0.857-0.632-2.221-1.205-2.824-0.327
				c-0.185,0.269-0.225,0.608-0.332,0.916c-0.405,1.17-1.67,1.752-2.654,2.502c-0.985,0.75-1.765,2.242-0.931,3.157
				c0.411,0.452,1.134,0.634,1.338,1.21c0.255,0.719-0.48,1.364-1.061,1.858c-0.968,0.823-1.143,3.286,0.136,3.96
				c0.537,0.283,1.325,0.37,1.457,0.962c0.118,0.53-0.42,0.942-0.777,1.351c-0.981,1.122-0.566,3.142,0.778,3.786
				c0.307,0.147,0.685,0.268,0.798,0.589c0.082,0.23-0.007,0.48-0.073,0.715c-0.125,0.444-0.167,0.912-0.123,1.371
				c0.015,0.157,0.047,0.327,0.167,0.43c0.109,0.093,0.262,0.108,0.406,0.114c1.848,0.082,2.739-0.572,3.867,1.036
				c0.108,0.155,0.222,0.314,0.385,0.409c0.153,0.089,0.334,0.113,0.51,0.127c1.27,0.105,2.1-0.688,3.261-0.836
				c1.611-0.205,1.952,0.625,3.371,1.292C402.553,257.442,403.635,256.796,404.054,255.275z"/>
			<path style="fill:#EBEBEB;" d="M382.774,252.976c0.107-0.387,0.171-0.831,0.199-1.32c0.163-2.738,2.776-2.304,5-2.675
				c1.737-0.29-2.863-4.678,0.64-6.094c0.65-0.263,1.357-0.56,1.69-1.178c0.44-0.817-0.005-1.893-0.763-2.428
				c-0.758-0.536-1.731-0.649-2.659-0.667c-0.571-0.695-0.107-1.74,0.446-2.449c0.553-0.709,1.23-1.516,1.02-2.391
				c-0.316-1.321-2.162-1.368-3.495-1.111c-0.493-0.798-0.483-1.796-0.722-2.702c-0.239-0.907-0.96-1.859-1.891-1.745
				c-0.877,0.107-1.413,1.097-2.273,1.3c-0.999,0.235-1.863-0.648-2.647-1.31c-0.783-0.663-2.153-1.076-2.693-0.203
				c-0.323,0.522-0.13,1.251-0.465,1.765c-0.582,0.892-1.962,0.338-2.818-0.294c-0.857-0.632-2.221-1.205-2.824-0.327
				c-0.185,0.269-0.225,0.608-0.332,0.916c-0.405,1.169-1.669,1.752-2.654,2.502c-0.985,0.75-1.765,2.242-0.932,3.157
				c0.411,0.452,1.134,0.635,1.338,1.21c0.255,0.719-0.48,1.363-1.061,1.858c-0.968,0.823-1.143,3.286,0.136,3.96
				c0.537,0.283,1.325,0.37,1.457,0.962c0.118,0.53-0.42,0.942-0.777,1.351c-0.981,1.122-0.566,3.142,0.778,3.786
				c0.307,0.147,0.685,0.268,0.799,0.589c0.081,0.23-0.008,0.48-0.073,0.715c-0.125,0.444-0.167,0.912-0.123,1.371
				c0.015,0.157,0.047,0.327,0.167,0.43c0.109,0.093,0.263,0.108,0.406,0.114c1.848,0.082,2.739-0.572,3.867,1.036
				c0.108,0.155,0.222,0.314,0.385,0.409c0.153,0.089,0.334,0.113,0.51,0.127c1.27,0.105,2.1-0.688,3.261-0.836
				c1.611-0.205,1.952,0.625,3.371,1.292C381.273,255.143,382.355,254.496,382.774,252.976z"/>
			<path style="fill:#EBEBEB;" d="M380.723,239.423c0.107-0.387,0.171-0.831,0.199-1.32c0.163-2.738,2.776-2.304,5-2.675
				c1.737-0.29-2.863-4.678,0.64-6.094c0.651-0.263,1.358-0.56,1.69-1.178c0.44-0.817-0.005-1.893-0.763-2.428
				c-0.758-0.536-1.731-0.649-2.659-0.667c-0.571-0.695-0.107-1.74,0.446-2.449c0.553-0.709,1.23-1.516,1.021-2.391
				c-0.316-1.321-2.162-1.368-3.495-1.111c-0.493-0.798-0.483-1.796-0.722-2.702c-0.239-0.907-0.96-1.859-1.891-1.745
				c-0.877,0.107-1.413,1.097-2.273,1.3c-0.999,0.235-1.863-0.648-2.647-1.31c-0.784-0.663-2.154-1.076-2.693-0.203
				c-0.323,0.522-0.129,1.251-0.465,1.765c-0.582,0.892-1.962,0.338-2.818-0.294c-0.857-0.632-2.221-1.205-2.824-0.327
				c-0.185,0.269-0.225,0.608-0.332,0.916c-0.405,1.169-1.67,1.752-2.654,2.502c-0.985,0.75-1.765,2.242-0.931,3.157
				c0.411,0.452,1.134,0.635,1.338,1.21c0.255,0.719-0.48,1.364-1.061,1.858c-0.968,0.823-1.143,3.286,0.136,3.96
				c0.537,0.283,1.325,0.37,1.457,0.962c0.118,0.53-0.42,0.942-0.777,1.351c-0.981,1.122-0.566,3.142,0.778,3.786
				c0.307,0.147,0.685,0.268,0.798,0.589c0.081,0.23-0.008,0.48-0.073,0.715c-0.125,0.444-0.167,0.912-0.123,1.371
				c0.015,0.157,0.047,0.327,0.167,0.43c0.109,0.093,0.262,0.108,0.406,0.114c1.848,0.082,2.739-0.572,3.867,1.036
				c0.108,0.155,0.222,0.314,0.385,0.409c0.153,0.089,0.334,0.113,0.51,0.127c1.27,0.105,2.1-0.688,3.261-0.836
				c1.611-0.205,1.952,0.625,3.371,1.292C379.222,241.591,380.304,240.944,380.723,239.423z"/>
			<path style="fill:#EBEBEB;" d="M366.705,246.174c0.107-0.387,0.171-0.831,0.199-1.32c0.163-2.738,2.776-2.304,5-2.675
				c1.737-0.29-2.863-4.678,0.64-6.094c0.651-0.263,1.358-0.56,1.69-1.178c0.44-0.817-0.005-1.893-0.763-2.428
				c-0.758-0.536-1.731-0.649-2.659-0.667c-0.571-0.695-0.107-1.74,0.446-2.449c0.553-0.709,1.23-1.516,1.02-2.391
				c-0.316-1.321-2.162-1.368-3.495-1.111c-0.493-0.798-0.483-1.796-0.722-2.702c-0.239-0.907-0.96-1.859-1.891-1.745
				c-0.877,0.107-1.413,1.097-2.273,1.3c-0.999,0.235-1.863-0.648-2.647-1.31c-0.783-0.663-2.154-1.076-2.693-0.203
				c-0.323,0.523-0.13,1.251-0.465,1.765c-0.582,0.892-1.962,0.338-2.818-0.294c-0.857-0.632-2.221-1.205-2.824-0.327
				c-0.185,0.269-0.225,0.608-0.332,0.916c-0.405,1.169-1.669,1.752-2.654,2.502c-0.985,0.75-1.765,2.242-0.932,3.157
				c0.411,0.452,1.134,0.635,1.338,1.21c0.255,0.719-0.48,1.363-1.061,1.858c-0.968,0.823-1.143,3.286,0.136,3.96
				c0.537,0.283,1.325,0.37,1.457,0.962c0.118,0.53-0.42,0.942-0.777,1.351c-0.981,1.122-0.566,3.142,0.778,3.786
				c0.307,0.147,0.685,0.268,0.798,0.589c0.081,0.23-0.008,0.48-0.073,0.715c-0.125,0.444-0.167,0.912-0.123,1.371
				c0.015,0.157,0.047,0.327,0.167,0.43c0.109,0.093,0.262,0.108,0.405,0.114c1.848,0.082,2.739-0.572,3.867,1.036
				c0.108,0.155,0.222,0.314,0.385,0.409c0.153,0.089,0.334,0.113,0.51,0.127c1.27,0.105,2.101-0.688,3.261-0.836
				c1.611-0.205,1.952,0.625,3.371,1.292C365.204,248.341,366.286,247.694,366.705,246.174z"/>
			<path style="fill:#EBEBEB;" d="M352.538,243.056c0.107-0.387,0.171-0.831,0.199-1.32c0.163-2.738,2.776-2.304,5-2.675
				c1.737-0.29-2.863-4.678,0.64-6.094c0.651-0.263,1.358-0.56,1.69-1.178c0.44-0.817-0.005-1.893-0.763-2.428
				c-0.758-0.536-1.731-0.649-2.659-0.667c-0.571-0.695-0.107-1.74,0.446-2.449c0.553-0.709,1.23-1.516,1.021-2.391
				c-0.316-1.321-2.162-1.368-3.496-1.111c-0.493-0.798-0.483-1.796-0.722-2.702c-0.239-0.907-0.96-1.859-1.891-1.745
				c-0.877,0.107-1.413,1.097-2.273,1.3c-0.999,0.235-1.863-0.648-2.647-1.31c-0.784-0.663-2.154-1.076-2.693-0.203
				c-0.323,0.523-0.13,1.251-0.465,1.765c-0.582,0.892-1.962,0.338-2.818-0.294c-0.857-0.632-2.221-1.205-2.824-0.327
				c-0.185,0.269-0.225,0.608-0.332,0.916c-0.405,1.169-1.669,1.752-2.654,2.502c-0.985,0.75-1.765,2.242-0.932,3.157
				c0.411,0.452,1.134,0.635,1.338,1.21c0.255,0.719-0.48,1.363-1.061,1.858c-0.968,0.823-1.143,3.286,0.136,3.96
				c0.537,0.283,1.325,0.37,1.457,0.962c0.118,0.53-0.42,0.942-0.777,1.351c-0.981,1.122-0.566,3.142,0.778,3.786
				c0.307,0.147,0.685,0.268,0.799,0.589c0.081,0.23-0.008,0.48-0.073,0.715c-0.125,0.444-0.167,0.912-0.123,1.371
				c0.015,0.157,0.047,0.327,0.167,0.43c0.109,0.093,0.263,0.108,0.406,0.114c1.848,0.082,2.739-0.572,3.867,1.036
				c0.108,0.154,0.222,0.314,0.385,0.409c0.153,0.089,0.334,0.113,0.51,0.127c1.27,0.105,2.101-0.688,3.261-0.836
				c1.611-0.205,1.952,0.625,3.371,1.292C351.036,245.223,352.118,244.576,352.538,243.056z"/>
			<path style="fill:#EBEBEB;" d="M352.353,258.211c0.084-0.305,0.134-0.654,0.157-1.039c0.128-2.156,2.186-1.814,3.937-2.107
				c1.368-0.229-2.254-3.684,0.504-4.799c0.512-0.207,1.069-0.441,1.331-0.928c0.346-0.643-0.004-1.49-0.601-1.912
				c-0.596-0.422-1.363-0.511-2.094-0.525c-0.45-0.547-0.084-1.37,0.351-1.928c0.435-0.559,0.968-1.194,0.803-1.883
				c-0.249-1.04-1.702-1.077-2.752-0.875c-0.388-0.628-0.38-1.414-0.569-2.128c-0.188-0.714-0.756-1.463-1.489-1.374
				c-0.69,0.084-1.112,0.864-1.79,1.023c-0.786,0.185-1.467-0.51-2.084-1.032c-0.617-0.522-1.696-0.847-2.121-0.16
				c-0.254,0.411-0.102,0.985-0.366,1.39c-0.458,0.702-1.545,0.266-2.219-0.232c-0.675-0.498-1.749-0.949-2.224-0.258
				c-0.145,0.212-0.177,0.479-0.262,0.721c-0.319,0.921-1.315,1.38-2.09,1.97c-0.775,0.591-1.39,1.765-0.733,2.486
				c0.324,0.355,0.893,0.5,1.054,0.953c0.201,0.566-0.378,1.074-0.835,1.463c-0.762,0.648-0.9,2.588,0.107,3.118
				c0.423,0.223,1.043,0.291,1.147,0.758c0.093,0.417-0.331,0.742-0.612,1.064c-0.772,0.883-0.445,2.474,0.613,2.981
				c0.242,0.116,0.539,0.211,0.629,0.464c0.064,0.181-0.006,0.378-0.058,0.563c-0.098,0.35-0.131,0.718-0.097,1.08
				c0.012,0.124,0.037,0.258,0.131,0.339c0.086,0.073,0.207,0.085,0.319,0.09c1.455,0.065,2.157-0.45,3.045,0.816
				c0.085,0.122,0.175,0.247,0.303,0.322c0.12,0.07,0.263,0.089,0.401,0.1c1,0.082,1.654-0.542,2.568-0.658
				c1.268-0.162,1.537,0.492,2.654,1.018C351.171,259.917,352.023,259.408,352.353,258.211z"/>
			<path style="fill:#EBEBEB;" d="M344.414,252.976c0.107-0.387,0.17-0.831,0.199-1.32c0.163-2.738,2.776-2.304,5-2.675
				c1.737-0.29-2.863-4.678,0.64-6.094c0.65-0.263,1.357-0.56,1.69-1.178c0.44-0.817-0.005-1.893-0.763-2.428
				c-0.758-0.536-1.731-0.649-2.659-0.667c-0.571-0.695-0.107-1.74,0.446-2.449c0.553-0.709,1.23-1.516,1.02-2.391
				c-0.316-1.321-2.162-1.368-3.495-1.111c-0.493-0.798-0.483-1.796-0.722-2.702c-0.239-0.907-0.96-1.859-1.891-1.745
				c-0.877,0.107-1.413,1.097-2.273,1.3c-0.999,0.235-1.863-0.648-2.647-1.31c-0.783-0.663-2.154-1.076-2.693-0.203
				c-0.323,0.522-0.13,1.251-0.465,1.765c-0.582,0.892-1.962,0.338-2.818-0.294c-0.857-0.632-2.221-1.205-2.824-0.327
				c-0.185,0.269-0.225,0.608-0.332,0.916c-0.405,1.169-1.669,1.752-2.654,2.502c-0.985,0.75-1.765,2.242-0.931,3.157
				c0.411,0.452,1.134,0.635,1.338,1.21c0.255,0.719-0.48,1.363-1.061,1.858c-0.968,0.823-1.143,3.286,0.136,3.96
				c0.537,0.283,1.325,0.37,1.457,0.962c0.118,0.53-0.42,0.942-0.777,1.351c-0.981,1.122-0.566,3.142,0.778,3.786
				c0.307,0.147,0.685,0.268,0.798,0.589c0.081,0.23-0.007,0.48-0.073,0.715c-0.125,0.444-0.167,0.912-0.123,1.371
				c0.015,0.157,0.047,0.327,0.167,0.43c0.109,0.093,0.263,0.108,0.406,0.114c1.848,0.082,2.739-0.572,3.867,1.036
				c0.108,0.155,0.222,0.314,0.385,0.409c0.153,0.089,0.334,0.113,0.51,0.127c1.27,0.105,2.1-0.688,3.261-0.836
				c1.611-0.205,1.952,0.625,3.371,1.292C342.913,255.143,343.995,254.496,344.414,252.976z"/>
			<path style="fill:#EBEBEB;" d="M366.705,229.504c0.107-0.387,0.171-0.831,0.199-1.32c0.163-2.738,2.776-2.304,5-2.675
				c1.737-0.29-2.863-4.678,0.64-6.094c0.651-0.263,1.358-0.56,1.69-1.178c0.44-0.817-0.005-1.893-0.763-2.428
				c-0.758-0.536-1.731-0.649-2.659-0.667c-0.571-0.695-0.107-1.74,0.446-2.449c0.553-0.709,1.23-1.516,1.02-2.391
				c-0.316-1.32-2.162-1.368-3.495-1.111c-0.493-0.798-0.483-1.796-0.722-2.702c-0.239-0.907-0.96-1.859-1.891-1.745
				c-0.877,0.107-1.413,1.097-2.273,1.3c-0.999,0.235-1.863-0.648-2.647-1.31c-0.783-0.663-2.154-1.076-2.693-0.203
				c-0.323,0.523-0.13,1.251-0.465,1.765c-0.582,0.892-1.962,0.338-2.818-0.294c-0.857-0.632-2.221-1.205-2.824-0.327
				c-0.185,0.269-0.225,0.608-0.332,0.916c-0.405,1.169-1.669,1.752-2.654,2.502c-0.985,0.75-1.765,2.242-0.932,3.157
				c0.411,0.452,1.134,0.635,1.338,1.21c0.255,0.719-0.48,1.363-1.061,1.858c-0.968,0.823-1.143,3.286,0.136,3.96
				c0.537,0.283,1.325,0.37,1.457,0.962c0.118,0.53-0.42,0.942-0.777,1.351c-0.981,1.122-0.566,3.142,0.778,3.786
				c0.307,0.147,0.685,0.268,0.798,0.589c0.081,0.23-0.008,0.48-0.073,0.715c-0.125,0.444-0.167,0.912-0.123,1.371
				c0.015,0.157,0.047,0.327,0.167,0.43c0.109,0.093,0.262,0.108,0.405,0.114c1.848,0.082,2.739-0.572,3.867,1.036
				c0.108,0.154,0.222,0.314,0.385,0.409c0.153,0.089,0.334,0.113,0.51,0.127c1.27,0.105,2.101-0.688,3.261-0.836
				c1.611-0.205,1.952,0.625,3.371,1.292C365.204,231.671,366.286,231.024,366.705,229.504z"/>
			<path style="fill:#EBEBEB;" d="M384.906,230.434c0.107-0.387,0.171-0.831,0.199-1.32c0.163-2.738,2.776-2.304,5-2.675
				c1.737-0.29-2.863-4.679,0.64-6.094c0.651-0.263,1.358-0.56,1.69-1.178c0.44-0.817-0.005-1.893-0.763-2.428
				c-0.758-0.536-1.731-0.649-2.659-0.667c-0.571-0.695-0.107-1.74,0.446-2.449c0.553-0.709,1.23-1.516,1.02-2.391
				c-0.316-1.321-2.162-1.368-3.495-1.111c-0.493-0.798-0.483-1.796-0.722-2.702c-0.239-0.907-0.96-1.858-1.891-1.745
				c-0.877,0.107-1.413,1.097-2.273,1.3c-0.999,0.235-1.863-0.648-2.647-1.31c-0.783-0.662-2.154-1.076-2.693-0.203
				c-0.323,0.522-0.13,1.251-0.465,1.765c-0.582,0.892-1.962,0.338-2.818-0.294c-0.857-0.632-2.221-1.205-2.824-0.327
				c-0.185,0.269-0.225,0.607-0.332,0.916c-0.405,1.17-1.669,1.752-2.654,2.502c-0.985,0.75-1.765,2.242-0.932,3.157
				c0.411,0.452,1.134,0.634,1.338,1.21c0.255,0.719-0.48,1.364-1.061,1.858c-0.968,0.823-1.143,3.286,0.136,3.96
				c0.537,0.283,1.325,0.37,1.457,0.962c0.118,0.53-0.42,0.942-0.777,1.351c-0.981,1.122-0.566,3.142,0.778,3.786
				c0.307,0.147,0.685,0.268,0.798,0.589c0.081,0.23-0.008,0.48-0.073,0.715c-0.125,0.444-0.167,0.912-0.123,1.371
				c0.015,0.157,0.047,0.327,0.167,0.43c0.109,0.093,0.262,0.108,0.406,0.114c1.848,0.082,2.739-0.572,3.867,1.036
				c0.108,0.154,0.222,0.314,0.385,0.409c0.153,0.089,0.334,0.113,0.51,0.127c1.27,0.105,2.1-0.688,3.261-0.836
				c1.611-0.205,1.952,0.625,3.371,1.292C383.405,232.602,384.487,231.955,384.906,230.434z"/>
			<path style="fill:#EBEBEB;" d="M395.961,237.883c0.107-0.387,0.171-0.831,0.2-1.32c0.163-2.738,2.776-2.304,5-2.675
				c1.737-0.29-2.863-4.679,0.64-6.094c0.651-0.263,1.358-0.56,1.69-1.178c0.44-0.817-0.005-1.893-0.763-2.428
				c-0.758-0.536-1.731-0.649-2.659-0.667c-0.571-0.695-0.107-1.74,0.446-2.449c0.553-0.709,1.23-1.516,1.02-2.391
				c-0.316-1.321-2.162-1.368-3.495-1.111c-0.493-0.798-0.483-1.796-0.722-2.702c-0.239-0.907-0.96-1.859-1.891-1.745
				c-0.877,0.107-1.413,1.097-2.273,1.3c-0.999,0.235-1.863-0.648-2.647-1.31c-0.783-0.663-2.154-1.076-2.693-0.203
				c-0.323,0.522-0.13,1.251-0.465,1.765c-0.582,0.892-1.962,0.338-2.818-0.294c-0.857-0.632-2.221-1.205-2.824-0.327
				c-0.185,0.269-0.225,0.608-0.332,0.916c-0.405,1.169-1.67,1.752-2.654,2.502c-0.985,0.75-1.765,2.242-0.931,3.157
				c0.411,0.452,1.134,0.635,1.338,1.21c0.255,0.719-0.48,1.363-1.061,1.858c-0.968,0.823-1.143,3.286,0.136,3.96
				c0.537,0.283,1.325,0.37,1.457,0.962c0.118,0.53-0.42,0.942-0.777,1.351c-0.981,1.122-0.566,3.142,0.778,3.786
				c0.307,0.147,0.685,0.268,0.798,0.589c0.082,0.23-0.007,0.48-0.073,0.715c-0.125,0.444-0.167,0.912-0.123,1.371
				c0.015,0.157,0.047,0.327,0.167,0.43c0.109,0.093,0.262,0.108,0.406,0.114c1.848,0.082,2.739-0.572,3.867,1.036
				c0.108,0.154,0.222,0.314,0.385,0.409c0.153,0.089,0.334,0.112,0.51,0.127c1.27,0.105,2.1-0.688,3.261-0.836
				c1.611-0.205,1.952,0.625,3.371,1.292C394.46,240.05,395.542,239.403,395.961,237.883z"/>
			<path style="fill:#E6E6E6;" d="M392.609,247.297c0,0-4.623,6.536-6.218,8.609c-1.594,2.072-9.565,14.986-10.65,23.527
				c-0.116,0.911-0.23,1.696-0.341,2.382c3.429,22.631,2.891,64.037,2.77,71.126h-10.863c-0.1-7.993-1.023-81.063-1.363-83.294
				c-0.36-2.36-4.901-11.35-11.916-15.044c-7.015-3.694-13.077-15.916-13.077-15.916h2.236c0,0,4.145,7.493,10.044,11.638
				c0.857,0.602,1.744,1.103,2.654,1.573c-0.211-6.752,2.346-13.212,2.346-13.212l1.207,1.116
				c-1.63,6.674-1.415,10.948-0.922,13.403c1.98,0.992,4.034,2.141,6.099,4.082c6.119-7.956,9.559-26.153,9.559-26.153l1.567,0.856
				c0,0-0.509,4.942-2.023,11.16c-1.146,4.71-4.52,13.577-6.09,17.603c1.56,2.167,3.11,4.968,4.622,8.676
				c0.171-0.264,0.365-0.504,0.59-0.708c3.986-3.604,11.479-20.629,11.479-20.629c1.812-3.958-0.957-14.348-0.957-14.348h2.092
				l0.937,9.087l5.261-5.739l0.957,0.797l-5.58,7.174l-2.87,9.089l7.493-8.292L392.609,247.297z"/>
		</g>
		
			<rect x="116.842" y="146.529" transform="matrix(-1 -1.224647e-16 1.224647e-16 -1 240.5935 515.7162)" style="fill:#E6E6E6;" width="6.91" height="222.657"/>
		<g>
			<path style="fill:#E0E0E0;" d="M60.969,369.282v12.939h364.567v-12.939c0-2.248-1.568-4.061-3.816-4.061H64.785
				C62.537,365.22,60.969,367.034,60.969,369.282z"/>
			<g>
				<rect x="382.091" y="365.22" style="fill:#F5F5F5;" width="22.667" height="17"/>
				<rect x="339.589" y="365.22" style="fill:#F5F5F5;" width="21.723" height="17"/>
				<rect x="296.143" y="365.22" style="fill:#F5F5F5;" width="22.667" height="17"/>
				<rect x="253.642" y="365.22" style="fill:#F5F5F5;" width="21.723" height="17"/>
				<rect x="211.141" y="365.22" style="fill:#F5F5F5;" width="21.723" height="17"/>
				<rect x="167.695" y="365.22" style="fill:#F5F5F5;" width="22.667" height="17"/>
				<rect x="125.193" y="365.22" style="fill:#F5F5F5;" width="21.723" height="17"/>
				<rect x="81.748" y="365.22" style="fill:#F5F5F5;" width="22.667" height="17"/>
			</g>
		</g>
		<g>
			<circle style="fill:#E0E0E0;" cx="120.297" cy="158.596" r="22.563"/>
			<circle style="fill:#EBEBEB;" cx="120.297" cy="158.596" r="18.464"/>
			<g>
				<path style="fill:#E0E0E0;" d="M110.678,167.496l1.852-4.108c1.987,1.448,4.951,2.458,7.779,2.458
					c3.233,0,4.546-1.078,4.546-2.526c0-4.412-13.706-1.381-13.706-10.137c0-4.007,3.233-7.341,9.934-7.341
					c2.964,0,5.995,0.708,8.184,2.088l-1.684,4.142c-2.189-1.246-4.445-1.852-6.533-1.852c-3.233,0-4.479,1.212-4.479,2.694
					c0,4.344,13.706,1.347,13.706,10.001c0,3.941-3.267,7.308-10.002,7.308C116.538,170.224,112.766,169.112,110.678,167.496z"/>
			</g>
		</g>
	</g>
</g>
<g id="Background_Simple" style="display:none;">
	<g style="display:inline;">
		<path style="fill:#407BFF;" d="M125.672,91.349c24.141-15.819,54.159-21.284,82.714-8.61
			c37.358,16.581,51.898,60.33,69.592,94.185c12.621,24.149,31.36,43.335,57.541,52.098c24.223,8.108,50.45,1.394,74.567,9.13
			c30.727,9.856,37.294,38.428,25.715,66.113c-19.683,47.061-72.053,66.089-118.767,73.65c-54.9,8.885-120.48,11.772-166.888-23.76
			C89.575,307.78,54.739,216.052,83.708,142.767C91.974,121.856,107.08,103.532,125.672,91.349z"/>
		<path style="opacity:0.9;fill:#FFFFFF;" d="M125.672,91.349c24.141-15.819,54.159-21.284,82.714-8.61
			c37.358,16.581,51.898,60.33,69.592,94.185c12.621,24.149,31.36,43.335,57.541,52.098c24.223,8.108,50.45,1.394,74.567,9.13
			c30.727,9.856,37.294,38.428,25.715,66.113c-19.683,47.061-72.053,66.089-118.767,73.65c-54.9,8.885-120.48,11.772-166.888-23.76
			C89.575,307.78,54.739,216.052,83.708,142.767C91.974,121.856,107.08,103.532,125.672,91.349z"/>
	</g>
</g>
<g id="Shadow_1_">
	<ellipse id="_x3C_Path_x3E__359_" style="fill:#F5F5F5;" cx="250" cy="416.238" rx="193.889" ry="11.323"/>
</g>
<g id="Device">
	<g>
		<path style="fill:#263238;" d="M419.226,417.117H266.428c-5.745,0-10.402-4.657-10.402-10.402V115.271
			c0-5.745,4.657-10.402,10.402-10.402h152.798c5.745,0,10.402,4.657,10.402,10.403v291.443
			C429.629,412.459,424.971,417.117,419.226,417.117z"/>
		<path style="fill:#407BFF;" d="M423.77,115.329v290.768c0,2.391-1.922,4.249-4.314,4.249H265.738c-2.198,0-3.854-1.702-3.854-3.9
			V114.98c0-1.904,1.398-3.569,3.302-3.569h38.429c1.085,0,2.07,0.708,2.474,1.729l1.591,3.918c0.405,1.012,1.389,1.711,2.474,1.711
			h65.426c1.086,0,2.07-0.672,2.474-1.683l1.591-3.937c0.405-1.021,1.389-1.738,2.474-1.738h37.878
			C422.096,111.411,423.77,113.232,423.77,115.329z"/>
		<rect x="261.885" y="129.577" style="opacity:0.3;fill:#FFFFFF;enable-background:new    ;" width="161.885" height="264.418"/>
		<g>
			<g>
				
					<rect x="279.725" y="120.463" transform="matrix(-1 -1.224647e-16 1.224647e-16 -1 561.4488 243.5916)" style="opacity:0.6;fill:#FFFFFF;enable-background:new    ;" width="2" height="2.666"/>
				
					<rect x="276.466" y="119.574" transform="matrix(-1 -1.224647e-16 1.224647e-16 -1 554.9312 242.7023)" style="opacity:0.6;fill:#FFFFFF;enable-background:new    ;" width="2" height="3.555"/>
				
					<rect x="273.207" y="118.684" transform="matrix(-1 -1.224647e-16 1.224647e-16 -1 548.4138 241.8131)" style="opacity:0.6;fill:#FFFFFF;enable-background:new    ;" width="2" height="4.444"/>
				
					<rect x="269.948" y="117.795" transform="matrix(-1 -1.224647e-16 1.224647e-16 -1 541.8962 240.9237)" style="opacity:0.6;fill:#FFFFFF;enable-background:new    ;" width="2" height="5.334"/>
			</g>
			<g>
				<rect x="404.263" y="119.49" style="opacity:0.6;fill:#FFFFFF;enable-background:new    ;" width="1.185" height="2.666"/>
				
					<rect x="406.263" y="118.517" transform="matrix(-1 -1.224647e-16 1.224647e-16 -1 821.9696 241.646)" style="opacity:0.6;fill:#FFFFFF;enable-background:new    ;" width="9.443" height="4.611"/>
			</g>
		</g>
		<g>
			<path style="opacity:0.4;fill:#FFFFFF;enable-background:new    ;" d="M421.502,158.449v77.91c0,2.41-1.95,4.37-4.37,4.37
				h-148.61c-2.41,0-4.37-1.96-4.37-4.37v-77.91c0-2.41,1.96-4.37,4.37-4.37h148.61
				C419.552,154.079,421.502,156.039,421.502,158.449z"/>
			<path style="fill:#FFFFFF;" d="M381.711,238.452h-77.768c-2.01,0-3.64-1.63-3.64-3.64v-74.817c0-2.01,1.63-3.64,3.64-3.64h77.768
				c2.01,0,3.64,1.63,3.64,3.64v74.817C385.351,236.822,383.722,238.452,381.711,238.452z"/>
			<g>
				<path style="fill:#263238;" d="M287.485,199.619c0,3.032-2.457,5.489-5.489,5.489c-3.031,0-5.489-2.458-5.489-5.489
					c0-3.031,2.458-5.489,5.489-5.489C285.028,194.13,287.485,196.588,287.485,199.619z"/>
				<path style="opacity:0.2;enable-background:new    ;" d="M285.283,199.619c0,1.815-1.472,3.287-3.287,3.287
					c-1.815,0-3.287-1.472-3.287-3.287s1.472-3.287,3.287-3.287C283.811,196.332,285.283,197.804,285.283,199.619z"/>
				<path style="fill:#263238;" d="M268.793,191.476l1.432-2.11c0,0,5.425,0.659,7.799-1.583h6.923l0.337,0.264l-7.853,6.083
					l-7.206-1.006L268.793,191.476z"/>
				<polygon style="fill:#263238;" points="281.996,192.597 284.617,192.597 288.639,198.926 289.562,198.926 286.661,192.597 
					286.661,190.289 284.221,190.289 				"/>
				<polygon style="fill:#263238;" points="264.152,185.41 264.292,185.89 264.152,186.53 				"/>
				<path style="fill:#263238;" d="M265.482,181.88l-0.6,1.09l0.94,0.45l0.25,0.68l-0.3,0.35l1.04,0.76c0,0,0.2,0.53-0.34,0.68
					l-1.29-0.68h-1.03v-2.34h0.44l0.54-1.19c0,0-0.44-1.08,1.44-1.83l0.44,0.35v0.94l-0.59,0.54L265.482,181.88z"/>
				<polygon style="fill:#407BFF;" points="264.842,187.32 264.152,188.3 264.152,186.65 				"/>
				<path style="fill:#407BFF;" d="M288.642,188.64l-1.78,2.63l-0.2-0.16l-0.52-0.43l-3.37,1.78l-0.3,0.14l-6.82,3.16l0.46,0.57
					h3.56l0.4,0.63l-1.15,1.51l-2.15,2.83l-0.85,1.12h-11.77v-9.58c1.04,0.72,2.2,1.4,2.76,1.33c0.07,0,0.12-0.01,0.17-0.04
					c0.07-0.04,0.14-0.08,0.19-0.13c0.02-0.01,0.03-0.03,0.05-0.04c0.05-0.05,0.09-0.1,0.12-0.15c0.02-0.03,0.04-0.06,0.05-0.09
					c0.03-0.06,0.05-0.12,0.06-0.18c0.09-0.44-0.21-0.88-0.21-0.88l1.45-1.18l0.01-0.01c8.1,0.2,10.35-1.84,10.35-1.84l6.12-1.59
					h0.02L288.642,188.64z"/>
				<polygon style="fill:#263238;" points="280.072,196.96 278.922,198.47 276.772,201.3 275.922,202.42 264.152,202.42 
					264.152,201.91 266.222,201.56 265.832,199.32 271.012,195.53 273.082,196.33 275.652,195.76 276.112,196.33 279.672,196.33 
									"/>
				<path style="fill:#263238;" d="M266.913,194.17c-0.52,0.28-1.02,0.37-1.02,0.37l-1.74-0.87v-0.83
					C265.192,193.56,266.352,194.24,266.913,194.17z"/>
				<g>
					<polygon style="opacity:0.2;enable-background:new    ;" points="264.842,187.32 264.152,188.3 264.152,186.65 					"/>
					<path style="opacity:0.2;enable-background:new    ;" d="M269.782,193.12l-3.16,3.21l-2.47-1.39v-2.1
						c1.04,0.72,2.2,1.4,2.76,1.33c0.07,0,0.12-0.01,0.17-0.04c0.07-0.04,0.14-0.08,0.19-0.13c0.02-0.01,0.03-0.03,0.05-0.04
						c0.05-0.05,0.09-0.1,0.12-0.15c0.02-0.03,0.04-0.06,0.05-0.09c0.03-0.06,0.05-0.12,0.06-0.18c0.09-0.44-0.21-0.88-0.21-0.88
						L269.782,193.12z"/>
					<polygon style="opacity:0.2;enable-background:new    ;" points="288.642,188.64 286.862,191.27 286.663,191.11 
						286.142,190.68 282.772,192.46 282.472,192.6 275.652,195.76 276.112,196.33 279.672,196.33 280.072,196.96 278.922,198.47 
						276.772,201.3 275.922,202.42 264.152,202.42 264.152,195.65 267.012,197.18 270.913,194.6 274.832,195.1 276.902,194.06 
						278.722,193.13 284.112,190.41 284.342,190.29 285.782,189.56 					"/>
				</g>
			</g>
			<g>
				<g>
					<polygon style="fill:#263238;" points="312.508,198.828 371.859,198.828 370.672,188.196 353.574,184.537 337.684,187.306 
						318.541,189.185 313.793,194.625 					"/>
					<polygon style="opacity:0.2;enable-background:new    ;" points="312.508,198.828 371.859,198.828 370.672,188.196 
						353.574,184.537 337.684,187.306 318.541,189.185 313.793,194.625 					"/>
				</g>
				<g>
					<path style="fill:#263238;" d="M329.024,198.828c0,3.469-2.812,6.28-6.28,6.28c-3.468,0-6.28-2.812-6.28-6.28
						c0-3.468,2.812-6.28,6.28-6.28C326.212,192.548,329.024,195.36,329.024,198.828z"/>
					<circle style="opacity:0.2;enable-background:new    ;" cx="322.744" cy="198.828" r="4.203"/>
				</g>
				<g>
					<path style="fill:#263238;" d="M370.024,198.828c0,3.469-2.812,6.28-6.28,6.28c-3.468,0-6.28-2.812-6.28-6.28
						c0-3.468,2.812-6.28,6.28-6.28C367.212,192.548,370.024,195.36,370.024,198.828z"/>
					<circle style="opacity:0.2;enable-background:new    ;" cx="363.744" cy="198.828" r="4.203"/>
				</g>
				<path style="fill:#407BFF;" d="M375.912,193.238l-0.69,4.91l-3.86,1.22c0,0-0.1-8.3-8.5-8.3c-8.41,0-7.32,9.89-7.32,9.89h-1.47
					l-2.77-1.19h-18.14l-1.58,1.19h-1.07c0,0,0.89-9.89-7.77-9.89c-8.65,0-7.56,9.89-7.56,9.89l-4.95-2.13l-0.49-4.99l2.07-1.29
					l0.5-3.03c0.22-0.17,0.45-0.33,0.68-0.48c5.79-3.88,13.71-4.4,13.71-4.4c6.81-6.93,9.57-7.91,9.57-7.91
					c15.63-1.09,30.54,0.59,30.54,0.59l4.55,5.83l1.07,0.87l1.11,0.91c0.69,3.17,0.49,6.14,0.49,6.14L375.912,193.238z"/>
				<path style="opacity:0.6;fill:#FFFFFF;enable-background:new    ;" d="M317.292,189.378l-3.47,3.17h-2.01l0.5-3.03
					c0.22-0.17,0.45-0.33,0.68-0.48l2.52-0.38L317.292,189.378z"/>
				<path style="opacity:0.6;fill:#FFFFFF;enable-background:new    ;" d="M374.032,191.068l-1.26-0.47c0-2.63-1.58-5.27-1.58-5.27
					l1.24-1.31l1.11,0.91C374.232,188.098,374.032,191.068,374.032,191.068z"/>
				<path style="fill:#263238;" d="M371.362,183.148c-8.23,1.97-44.66,1.49-44.66,1.49c0.21-0.21,0.41-0.42,0.62-0.62
					c3.75-3.76,6.19-5.62,7.56-6.51c0.95-0.63,1.39-0.78,1.39-0.78c15.63-1.09,30.54,0.59,30.54,0.59L371.362,183.148z"/>
				<path style="opacity:0.6;fill:#FFFFFF;enable-background:new    ;" d="M336.582,177.508l-5.94,6.51h-3.32
					c3.75-3.76,6.19-5.62,7.56-6.51H336.582z"/>
				<polygon style="opacity:0.6;fill:#FFFFFF;enable-background:new    ;" points="332.321,184.018 337.563,177.505 
					345.376,177.505 344.782,184.018 				"/>
				<path style="opacity:0.6;fill:#FFFFFF;enable-background:new    ;" d="M346.661,184.018l0.692-6.513h10.78l1.879,5.906
					C360.013,183.411,353.486,184.018,346.661,184.018z"/>
				<path style="opacity:0.6;fill:#FFFFFF;enable-background:new    ;" d="M359.4,177.505l1.998,5.746c0,0,6.33-0.396,7.22-0.791
					l-2.652-3.577c-0.454-0.612-1.179-0.858-1.932-0.973C361.365,177.505,359.4,177.505,359.4,177.505z"/>
				<path style="opacity:0.2;enable-background:new    ;" d="M375.912,193.238l-0.69,4.91l-3.86,1.22c0,0-0.1-8.3-8.5-8.3
					c-8.41,0-7.32,9.89-7.32,9.89h-1.47l-2.77-1.19h-18.14l-1.58,1.19h-1.07c0,0,0.89-9.89-7.77-9.89c-8.65,0-7.56,9.89-7.56,9.89
					l-4.95-2.13l-0.49-4.99h4.08c0,0,2.97-4.85,9.5-4.85c6.53,0,8.63,4.85,8.63,4.85h20.94c0,0,3.56-4.92,8.8-5.18
					c5.24-0.26,8.33,1.94,8.33,1.94h2.75l1.26,0.47L375.912,193.238z"/>
			</g>
			<g>
				<g>
					<path style="fill:#263238;" d="M421.502,187.67v13.42h-20.48c0,0,1.36-4.59,2.42-7.71c0.52-1.55,0.97-2.75,1.14-2.84
						C407.292,189.06,413.652,188.17,421.502,187.67z"/>
					<path style="opacity:0.2;enable-background:new    ;" d="M421.502,187.67v13.42h-20.48c0,0,1.36-4.59,2.42-7.71
						c0.52-1.55,0.97-2.75,1.14-2.84C407.292,189.06,413.652,188.17,421.502,187.67z"/>
				</g>
				<g>
					<g>
						<circle style="fill:#263238;" cx="412.398" cy="199.125" r="5.984"/>
						<circle style="opacity:0.2;fill:#FFFFFF;enable-background:new    ;" cx="412.398" cy="199.125" r="5.291"/>
					</g>
					<path style="fill:#407BFF;" d="M413.812,181.96c2.93-1.79,5.46-3.25,7.69-4.43v25.33h-1.95l-0.33-1.77l-0.76-4.09
						c-0.45-2.45-2.58-4.22-5.07-4.22h-2.39c-2.31,0-4.33,1.53-4.96,3.75l-1.29,4.56l-0.5,1.77l-8.11-1.05l1.03-6.89l0.16-1.09
						l1.58-1.05l3.1-7.12l2.88-0.9L413.812,181.96z"/>
				</g>
				<path style="opacity:0.7;fill:#FFFFFF;enable-background:new    ;" d="M406.415,185.263l-3.81,6.46l-3.69,1.06l3.1-7.12
					l2.88-0.9C405.796,185.023,406.415,185.263,406.415,185.263z"/>
				<path style="opacity:0.4;enable-background:new    ;" d="M421.502,179.3v3.86c-2.11,0.03-4.17-0.08-5.94-0.4
					C415.562,182.76,418.422,181.05,421.502,179.3z"/>
				<path style="opacity:0.2;enable-background:new    ;" d="M421.502,195.08v7.78h-1.95l-0.33-1.77l-0.76-4.09
					c-0.45-2.45-2.58-4.22-5.07-4.22h-2.39c-2.31,0-4.33,1.53-4.96,3.75l-1.29,4.56l-0.5,1.77l-8.11-1.05l1.03-6.89l6.09-1.78
					l0.18,0.24l1.14,1.51c0,0,1.99-3.83,8.78-3.83C418.782,191.06,420.882,193.93,421.502,195.08z"/>
			</g>
			<path style="fill:#407BFF;" d="M357.346,230.495h-29.038c-2.608,0-4.723-2.115-4.723-4.723l0,0c0-2.609,2.115-4.723,4.723-4.723
				h29.038c2.608,0,4.723,2.115,4.723,4.723l0,0C362.069,228.381,359.955,230.495,357.346,230.495z"/>
		</g>
		<rect x="264.152" y="133.462" style="fill:#407BFF;" width="157.35" height="18.198"/>
		<g>
			<path style="opacity:0.6;fill:#FFFFFF;enable-background:new    ;" d="M342.801,111.794c0,1.227-0.995,2.222-2.222,2.222
				c-1.227,0-2.222-0.995-2.222-2.222s0.995-2.222,2.222-2.222C341.806,109.572,342.801,110.567,342.801,111.794z"/>
			<path style="opacity:0.6;fill:#FFFFFF;enable-background:new    ;" d="M347.298,111.794c0,0.786-0.637,1.423-1.423,1.423
				c-0.786,0-1.423-0.637-1.423-1.423c0-0.786,0.637-1.424,1.423-1.424C346.66,110.37,347.298,111.008,347.298,111.794z"/>
		</g>
		<g>
			<polygon style="opacity:0.2;enable-background:new    ;" points="293.892,195.637 298.763,202.135 298.763,189.139 			"/>
			<polygon style="opacity:0.2;enable-background:new    ;" points="391.763,195.637 386.892,189.139 386.892,202.135 			"/>
		</g>
		<g>
			<path style="fill:#FFFFFF;" d="M297.278,144.513l0.42-0.943c0.523,0.42,1.354,0.719,2.157,0.719c1.017,0,1.447-0.364,1.447-0.85
				c0-1.41-3.885-0.485-3.885-2.914c0-1.055,0.841-1.952,2.634-1.952c0.784,0,1.606,0.206,2.176,0.579l-0.383,0.943
				c-0.588-0.346-1.233-0.514-1.803-0.514c-1.008,0-1.419,0.392-1.419,0.887c0,1.391,3.875,0.485,3.875,2.885
				c0,1.046-0.85,1.942-2.642,1.942C298.837,145.297,297.82,144.98,297.278,144.513z"/>
			<path style="fill:#FFFFFF;" d="M308.605,144.186v1.018h-4.902v-6.537h4.772v1.018h-3.558v1.7h3.156v0.999h-3.156v1.802H308.605z"
				/>
			<path style="fill:#FFFFFF;" d="M309.96,138.667h1.214v5.51h3.418v1.027h-4.632V138.667z"/>
			<path style="fill:#FFFFFF;" d="M320.456,144.186v1.018h-4.902v-6.537h4.772v1.018h-3.558v1.7h3.156v0.999h-3.156v1.802H320.456z"
				/>
			<path style="fill:#FFFFFF;" d="M321.315,141.936c0-1.952,1.494-3.362,3.502-3.362c1.065,0,1.98,0.383,2.587,1.093l-0.784,0.738
				c-0.477-0.514-1.065-0.766-1.747-0.766c-1.354,0-2.334,0.952-2.334,2.297c0,1.345,0.98,2.297,2.334,2.297
				c0.682,0,1.27-0.252,1.747-0.775l0.784,0.747c-0.607,0.71-1.522,1.092-2.596,1.092
				C322.81,145.297,321.315,143.887,321.315,141.936z"/>
			<path style="fill:#FFFFFF;" d="M329.823,139.694h-2.166v-1.027h5.547v1.027h-2.167v5.51h-1.214V139.694z"/>
			<path style="fill:#FFFFFF;" d="M339.517,142.898v2.307h-1.214v-2.288l-2.568-4.249h1.298l1.915,3.185l1.933-3.185h1.195
				L339.517,142.898z"/>
			<path style="fill:#FFFFFF;" d="M342.122,141.936c0-1.933,1.494-3.362,3.521-3.362c2.026,0,3.521,1.419,3.521,3.362
				c0,1.942-1.494,3.362-3.521,3.362C343.616,145.297,342.122,143.869,342.122,141.936z M347.94,141.936
				c0-1.335-0.98-2.297-2.297-2.297c-1.317,0-2.297,0.961-2.297,2.297c0,1.335,0.98,2.297,2.297,2.297
				C346.96,144.233,347.94,143.271,347.94,141.936z"/>
			<path style="fill:#FFFFFF;" d="M350.396,142.356v-3.689h1.214v3.642c0,1.345,0.607,1.924,1.663,1.924
				c1.055,0,1.653-0.579,1.653-1.924v-3.642h1.195v3.689c0,1.905-1.074,2.941-2.858,2.941
				C351.47,145.297,350.396,144.261,350.396,142.356z"/>
			<path style="fill:#FFFFFF;" d="M362.097,145.204l-1.336-1.915c-0.084,0.009-0.168,0.009-0.252,0.009h-1.476v1.905h-1.214v-6.537
				h2.689c1.718,0,2.783,0.878,2.783,2.326c0,0.99-0.504,1.718-1.392,2.063l1.503,2.148H362.097z M360.454,139.694h-1.419v2.605
				h1.419c1.064,0,1.616-0.485,1.616-1.307C362.069,140.171,361.518,139.694,360.454,139.694z"/>
			<path style="fill:#FFFFFF;" d="M371.501,145.204l-1.336-1.915c-0.084,0.009-0.168,0.009-0.252,0.009h-1.476v1.905h-1.214v-6.537
				h2.69c1.718,0,2.783,0.878,2.783,2.326c0,0.99-0.504,1.718-1.392,2.063l1.504,2.148H371.501z M369.857,139.694h-1.419v2.605
				h1.419c1.065,0,1.616-0.485,1.616-1.307C371.473,140.171,370.922,139.694,369.857,139.694z"/>
			<path style="fill:#FFFFFF;" d="M374.051,138.667h1.214v6.537h-1.214V138.667z"/>
			<path style="fill:#FFFFFF;" d="M377.03,138.667h2.857c2.12,0,3.567,1.308,3.567,3.268c0,1.961-1.448,3.269-3.567,3.269h-2.857
				V138.667z M379.831,144.177c1.457,0,2.4-0.887,2.4-2.241c0-1.354-0.943-2.241-2.4-2.241h-1.587v4.482H379.831z"/>
			<path style="fill:#FFFFFF;" d="M389.646,144.186v1.018h-4.902v-6.537h4.772v1.018h-3.558v1.7h3.156v0.999h-3.156v1.802H389.646z"
				/>
		</g>
		<path style="opacity:0.4;fill:#FFFFFF;enable-background:new    ;" d="M416.459,353.725H269.195c-2.785,0-5.043-2.258-5.043-5.043
			V248.98c0-2.785,2.258-5.043,5.043-5.043h147.264c2.785,0,5.043,2.258,5.043,5.043v99.702
			C421.502,351.467,419.244,353.725,416.459,353.725z"/>
		<path style="opacity:0.4;fill:#FFFFFF;enable-background:new    ;" d="M419.314,390.115H266.341c-1.209,0-2.189-0.98-2.189-2.189
			v-29.279c0-1.209,0.98-2.189,2.189-2.189h152.973c1.209,0,2.189,0.98,2.189,2.189v29.279
			C421.502,389.135,420.522,390.115,419.314,390.115z"/>
		<g>
			<path style="fill:#263238;" d="M275.562,363.316v1.245h1.975v0.643h-1.975v1.566h-0.76v-4.091h2.986v0.637H275.562z"/>
			<path style="fill:#263238;" d="M281.198,366.771l-0.836-1.198c-0.052,0.006-0.105,0.006-0.158,0.006h-0.923v1.192h-0.76v-4.091
				h1.683c1.075,0,1.742,0.549,1.742,1.455c0,0.619-0.316,1.075-0.871,1.292l0.941,1.344H281.198z M280.169,363.322h-0.888v1.631
				h0.888c0.666,0,1.011-0.304,1.011-0.818C281.18,363.62,280.835,363.322,280.169,363.322z"/>
			<path style="fill:#263238;" d="M282.497,364.725c0-1.209,0.935-2.104,2.203-2.104s2.203,0.889,2.203,2.104
				c0,1.216-0.935,2.104-2.203,2.104S282.497,365.935,282.497,364.725z M286.137,364.725c0-0.835-0.614-1.438-1.438-1.438
				c-0.824,0-1.438,0.602-1.438,1.438c0,0.836,0.613,1.438,1.438,1.438C285.523,366.163,286.137,365.56,286.137,364.725z"/>
			<path style="fill:#263238;" d="M291.462,366.771l-0.006-2.712l-1.344,2.244h-0.339l-1.344-2.209v2.677h-0.725v-4.091h0.625
				l1.625,2.712l1.596-2.712h0.625l0.006,4.091H291.462z"/>
		</g>
		<g>
			<path style="fill:#263238;" d="M275.632,378.98h-1.356v-0.643h3.471v0.643h-1.355v3.448h-0.76V378.98z"/>
			<path style="fill:#263238;" d="M277.966,380.383c0-1.209,0.935-2.104,2.203-2.104c1.268,0,2.203,0.889,2.203,2.104
				c0,1.216-0.935,2.104-2.203,2.104C278.901,382.487,277.966,381.593,277.966,380.383z M281.607,380.383
				c0-0.835-0.614-1.438-1.438-1.438c-0.824,0-1.438,0.603-1.438,1.438c0,0.836,0.613,1.438,1.438,1.438
				C280.993,381.821,281.607,381.219,281.607,380.383z"/>
		</g>
		<path style="fill:#FFFFFF;" d="M404.689,359.613H301.881c-3.005,0-5.441,2.436-5.441,5.441c0,3.005,2.436,5.441,5.441,5.441
			h102.809c3.005,0,5.441-2.436,5.441-5.441C410.13,362.049,407.694,359.613,404.689,359.613z"/>
		<path style="fill:#FFFFFF;" d="M404.689,375.271H301.881c-3.005,0-5.441,2.436-5.441,5.441s2.436,5.441,5.441,5.441h102.809
			c3.005,0,5.441-2.436,5.441-5.441S407.694,375.271,404.689,375.271z"/>
		<path style="fill:#407BFF;" d="M421.5,280.33c-20.07,6.28-40.79,12.79-60.67,19.07l18.13,33.81l42.54,1.44v10.01l-48.63-1.65
			l-21.75-40.54c-9.26,2.93-18.27,5.79-26.89,8.52l19.55,42.74h-10.99l-18.16-39.68c-20.43,6.51-38.04,12.19-50.48,16.29v-10.52
			c3.66-1.2,7.75-2.54,12.23-3.99c9.5-3.08,20.89-6.74,34.06-10.94l-16.94-37.05l-29.35,9.33v-10.49l25.16-8l-6.74-14.74h10.99
			l26.48,57.89c10.42-3.31,21.81-6.92,34.14-10.81c7.17-2.26,14.34-4.53,21.41-6.75l-18.58-40.33h11.02l17.18,37.3
			c12.92-4.06,25.27-7.93,36.29-11.39V280.33z"/>
		<path style="opacity:0.4;fill:#FFFFFF;enable-background:new    ;" d="M421.5,248.98v99.7c0,2.79-2.26,5.05-5.04,5.05H269.2
			c-2.79,0-5.05-2.26-5.05-5.05v-99.7c0-2.78,2.26-5.04,5.05-5.04h147.26C419.24,243.94,421.5,246.2,421.5,248.98z"/>
		<path style="fill:#407BFF;" d="M340.297,294.692c-3.823-3.823-10.022-3.823-13.845,0c-3.823,3.823-3.823,10.021,0,13.845
			l6.922,6.922l6.922-6.922C344.12,304.713,344.12,298.515,340.297,294.692z M336.836,305.075c-1.912,1.911-5.011,1.911-6.922,0
			c-1.912-1.911-1.912-5.011,0-6.922c1.911-1.911,5.01-1.911,6.922,0C338.747,300.065,338.747,303.164,336.836,305.075z"/>
	</g>
</g>
<g id="Character">
	<g>
		<g>
			<rect x="224.222" y="340.871" style="fill:#263238;" width="7.292" height="76.245"/>
			<rect x="224.222" y="340.871" style="opacity:0.2;enable-background:new    ;" width="7.292" height="76.245"/>
			<rect x="276.413" y="340.871" style="fill:#263238;" width="7.292" height="76.245"/>
			<rect x="276.413" y="340.871" style="opacity:0.2;enable-background:new    ;" width="7.292" height="76.245"/>
			<rect x="154.634" y="340.871" style="fill:#263238;" width="7.292" height="76.245"/>
			<rect x="102.443" y="340.871" style="fill:#263238;" width="7.292" height="76.245"/>
			<g>
				<path style="fill:#263238;" d="M298.64,338.049v5.637c0,0.913-0.731,1.653-1.644,1.653H95.538c-0.913,0-1.653-0.739-1.653-1.653
					v-5.637c0-0.905,0.739-1.644,1.653-1.644h201.458C297.909,336.405,298.64,337.144,298.64,338.049z"/>
				<path style="opacity:0.1;fill:#FFFFFF;enable-background:new    ;" d="M298.64,338.049v5.637c0,0.913-0.731,1.653-1.644,1.653
					H95.538c-0.913,0-1.653-0.739-1.653-1.653v-5.637c0-0.905,0.739-1.644,1.653-1.644h201.458
					C297.909,336.405,298.64,337.144,298.64,338.049z"/>
				<path style="opacity:0.2;fill:#FFFFFF;enable-background:new    ;" d="M150.765,338.049v5.637c0,0.913-0.731,1.653-1.644,1.653
					H95.538c-0.913,0-1.653-0.739-1.653-1.653v-5.637c0-0.905,0.739-1.644,1.653-1.644h53.583
					C150.034,336.405,150.765,337.144,150.765,338.049z"/>
			</g>
		</g>
		<g id="_x3C_Group_x3E__70_">
			<g>
				<path style="fill:#EBB376;" d="M206.758,249.984c0,0,3.743,0.753,3.728,1.439c-0.015,0.685-1.458,6.085-2.123,6.743
					c-0.665,0.658-2.268,1.465-2.268,1.465l0.956,8.728l-5.112,1.319l-0.073-9.302c0,0-1.794-2.734-0.502-5.417
					C202.656,252.275,206.758,249.984,206.758,249.984z"/>
				<path style="opacity:0.2;enable-background:new    ;" d="M206.758,249.984c0,0,3.743,0.753,3.728,1.439
					c-0.015,0.685-1.458,6.085-2.123,6.743c-0.665,0.658-2.268,1.465-2.268,1.465l0.956,8.728l-5.112,1.319l-0.073-9.302
					c0,0-1.794-2.734-0.502-5.417C202.656,252.275,206.758,249.984,206.758,249.984z"/>
			</g>
			<path style="fill:#407BFF;" d="M193.176,251.008c3.38,2.421,4.667,15.793,6.001,17.735s1.868-3.693,1.868-3.693l6.806-0.327
				c0,0,0.93,7.956-2.994,13.611c-3.924,5.655-11.171,1.455-15.273-7.624C185.481,261.63,193.176,251.008,193.176,251.008z"/>
			<path style="opacity:0.2;fill:#FFFFFF;enable-background:new    ;" d="M204.852,278.337c-0.886,1.275-1.938,2.05-3.088,2.376
				c-3.944,1.127-9.01-2.971-12.184-10.001c-1.023-2.273-1.32-4.646-1.174-6.929c0.446-6.805,4.769-12.774,4.769-12.774
				c3.378,2.418,4.666,15.794,6.003,17.735c1.336,1.942,1.864-3.696,1.864-3.696l6.806-0.329
				C207.848,264.719,208.777,272.681,204.852,278.337z"/>
			<polygon style="fill:#EBB376;" points="237.624,408.664 244.368,406.813 243.16,390.358 236.426,392.215 			"/>
			<path style="fill:#263238;" d="M244.777,405.917l-7.825,0.543c-0.274,0.007-0.49,0.234-0.484,0.508c0,0.003,0,0.005,0,0.008
				l0.048,6.223c0.047,0.675,0.628,1.187,1.303,1.148c2.727-0.234,4.018-0.481,7.459-0.747c2.113-0.152,6.303-0.253,9.159-0.916
				c2.856-0.663,2.124-3.468,0.857-3.439c-3.007,0.055-7.218-1.603-9.29-3.01C245.641,405.996,245.21,405.884,244.777,405.917z"/>
			<path style="fill:#407BFF;" d="M247.333,406.932c-0.629,0.029-1.259-0.012-1.879-0.122c-0.064-0.005-0.117-0.051-0.132-0.114
				c-0.014-0.062,0.005-0.127,0.051-0.172c0.212-0.171,2.095-1.653,2.974-1.383c0.202,0.066,0.355,0.23,0.407,0.436
				c0.136,0.307,0.083,0.666-0.136,0.921C248.259,406.798,247.8,406.953,247.333,406.932z M248.253,405.483
				c-0.469-0.146-1.587,0.518-2.361,1.089c1.264,0.159,2.176,0.056,2.484-0.287c0.127-0.169,0.156-0.391,0.076-0.587
				C248.427,405.596,248.352,405.515,248.253,405.483L248.253,405.483z"/>
			<path style="fill:#407BFF;" d="M245.489,406.811c-0.02,0.013-0.044,0.019-0.068,0.015c-0.049-0.024-0.085-0.068-0.098-0.121
				c-0.004-0.061-0.305-2.079,0.345-2.81c0.175-0.187,0.424-0.287,0.679-0.274c0.287-0.011,0.544,0.175,0.624,0.451
				c0.208,0.747-0.729,2.279-1.394,2.737C245.55,406.823,245.518,406.824,245.489,406.811z M246.255,403.971
				c-0.131,0.008-0.253,0.07-0.336,0.172c-0.395,0.434-0.364,1.585-0.301,2.239c0.565-0.552,1.151-1.695,1.041-2.197
				c-0.021-0.093-0.089-0.203-0.323-0.214L246.255,403.971z"/>
			<polygon style="opacity:0.2;enable-background:new    ;" points="236.426,392.215 243.162,390.366 243.851,399.772 
				237.079,401.28 			"/>
			<polygon style="fill:#EBB376;" points="228.806,408.422 222.441,411.325 220.818,404.487 218.644,395.283 224.992,392.371 
				227.174,401.567 			"/>
			<polygon style="opacity:0.2;enable-background:new    ;" points="227.174,401.567 220.818,404.487 218.644,395.283 
				224.992,392.371 			"/>
			<path style="fill:#263238;" d="M229.068,407.475l-7.638,1.783c-0.269,0.05-0.447,0.309-0.397,0.578
				c0.001,0.003,0.001,0.005,0.002,0.008l1.04,6.136c0.154,0.659,0.809,1.071,1.469,0.925c2.655-0.665,3.89-1.115,7.245-1.926
				c2.062-0.487,6.182-1.254,8.896-2.363c2.714-1.109,1.544-3.762,0.298-3.531c-2.96,0.533-7.382-0.432-9.652-1.491
				C229.935,407.415,229.491,407.373,229.068,407.475z"/>
			<path style="fill:#407BFF;" d="M231.754,408.07c-0.616,0.128-1.245,0.189-1.875,0.179c-0.064,0.005-0.124-0.032-0.148-0.091
				c-0.024-0.059-0.015-0.127,0.023-0.177c0.182-0.203,1.805-1.966,2.715-1.839c0.21,0.033,0.388,0.171,0.472,0.366
				c0.184,0.282,0.188,0.644,0.012,0.93C232.647,407.791,232.219,408.016,231.754,408.07z M232.431,406.493
				c-0.486-0.07-1.485,0.764-2.158,1.451c1.273-0.044,2.158-0.291,2.407-0.679c0.098-0.187,0.091-0.411-0.018-0.591
				C232.622,406.577,232.534,406.508,232.431,406.493L232.431,406.493z"/>
			<path style="fill:#407BFF;" d="M229.915,408.244c-0.018,0.016-0.041,0.025-0.065,0.026c-0.052-0.016-0.095-0.054-0.116-0.104
				c-0.014-0.06-0.633-2.004-0.107-2.829c0.143-0.212,0.372-0.351,0.627-0.378c0.281-0.056,0.565,0.086,0.688,0.345
				c0.325,0.704-0.356,2.366-0.94,2.924C229.977,408.247,229.945,408.252,229.915,408.244z M230.218,405.319
				c-0.128,0.029-0.239,0.109-0.305,0.223c-0.32,0.491-0.107,1.623,0.06,2.258c0.47-0.634,0.866-1.857,0.677-2.334
				c-0.035-0.089-0.12-0.186-0.353-0.16L230.218,405.319z"/>
			<g>
				<path style="fill:#407BFF;" d="M181.596,314.974l-2.054-22.739l-37.968,0.892c0,0-4.495,31.684-1.228,37.504
					c5.833,10.39,44.108,4.488,53.058,5.376c3.653,1.948,23.216,66.773,23.216,66.773l10.952-4.42c0,0-11.779-54.712-14.462-65.016
					C209.377,319.014,194.174,319.265,181.596,314.974z"/>
				<path style="opacity:0.6;fill:#FFFFFF;enable-background:new    ;" d="M181.596,314.974l-2.054-22.739l-37.968,0.892
					c0,0-4.495,31.684-1.228,37.504c5.833,10.39,44.108,4.488,53.058,5.376c3.653,1.948,23.216,66.773,23.216,66.773l10.952-4.42
					c0,0-11.779-54.712-14.462-65.016C209.377,319.014,194.174,319.265,181.596,314.974z"/>
			</g>
			<g>
				<path style="fill:#407BFF;" d="M244.518,397.243l-9.66,0.894c0,0-11.847-60.326-12.764-60.581
					c-1.652-0.47-6.454-1.01-9.031-1.683c-17.926-4.664-62.075-13.241-62.075-13.241l16.279-15.685c0,0,73.81,8.861,75.453,26.181
					C243.505,341.46,244.518,397.243,244.518,397.243z"/>
				<path style="opacity:0.6;fill:#FFFFFF;enable-background:new    ;" d="M244.518,397.243l-9.66,0.894
					c0,0-11.847-60.326-12.764-60.581c-1.652-0.47-6.454-1.01-9.031-1.683c-17.926-4.664-62.075-13.241-62.075-13.241l16.279-15.685
					c0,0,73.81,8.861,75.453,26.181C243.505,341.46,244.518,397.243,244.518,397.243z"/>
			</g>
			<path style="opacity:0.2;enable-background:new    ;" d="M219.484,337.598c-1.652-0.469-3.844-1.052-6.422-1.724
				c0.713,0.376-1.362-9.017-3.428-11.446c-4.105-4.841-20.598-7.457-26.512-8.407c-4.945-0.791-21.542-2.257-21.542-2.257
				s29.295-2.53,51.376,3.529C223.871,320.294,221.927,330.947,219.484,337.598z"/>
			<path style="fill:#407BFF;" d="M180.405,296.878c2.225-12.735,5.959-29.789,12.872-45.741c-3.635-1.539-7.379-2.809-11.199-3.801
				c-5.578-1.511-11.239-2.699-16.954-3.558c-3.952-0.42-7.93-0.53-11.899-0.329c0,0-8.56,15.986-12.9,53.428H180.405z"/>
			<g>
				<path style="fill:#263238;" d="M199.449,252.975c-0.091,0.352,0.129,0.679,0.492,0.73l6.45,0.903
					c0.363,0.051,0.73-0.194,0.821-0.546l3.222-12.529c0.091-0.352-0.117-0.767-0.48-0.818l-6.45-0.903
					c-0.363-0.051-0.743,0.282-0.833,0.634L199.449,252.975z"/>
				<path style="opacity:0.5;fill:#FFFFFF;" d="M203.399,240.462l-3.258,12.649c-0.092,0.357,0.062,0.629,0.422,0.68l5.47,0.766
					c0.367,0.051,1.067-0.057,1.16-0.413l3.265-12.694c0.092-0.357-0.494-0.735-0.861-0.786l-5.47-0.765
					C203.766,239.848,203.491,240.106,203.399,240.462z"/>
			</g>
			<path style="fill:#407BFF;" d="M168.054,254.569c0,0-9.96-7.95-11.221-12.653c-1.262-4.703,4.594-7.869,12.793-6.056
				s15.788,6.974,13.37,13.053c-2.418,6.079-6.662,7.456-6.662,7.456S174.572,252.884,168.054,254.569z"/>
			<path style="fill:#EBB376;" d="M188.779,259.839l5.763-3.781c0,0,2.444-7.375,3.004-8.099c0.56-0.724,6.631,0.928,7.305,1.022
				c0.674,0.094-1.105,7.603-1.92,8.251c-0.815,0.648-3.463,0.736-3.463,0.736l-6.546,5.768L188.779,259.839z"/>
			<path style="opacity:0.2;fill:#FFFFFF;enable-background:new    ;" d="M168.054,254.569c0,0-9.96-7.95-11.221-12.653
				c-1.262-4.703,4.594-7.869,12.793-6.056s15.788,6.974,13.37,13.053c-2.418,6.079-6.662,7.456-6.662,7.456
				S174.572,252.884,168.054,254.569z"/>
			<g>
				<path style="fill:#EBB376;" d="M174.573,229.487c-1.516,5.471-5.112,15.087-10.262,16.67c0,0,3.793,6.206,9.469,6.726
					c3.612,0.331,5.612-3.747,5.612-3.747c-3.685-0.687-2.276-3.387,0.629-6.775L174.573,229.487z"/>
				<path style="opacity:0.2;enable-background:new    ;" d="M176.792,234.736l3.222,7.621c-0.688,0.782-1.309,1.622-1.854,2.509
					c-3.62,0.272-6.219-5.466-5.334-7.799C173.146,236.106,176.145,235.518,176.792,234.736z"/>
			</g>
			<g>
				<path style="fill:#263238;" d="M187.08,220.755c-3.453,1.428-2.794,5.196,2.93,12.06c3.527-3.034,5.437-9.943,3.59-12.162
					C191.752,218.435,190.087,219.523,187.08,220.755z"/>
				<path style="fill:#EBB376;" d="M172.892,223.705c-1.202,7.469-2.278,11.773,0.585,16.391c4.317,6.941,14.167,5.613,17.579-1.348
					c3.055-6.254,4.514-17.42-2.037-21.964c-4.665-3.272-11.098-2.143-14.37,2.522C173.73,220.616,173.128,222.122,172.892,223.705z
					"/>
				<path style="fill:#263238;" d="M183.438,228.194c-0.134,0.599,0.077,1.158,0.468,1.243c0.392,0.086,0.812-0.323,0.946-0.923
					c0.134-0.599-0.069-1.154-0.457-1.247C184.007,227.174,183.611,227.613,183.438,228.194z"/>
				<path style="fill:#263238;" d="M190.25,229.734c-0.134,0.599,0.077,1.158,0.469,1.243c0.392,0.086,0.82-0.32,0.957-0.927
					s-0.077-1.158-0.468-1.243C190.816,228.721,190.385,229.135,190.25,229.734z"/>
				<path style="fill:#D58745;" d="M187.964,229.517c0.303,1.994,0.88,3.936,1.714,5.772c-1.305,0.747-2.988-0.111-2.988-0.111
					L187.964,229.517z"/>
				<path style="fill:#263238;" d="M182.059,225.627c-0.08-0.008-0.155-0.043-0.213-0.099c-0.129-0.151-0.114-0.379,0.036-0.511
					c0.869-0.775,2.062-1.077,3.195-0.81c0.186,0.048,0.298,0.238,0.25,0.424c-0.002,0.008-0.005,0.016-0.007,0.024
					c-0.063,0.186-0.258,0.292-0.448,0.243l0,0c-0.896-0.197-1.832,0.051-2.514,0.665
					C182.271,225.626,182.162,225.649,182.059,225.627z"/>
				<path style="fill:#263238;" d="M193.87,228.134c-0.136-0.032-0.242-0.137-0.277-0.272c-0.184-0.9-0.788-1.658-1.624-2.038
					c-0.187-0.07-0.283-0.277-0.216-0.465c0.068-0.184,0.27-0.281,0.457-0.22c1.067,0.466,1.843,1.419,2.083,2.558
					c0.047,0.191-0.071,0.384-0.262,0.431c-0.002,0-0.003,0.001-0.005,0.001C193.974,228.141,193.921,228.142,193.87,228.134z"/>
				<path style="fill:#263238;" d="M177.292,217.835c3.178,1.954,1.922,5.571-4.822,11.427c-3-3.559-3.785-10.693-1.598-12.574
					C173.059,214.807,174.514,216.134,177.292,217.835z"/>
				<path style="fill:#EBB376;" d="M168.06,228.808c0.112,1.901,0.973,3.679,2.394,4.946c1.897,1.657,3.926,0.22,4.308-2.134
					c0.343-2.123-0.236-5.547-2.574-6.295C169.85,224.576,167.933,226.477,168.06,228.808z"/>
				<path style="fill:#263238;" d="M171.428,216.275c0,0-0.67-2.924,4.591-5.703c5.26-2.778,13.767-0.43,19.298,3.574
					c5.531,4.004-1.197,9.034-3.886,9.145l0.751-0.93c0,0-4.681,0.306-8.436-1.436l1.712-0.564
					C185.458,220.36,174.753,218.403,171.428,216.275z"/>
				<g>
					<path style="fill:#263238;" d="M185.443,236.804c-0.599,0.79-1.363,2.35-1.363,2.35c-0.154-0.044-0.308-0.087-0.459-0.139
						c-2.071-0.646-2.818-1.63-3.018-2.525c-0.108-0.49-0.046-0.957,0.053-1.323c0.109-0.424,0.285-0.702,0.285-0.702
						c0.893,0.998,2.777,1.749,3.8,2.108C185.168,236.727,185.443,236.804,185.443,236.804z"/>
					<path style="fill:#FFFFFF;" d="M184.741,236.572l-0.42,0.682c-1.949-0.613-3.239-1.307-3.665-2.089
						c0.109-0.424,0.285-0.702,0.285-0.702C181.834,235.462,183.718,236.214,184.741,236.572z"/>
					<path style="fill:#A24E3F;" d="M183.622,239.014c-2.071-0.646-2.818-1.63-3.018-2.525c0.697,0.247,1.51,0.623,2.157,1.173
						C183.257,238.081,183.5,238.564,183.622,239.014z"/>
				</g>
			</g>
			<g>
				<path style="fill:#FFFFFF;" d="M180.014,276.463c-0.006,0-0.012,0-0.018-0.001c-0.138-0.009-0.242-0.128-0.232-0.266
					c0.835-12.254-3.267-20.245-3.309-20.324c-0.064-0.122-0.017-0.273,0.105-0.338c0.122-0.064,0.274-0.016,0.337,0.105
					c0.042,0.08,4.21,8.187,3.365,20.59C180.253,276.362,180.144,276.463,180.014,276.463z"/>
				<path style="fill:#FFFFFF;" d="M164.862,272.104c-0.043,0-0.087-0.011-0.127-0.034c-0.119-0.07-0.159-0.224-0.088-0.343
					c4.49-7.633,3.173-17.975,3.16-18.078c-0.019-0.137,0.078-0.263,0.214-0.281c0.131-0.016,0.262,0.077,0.281,0.215
					c0.014,0.106,1.355,10.614-3.224,18.398C165.031,272.06,164.947,272.104,164.862,272.104z"/>
				<path style="fill:#FFFFFF;" d="M179.82,276.044c0,0,0.803,0.044,0.661,1.341l-1.173-0.117
					C179.309,277.268,179.176,276.183,179.82,276.044z"/>
				<path style="fill:#FFFFFF;" d="M164.936,271.39c0,0,0.667,0.449-0.119,1.49l-0.947-0.701
					C163.869,272.179,164.311,271.179,164.936,271.39z"/>
			</g>
			<g>
				<path style="fill:#407BFF;" d="M154.184,243.462c3.85,0.888,13.079,16.85,18.008,19.789c4.929,2.94,18.574-6.516,18.574-6.516
					l4.675,5.81c0,0-11.047,9.743-20.72,9.974c-9.674,0.231-23.381-13.443-25.424-18.457
					C147.253,249.049,149.506,242.383,154.184,243.462z"/>
				<path style="opacity:0.2;fill:#FFFFFF;enable-background:new    ;" d="M154.184,243.462c3.85,0.888,13.079,16.85,18.008,19.789
					c4.929,2.94,18.574-6.516,18.574-6.516l4.675,5.81c0,0-11.047,9.743-20.72,9.974c-9.674,0.231-23.381-13.443-25.424-18.457
					C147.253,249.049,149.506,242.383,154.184,243.462z"/>
			</g>
		</g>
	</g>
</g>
<g id="Backpack">
	<g>
		<path style="fill:#263238;" d="M144.714,284.802c0,0,7.751,5.802,10.527,18.857c2.776,13.055,13.214,41.923-10.527,30.522
			l0.614-2.698c0,0,7.573,6.462,10.336,2.11c2.763-4.352,1.33-27.692-9.824-40.088L144.714,284.802z"/>
		<path style="fill:#263238;" d="M128.718,279.395c0,0,2.816-5.67,6.966-5.802c4.151-0.132,5.601,1.055,5.337,5.143l-1.867,0.132
			c0,0,1.892-3.421-2.617-3.561c-4.509-0.139-5.802,4.088-5.802,4.088H128.718z"/>
		<path style="fill:#263238;" d="M106.089,336.405c0,0-3.646-22.592,5.848-29.441c0,0-1.508-4.743,6.14-20.316
			c3.173-6.461,5.864-8.243,8.536-8.354l18.517-0.768c1.951-0.081,3.64,1.333,3.9,3.268c1.299,9.657,4.444,37.658,0.091,55.61
			H106.089z"/>
		<path style="opacity:0.1;fill:#FFFFFF;enable-background:new    ;" d="M106.089,336.405c0,0-3.646-22.592,5.848-29.441
			c0,0-1.508-4.743,6.14-20.316c3.173-6.461,5.864-8.243,8.536-8.354l18.517-0.768c1.951-0.081,3.64,1.333,3.9,3.268
			c1.299,9.657,4.444,37.658,0.091,55.61H106.089z"/>
		<path style="fill:#263238;" d="M135.836,302.219c1.83,0.067,3.255-1.616,2.838-3.4c-0.861-3.681-3.261-9.06-9.956-10.061
			c-7.183-1.074-11.728,5.419-13.84,9.502c-0.754,1.459,0.274,3.201,1.915,3.261L135.836,302.219z"/>
		<path style="fill:#263238;" d="M109.11,312.626c0.466-1.623,24.396-0.659,25.978,0c1.582,0.659-0.326,17.275-1.745,18.857
			c-1.42,1.582-24.758,0.527-26.539,0C105.022,330.956,105.286,325.945,109.11,312.626z"/>
		<path style="opacity:0.2;fill:#FFFFFF;enable-background:new    ;" d="M135.836,302.219c1.83,0.067,3.255-1.616,2.838-3.4
			c-0.861-3.681-3.261-9.06-9.956-10.061c-7.183-1.074-11.728,5.419-13.84,9.502c-0.754,1.459,0.274,3.201,1.915,3.261
			L135.836,302.219z"/>
		<path style="opacity:0.2;fill:#FFFFFF;enable-background:new    ;" d="M109.11,312.626c0.466-1.623,24.396-0.659,25.978,0
			c1.582,0.659-0.326,17.275-1.745,18.857c-1.42,1.582-24.758,0.527-26.539,0C105.022,330.956,105.286,325.945,109.11,312.626z"/>
		<path style="fill:#263238;" d="M147.484,318.664c-0.022,0-0.044-0.001-0.066-0.004c-0.274-0.037-0.466-0.288-0.43-0.563
			c1.285-9.635-0.755-33.073-1.176-34.757c-0.415-1.659-1.459-2.553-3.102-2.655c-2.065-0.129-18.528-0.001-18.695,0.001
			c-0.001,0-0.002,0-0.004,0c-0.274,0-0.498-0.222-0.5-0.496c-0.002-0.276,0.22-0.502,0.496-0.504
			c0.68-0.006,16.666-0.13,18.765,0.001c2.068,0.13,3.492,1.341,4.009,3.411c0.399,1.593,2.548,25.003,1.197,35.132
			C147.945,318.481,147.731,318.664,147.484,318.664z"/>
		<path style="fill:#263238;" d="M132.368,316.291c-0.033,0-0.066-0.003-0.1-0.01c-5.759-1.162-22.347-0.525-22.514-0.518
			c-0.26,0.002-0.508-0.204-0.519-0.48c-0.011-0.275,0.204-0.508,0.48-0.52c0.686-0.026,16.875-0.647,22.751,0.537
			c0.271,0.055,0.446,0.318,0.391,0.589C132.81,316.127,132.601,316.291,132.368,316.291z"/>
		<path style="fill:#263238;" d="M137.066,298.62c-0.211,0-0.407-0.134-0.476-0.346c-1.097-3.379-3.844-8.965-9.864-8.491
			c-6.17,0.497-8.816,7.206-8.842,7.274c-0.099,0.257-0.388,0.386-0.646,0.287c-0.258-0.099-0.387-0.389-0.288-0.646
			c0.115-0.3,2.905-7.365,9.696-7.911c6.712-0.564,9.707,5.519,10.895,9.179c0.085,0.263-0.059,0.545-0.321,0.63
			C137.169,298.612,137.117,298.62,137.066,298.62z"/>
	</g>
</g>
<g id="Trash_bin">
	<g>
		<rect x="77.198" y="364.077" style="fill:#263238;" width="25.846" height="18.066"/>
		<path style="fill:#407BFF;" d="M68.89,359.984v57.13h35.67v-57.13H68.89z M100.67,376.864H89.33v-6.84c0-1.59,1.29-2.88,2.88-2.88
			h5.58c1.59,0,2.88,1.29,2.88,2.88V376.864z"/>
		<path style="opacity:0.6;fill:#FFFFFF;enable-background:new    ;" d="M68.89,359.984v57.13h35.67v-57.13H68.89z M100.67,376.864
			H89.33v-6.84c0-1.59,1.29-2.88,2.88-2.88h5.58c1.59,0,2.88,1.29,2.88,2.88V376.864z"/>
		<rect x="68.89" y="359.987" style="opacity:0.4;fill:#FFFFFF;enable-background:new    ;" width="15.297" height="57.129"/>
		<rect x="67.967" y="356.974" style="fill:#407BFF;" width="37.434" height="5.521"/>
		<rect x="67.967" y="356.974" style="opacity:0.2;fill:#FFFFFF;enable-background:new    ;" width="17.275" height="5.521"/>
	</g>
</g>
</svg>
