<?xml version="1.0" encoding="utf-8"?>
<!-- Generator: Adobe Illustrator 27.5.0, SVG Export Plug-In . SVG Version: 6.00 Build 0)  -->
<svg version="1.1" xmlns="http://www.w3.org/2000/svg" xmlns:xlink="http://www.w3.org/1999/xlink" x="0px" y="0px"
	 viewBox="0 0 500 500" style="enable-background:new 0 0 500 500;" xml:space="preserve">
<g id="Background_Complete">
	<rect x="416.779" y="398.494" style="fill:#EBEBEB;" width="33.122" height="0.25"/>
	<rect x="322.527" y="401.208" style="fill:#EBEBEB;" width="8.693" height="0.25"/>
	<rect x="396.586" y="389.208" style="fill:#EBEBEB;" width="19.192" height="0.25"/>
	<rect x="52.459" y="390.888" style="fill:#EBEBEB;" width="43.193" height="0.25"/>
	<rect x="104.556" y="390.888" style="fill:#EBEBEB;" width="6.333" height="0.25"/>
	<rect x="131.471" y="395.111" style="fill:#EBEBEB;" width="93.676" height="0.25"/>
	<path style="fill:#EBEBEB;" d="M237.014,337.8H43.915c-3.147,0-5.708-2.561-5.708-5.708V60.66c0-3.147,2.561-5.708,5.708-5.708
		h193.099c3.146,0,5.707,2.561,5.707,5.708v271.432C242.721,335.239,240.16,337.8,237.014,337.8z M43.915,55.203
		c-3.01,0-5.458,2.448-5.458,5.458v271.432c0,3.01,2.448,5.458,5.458,5.458h193.099c3.009,0,5.457-2.448,5.457-5.458V60.66
		c0-3.009-2.448-5.458-5.457-5.458H43.915z"/>
	<path style="fill:#EBEBEB;" d="M453.31,337.8H260.212c-3.147,0-5.707-2.561-5.707-5.708V60.66c0-3.147,2.561-5.708,5.707-5.708
		H453.31c3.148,0,5.708,2.561,5.708,5.708v271.432C459.019,335.239,456.458,337.8,453.31,337.8z M260.212,55.203
		c-3.009,0-5.457,2.448-5.457,5.458v271.432c0,3.01,2.448,5.458,5.457,5.458H453.31c3.01,0,5.458-2.448,5.458-5.458V60.66
		c0-3.009-2.448-5.458-5.458-5.458H260.212z"/>
	<rect y="382.398" style="fill:#EBEBEB;" width="500" height="0.25"/>
	<g>
		<g>
			<g>
				<path style="fill:#EBEBEB;" d="M122.36,315.335c0.975,1.231,1.964,2.697,1.682,4.243c-0.313,1.712-2.255,2.817-3.972,2.533
					c-1.717-0.284-3.101-1.689-3.736-3.31c-0.396-1.01-0.544-2.102-0.933-3.114c-1.123-2.923-4.014-4.714-6.719-6.293
					c-0.17,3.039,1.548,5.875,3.586,8.136c2.037,2.262,4.46,4.188,6.218,6.673c1.758,2.485,2.777,5.797,1.567,8.591
					c-0.1,0.23-0.221,0.463-0.425,0.609c-0.282,0.202-0.661,0.195-1.004,0.149c-3.184-0.433-5.353-3.418-6.754-6.31
					c-1.401-2.892-2.553-6.116-5.128-8.039c1.134,3.824,4.202,6.765,5.824,10.409c2.081,4.677,1.5,10.436-1.473,14.604
					c-0.249,0.349-0.562,0.716-0.989,0.762c-0.621,0.066-1.073-0.564-1.334-1.131c-2.6-5.671-0.691-13.335-5.19-17.657
					c-0.695,1.514-1.39,3.029-2.084,4.543c-0.424,0.923-0.869,1.876-1.637,2.541c-0.768,0.665-1.955,0.96-2.812,0.413
					c-1.339-0.855-0.979-2.881-0.406-4.362c1.484-3.839,3.322-7.54,5.483-11.043c-1.509-0.714-3.039,0.839-4.134,2.099
					c-1.095,1.26-3.207,2.363-4.23,1.043c-0.329-0.425-0.41-0.992-0.404-1.53c0.028-2.636,1.809-4.919,3.724-6.731
					c1.915-1.812,4.101-3.442,5.378-5.748c-1.463,0.306-3.012,0.608-4.423,0.116c-1.411-0.493-2.545-2.1-1.972-3.483
					c0.226-0.543,5.063-5.083,5.618-5.259c2.291-0.725,4.528,1.391,6.265,2.656C113.351,305.378,118.213,310.098,122.36,315.335z"/>
				<g>
					<path style="fill:#E0E0E0;" d="M109.72,337.674c-0.013-0.765-0.013-1.517-0.013-2.268c-0.252-21.538-4.052-29.579-5.051-29.81
						l-0.104-0.99c0.303-0.045,0.604,0.071,0.906,0.331c1.987,1.717,5.024,11.245,5.249,30.463c0,0.751,0,1.497,0.013,2.256
						L109.72,337.674z"/>
				</g>
				<g>
					<path style="fill:#E0E0E0;" d="M109.705,348.79c-0.011-0.636-0.004-9.807-0.001-13.26l0.001-1.35
						c0-20.619,3.14-30.861,5.25-32.714c0.305-0.269,0.613-0.385,0.916-0.345l-0.129,0.992c-1.043,0.245-5.037,8.887-5.037,32.066
						l-0.001,1.351c-0.003,3.45-0.01,12.615,0.001,13.241L109.705,348.79z"/>
				</g>
				<g>
					<polygon style="fill:#F0F0F0;" points="123.84,382.096 96.826,382.096 94.182,349.613 126.485,349.613 					"/>
					<polygon style="fill:#FAFAFA;" points="128.577,351.29 91.822,351.29 91.161,346.969 129.239,346.969 					"/>
				</g>
			</g>
			<g>
				<path style="fill:#F5F5F5;" d="M74.166,297.307c-1.864-0.046-3.96,0.063-5.223,1.433c-1.4,1.518-1.063,4.149,0.432,5.574
					c1.495,1.425,3.815,1.735,5.805,1.181c1.24-0.345,2.381-0.984,3.619-1.338c3.574-1.021,7.335,0.442,10.762,1.881
					c-2.761,2.33-6.676,2.724-10.274,2.407c-3.598-0.318-7.154-1.24-10.765-1.133s-7.479,1.505-9.265,4.645
					c-0.147,0.259-0.282,0.54-0.275,0.838c0.01,0.412,0.286,0.766,0.576,1.059c2.683,2.71,7.061,2.637,10.804,1.901
					s7.622-1.944,11.283-0.875c-4.435,1.653-9.414,0.843-14.026,1.906c-5.921,1.365-10.967,6.025-12.797,11.819
					c-0.153,0.486-0.278,1.044-0.017,1.481c0.381,0.636,1.3,0.616,2.024,0.457c7.233-1.582,13.138-8.863,20.447-7.681
					c-0.94,1.74-1.88,3.479-2.821,5.219c-0.573,1.061-1.159,2.163-1.241,3.366c-0.082,1.203,0.486,2.539,1.615,2.961
					c1.766,0.66,3.43-1.127,4.426-2.728c2.581-4.147,4.779-8.532,6.558-13.081c1.754,0.922,1.373,3.48,0.96,5.418
					c-0.413,1.938,0.049,4.728,2.03,4.755c0.638,0.009,1.234-0.32,1.74-0.709c2.48-1.908,3.373-5.226,3.724-8.335
					c0.351-3.109,0.337-6.345,1.612-9.202c0.753,1.606,1.573,3.291,3.047,4.277c1.474,0.986,3.808,0.914,4.71-0.615
					c0.354-0.601,1.207-8.428,0.977-9.081c-0.947-2.69-4.55-3.301-6.99-4.046C90.038,298.744,82.092,297.502,74.166,297.307z"/>
				<path style="fill:#F0F0F0;" d="M121.477,331.963c0.833,1.668,1.912,3.468,3.715,3.941c1.998,0.525,4.163-1.007,4.72-2.996
					c0.558-1.989-0.256-4.183-1.679-5.681c-0.886-0.933-1.986-1.642-2.879-2.569c-2.578-2.677-3.049-6.686-3.386-10.388
					c3.352,1.346,5.537,4.619,6.943,7.946c1.407,3.327,2.26,6.9,4.047,10.04c1.787,3.139,4.836,5.9,8.447,6.005
					c0.298,0.009,0.609-0.005,0.869-0.15c0.359-0.202,0.542-0.612,0.665-1.005c1.136-3.641-0.982-7.474-3.387-10.434
					c-2.405-2.96-5.291-5.82-6.064-9.555c3.54,3.142,5.159,7.919,8.261,11.495c3.982,4.589,10.464,6.861,16.439,5.76
					c0.501-0.092,1.053-0.244,1.316-0.68c0.383-0.634-0.066-1.437-0.545-2.003c-4.789-5.647-13.988-7.448-16.372-14.458
					c1.977,0.015,3.955,0.029,5.932,0.044c1.206,0.009,2.454,0.009,3.555-0.482c1.101-0.491,2.015-1.619,1.858-2.815
					c-0.246-1.869-2.604-2.501-4.485-2.63c-4.873-0.335-9.777-0.22-14.629,0.342c-0.008-1.982,2.43-2.845,4.335-3.388
					c1.906-0.543,4.153-2.26,3.248-4.023c-0.291-0.568-0.861-0.94-1.442-1.204c-2.848-1.296-6.198-0.529-9.109,0.619
					c-2.911,1.148-5.762,2.677-8.884,2.891c1.065-1.418,2.169-2.932,2.349-4.697c0.18-1.764-0.978-3.792-2.752-3.872
					c-0.697-0.031-8.01,2.886-8.479,3.395c-1.932,2.098-0.782,5.566-0.296,8.071C115.303,317.271,117.932,324.871,121.477,331.963z"
					/>
			</g>
		</g>
		<g>
			<g>
				<path style="opacity:0.2;enable-background:new    ;" d="M269.791,87.374c0,0.342-0.008,0.685-0.034,1.027v25.882h-35.525
					l-1.889-1.793l1.889-25.116c0-9.822,7.966-17.78,17.78-17.78C261.834,69.594,269.791,77.551,269.791,87.374z"/>
				<path style="fill:#F0F0F0;" d="M267.902,85.581c0,0.342-0.009,0.684-0.034,1.027v25.882h-35.525V85.581
					c0-9.822,7.966-17.78,17.78-17.78C259.945,67.801,267.902,75.758,267.902,85.581z"/>
			</g>
			<g>
				<g>
					
						<ellipse transform="matrix(0.1602 -0.9871 0.9871 0.1602 125.6984 319.7058)" style="fill:#E0E0E0;" cx="250.734" cy="85.983" rx="12.465" ry="12.465"/>
					<g>
						<g>
							<circle style="fill:#FFFFFF;" cx="249.286" cy="85.762" r="12.465"/>
						</g>
						<g>
							<g>
								<path style="fill:#E0E0E0;" d="M250.124,86.592c0,0.56-0.454,1.014-1.014,1.014c-0.56,0-1.014-0.454-1.014-1.014
									c0-0.56,0.454-1.014,1.014-1.014C249.67,85.578,250.124,86.032,250.124,86.592z"/>
							</g>
							<g>
								<polygon style="fill:#E0E0E0;" points="248.993,86.966 244.689,82.915 245.107,82.471 249.007,86.14 255.996,79.966 
									256.399,80.422 								"/>
							</g>
						</g>
					</g>
				</g>
			</g>
		</g>
		<g>
			<path style="fill:#E0E0E0;" d="M132.832,203.787c-5.23,0.979-15.015,1.638-26.233,1.638c-11.217,0-21.002-0.659-26.233-1.638
				c-0.213,0.528-0.532,1.023-0.96,1.451c-1.702,1.702-5.073,1.089-6.163,0c-1.089-1.09-1.702-4.461,0-6.163
				c0.364-0.363,1.006-0.405,1.221-0.841c1.802-3.648-1.408-10.609-1.408-18.119c0-7.508,3.208-14.467,1.407-18.116
				c-0.721-1.462-2.497-2.188-2.497-3.926c0-1.738,1.776-2.464,2.497-3.926c1.8-3.65-1.407-10.608-1.407-18.116
				c0-7.511,3.21-14.471,1.408-18.119c-0.215-0.436-0.857-0.478-1.221-0.841c-1.702-1.702-1.09-5.074,0-6.163
				c1.089-1.089,4.461-1.702,6.163,0c0.428,0.428,0.461,1.178,0.96,1.451c4.666,2.558,15.016-1.638,26.233-1.638
				s21.567,4.195,26.233,1.638c0.499-0.273,0.532-1.023,0.96-1.451c1.702-1.702,5.073-1.089,6.163,0c1.089,1.09,1.702,4.461,0,6.163
				c-0.364,0.364-1.006,0.405-1.221,0.841c-1.803,3.648,1.408,10.609,1.408,18.119c0,7.508-3.208,14.467-1.407,18.116
				c0.721,1.462,2.497,2.188,2.497,3.926c0,1.738-1.776,2.464-2.497,3.926c-1.801,3.649,1.407,10.608,1.407,18.116
				c0,7.511-3.21,14.471-1.408,18.119c0.215,0.436,0.857,0.478,1.221,0.841c1.702,1.702,1.089,5.073,0,6.163
				c-1.089,1.089-4.461,1.702-6.163,0C133.364,204.81,133.045,204.315,132.832,203.787z"/>
			<path style="fill:#FAFAFA;" d="M134.819,201.8c-5.23,0.979-15.015,1.638-26.233,1.638c-11.217,0-21.002-0.659-26.233-1.638
				c-0.213,0.528-0.532,1.023-0.96,1.451c-1.702,1.702-5.073,1.089-6.163,0c-1.09-1.089-1.702-4.461,0-6.163
				c0.364-0.363,1.006-0.405,1.221-0.841c1.802-3.649-1.408-10.609-1.408-18.12c0-7.509,3.208-14.466,1.407-18.116
				c-0.721-1.461-2.497-2.188-2.497-3.926c0-1.738,1.776-2.464,2.497-3.926c1.8-3.65-1.407-10.608-1.407-18.116
				c0-7.51,3.21-14.471,1.408-18.119c-0.215-0.436-0.857-0.478-1.221-0.841c-1.702-1.702-1.09-5.073,0-6.163
				c1.089-1.09,4.461-1.702,6.163,0c0.428,0.428,0.461,1.177,0.96,1.451c4.666,2.558,15.015-1.638,26.233-1.638
				c11.217,0,21.567,4.195,26.233,1.638c0.499-0.273,0.532-1.023,0.96-1.451c1.702-1.702,5.073-1.09,6.163,0
				c1.089,1.089,1.702,4.461,0,6.163c-0.364,0.364-1.006,0.405-1.221,0.841c-1.803,3.648,1.408,10.609,1.408,18.119
				c0,7.508-3.208,14.466-1.407,18.116c0.721,1.462,2.497,2.188,2.497,3.926c0,1.738-1.776,2.464-2.497,3.926
				c-1.801,3.65,1.407,10.608,1.407,18.116c0,7.511-3.21,14.471-1.408,18.12c0.215,0.436,0.857,0.478,1.221,0.841
				c1.702,1.702,1.089,5.073,0,6.163c-1.09,1.089-4.461,1.702-6.163,0C135.351,202.823,135.032,202.329,134.819,201.8z"/>
			
				<rect x="82.336" y="116.959" transform="matrix(-1 -1.224647e-16 1.224647e-16 -1 217.1724 312.1717)" style="fill:#EBEBEB;" width="52.501" height="78.253"/>
		</g>
		<g>
			<g>
				<path style="fill:#F5F5F5;" d="M311.668,116.62c0,0,26.246-25.578,61.833-25.578s58.496,25.578,58.496,25.578v203.958H311.668
					V116.62z"/>
				<path style="fill:#E0E0E0;" d="M428.976,117.599c-15.344-14.884-35.513-23.065-56.939-23.065
					c-21.426,0-41.595,8.18-56.939,23.065v200.378h113.878V117.599z M425.418,314.418H318.656V119.124
					c14.528-13.575,33.424-21.031,53.38-21.031c19.956,0,38.852,7.456,53.381,21.031V314.418z"/>
				<g>
					<path style="fill:#EBEBEB;" d="M435.204,324.205H308.87V115.006l0.912-0.912c16.629-16.629,38.738-25.787,62.255-25.787
						c23.517,0,45.626,9.158,62.255,25.787l0.912,0.912V324.205z M315.098,317.977h113.878V117.599
						c-15.344-14.884-35.513-23.065-56.939-23.065c-21.426,0-41.595,8.18-56.939,23.065V317.977z"/>
				</g>
				<g>
					<path style="fill:#E6E6E6;" d="M388.941,97.664v16.274h-33.808V97.664c-2.099,0.447-4.179,0.964-6.228,1.576v14.698h-27.66
						c-1.648,1.345-3.261,2.744-4.813,4.229v1.999h32.473v61.281h-32.473v6.228h32.473v61.589h-32.473v6.228h32.473v61.151h6.228
						v-61.151h33.808v61.151h6.228v-61.151h32.473v-6.228h-32.473v-61.589h32.473v-6.228h-32.473v-61.281h32.473v-1.999
						c-1.552-1.485-3.165-2.883-4.813-4.229h-27.66V99.24C393.12,98.628,391.04,98.111,388.941,97.664z M388.941,249.264h-33.808
						v-61.589h33.808V249.264z M388.941,181.447h-33.808v-61.281h33.808V181.447z"/>
				</g>
			</g>
			<rect x="297.528" y="324.721" style="fill:#F0F0F0;" width="147.807" height="12.736"/>
		</g>
	</g>
</g>
<g id="Background_Simple" style="display:none;">
	<g style="display:inline;">
		<g>
			<path style="fill:#407BFF;" d="M421.225,334.534c9.44-35.958,2.965-75.792-17.378-106.909
				c-5.239-8.014-11.532-15.625-19.812-20.434c-8.28-4.808-18.853-6.434-27.515-2.352c-9.846,4.639-15.152,15.183-20.92,24.412
				c-5.768,9.23-14.364,18.615-25.24,18.195c-6.477-0.25-12.24-4.009-17.469-7.84c-53.569-39.247-91.753-100.072-152.758-126.309
				c-13.505-5.808-29.389-9.621-42.598-3.169c-14.479,7.072-21.067,24.294-22.563,40.339c-2.329,24.968,4.534,50.212,16.299,72.358
				c11.765,22.145,28.254,41.451,45.976,59.193c45.9,45.949,102.97,83.361,167.02,94.123c21.444,3.603,43.747,4.128,64.681-1.756
				c20.934-5.884,40.437-18.668,51.578-37.342C420.466,338.637,421.225,334.534,421.225,334.534z"/>
		</g>
		<g style="opacity:0.9;">
			<path style="fill:#FFFFFF;" d="M421.225,334.534c9.44-35.958,2.965-75.792-17.378-106.909
				c-5.239-8.014-11.532-15.625-19.812-20.434c-8.28-4.808-18.853-6.434-27.515-2.352c-9.846,4.639-15.152,15.183-20.92,24.412
				c-5.768,9.23-14.364,18.615-25.24,18.195c-6.477-0.25-12.24-4.009-17.469-7.84c-53.569-39.247-91.753-100.072-152.758-126.309
				c-13.505-5.808-29.389-9.621-42.598-3.169c-14.479,7.072-21.067,24.294-22.563,40.339c-2.329,24.968,4.534,50.212,16.299,72.358
				c11.765,22.145,28.254,41.451,45.976,59.193c45.9,45.949,102.97,83.361,167.02,94.123c21.444,3.603,43.747,4.128,64.681-1.756
				c20.934-5.884,40.437-18.668,51.578-37.342C420.466,338.637,421.225,334.534,421.225,334.534z"/>
		</g>
	</g>
</g>
<g id="Shadow">
	<ellipse id="_x3C_Path_x3E__359_" style="fill:#F5F5F5;" cx="250" cy="415.693" rx="193.889" ry="11.323"/>
</g>
<g id="Plant">
	<g>
		<g>
			<path style="fill:#407BFF;" d="M348.017,367.337c0,0,3.998,0.923,5.86,5.905c1.857,4.982,7.527,8.066,11.177,7.887
				c1.47-0.072,2.845,0.621,4.471,1.558c0.448,0.256,0.911,0.531,1.405,0.818c-0.062-0.494-0.111-1.007-0.139-1.535
				c-0.392-0.302-0.78-0.625-1.158-0.974c-0.087-0.083-0.173-0.162-0.259-0.246c-4.399-4.229-4.525-8.677-9.657-12.681
				C354.487,363.987,348.017,367.337,348.017,367.337z"/>
			<path style="fill:#407BFF;" d="M390.703,362.917c0,0-3.828,1.478-4.968,6.673c-1.136,5.194-6.314,9.047-9.953,9.385
				c-1.465,0.136-2.729,1.016-4.207,2.173c-0.407,0.317-0.827,0.654-1.276,1.009c-0.008-0.498-0.033-1.013-0.078-1.54
				c0.346-0.354,0.683-0.728,1.009-1.128c0.074-0.095,0.148-0.185,0.222-0.28c3.758-4.807,3.256-9.228,7.771-13.917
				C383.825,360.514,390.703,362.917,390.703,362.917z"/>
			<path style="fill:#407BFF;" d="M371.575,381.148c0.095,2.408-0.058,5.146-0.86,8.273c-2.47,9.603-2.714,6.05-2.714,6.05
				s2.376-9.018,2.298-13.315c-0.008-0.498-0.033-1.013-0.078-1.54c-0.14-1.758-0.482-3.663-1.152-5.602
				c-2.606-7.549-7.821-9.879-9.879-17.975c-2.058-8.096,5.075-13.859,5.075-13.859s-0.959,5.079,3.844,9.743
				c4.799,4.664,5.487,12.76,3.429,16.876c-1.202,2.4-0.44,5.409-0.087,9.409C371.505,379.831,371.551,380.477,371.575,381.148z"/>
		</g>
		<path style="fill:#407BFF;" d="M375.987,422.116h-15.97c-1.703,0-3.143-1.259-3.371-2.947l-4.267-31.604h31.248l-4.267,31.604
			C379.13,420.857,377.69,422.116,375.987,422.116z"/>
		<path style="fill:#407BFF;" d="M386.224,387.454v5.81h-3.37l-3.5,25.9c-0.22,1.69-1.66,2.95-3.37,2.95h-15.97
			c-1.7,0-3.14-1.26-3.37-2.95l-3.5-25.9h-3.88v-5.81H386.224z"/>
		<path style="opacity:0.5;" d="M386.224,387.454v5.81h-3.37l-3.5,25.9c-0.22,1.69-1.66,2.95-3.37,2.95h-15.97
			c-1.7,0-3.14-1.26-3.37-2.95l-3.5-25.9h-3.88v-5.81H386.224z"/>
	</g>
</g>
<g id="Connectivity">
	<g>
		<g>
			<g>
				<path style="fill:#407BFF;" d="M196.454,321.894c-0.171,1.955-1.895,3.541-3.851,3.541c-1.956,0-3.402-1.585-3.231-3.541
					c0.171-1.956,1.895-3.541,3.851-3.541C195.178,318.353,196.625,319.939,196.454,321.894z"/>
			</g>
		</g>
		<g>
			<g>
				<path style="fill:#407BFF;" d="M198.774,319.484c-0.41,0-0.711-0.37-0.671-0.826c0.178-2.033-1.891-3.624-4.71-3.624
					c-2.854,0-5.239,2.415-5.344,3.624c-0.04,0.456-0.405,0.826-0.816,0.826c-0.411,0-0.711-0.37-0.671-0.826
					c0.208-2.375,3.468-5.276,6.976-5.276c3.653,0,6.312,2.317,6.053,5.276C199.55,319.114,199.185,319.484,198.774,319.484z"/>
			</g>
			<g>
				<path style="fill:#407BFF;" d="M200.741,314.842c-0.411,0-0.711-0.37-0.671-0.826c0.175-1.998-2.678-3.624-6.359-3.624
					c-3.856,0-6.898,2.542-6.993,3.624c-0.04,0.456-0.405,0.826-0.816,0.826s-0.711-0.37-0.671-0.826
					c0.208-2.375,4.228-5.276,8.624-5.276c4.654,0,7.965,2.268,7.702,5.276C201.517,314.472,201.151,314.842,200.741,314.842z"/>
			</g>
			<g>
				<path style="fill:#407BFF;" d="M202.672,310.601c-0.41,0-0.711-0.37-0.671-0.826c0.153-1.75-3.028-3.625-8.008-3.625
					c-5.054,0-8.56,2.693-8.642,3.625c-0.04,0.456-0.405,0.826-0.816,0.826c-0.41,0-0.711-0.37-0.671-0.826
					c0.208-2.376,4.989-5.277,10.273-5.277c5.685,0,9.618,2.219,9.35,5.277C203.448,310.231,203.083,310.601,202.672,310.601z"/>
			</g>
		</g>
	</g>
</g>
<g id="Device">
	<g>
		<g>
			<g id="Monitor_Screen">
				<g id="_x3C_Group_x3E_">
					<g>
						<g>
							<polygon style="fill:#407BFF;" points="374.602,271.957 109.137,271.957 123.86,103.673 389.325,103.673 							"/>
							<path style="fill:#263238;" d="M370.949,285.129H109.353c-7.421,0-12.911-6.016-12.262-13.438l14.631-167.235
								c0.649-7.421,7.192-13.438,14.613-13.438h261.597c7.421,0,12.911,6.016,12.262,13.438l-14.631,167.235
								C384.914,279.113,378.371,285.129,370.949,285.129z"/>
						</g>
						<g>
							<polygon style="fill:#407BFF;" points="370.991,271.957 120.243,271.957 134.966,103.673 385.714,103.673 							"/>
							<g>
								<g>
									<g>
										<polygon style="fill:#FFFFFF;" points="370.94,272.025 120.216,272.025 134.939,103.741 385.663,103.741 										"/>
									</g>
									<g>
										<polygon style="fill:#407BFF;" points="383.797,125.069 133.073,125.069 134.939,103.741 385.663,103.741 										"/>
									</g>
									<g>
										
											<ellipse transform="matrix(0.7224 -0.6915 0.6915 0.7224 -54.7958 216.241)" style="fill:#407BFF;" cx="241.931" cy="176.369" rx="7.961" ry="7.294"/>
									</g>
									<g>
										
											<ellipse transform="matrix(0.7224 -0.6915 0.6915 0.7224 -104.2365 156.7894)" style="fill:#263238;" cx="143.147" cy="208.21" rx="7.961" ry="7.294"/>
									</g>
									<g>
										<path style="fill:#407BFF;" d="M223.891,223.851c-0.368,4.208-4.078,7.62-8.287,7.62c-4.209,0-7.322-3.412-6.954-7.62
											c0.368-4.208,4.078-7.62,8.287-7.62C221.146,216.23,224.259,219.642,223.891,223.851z"/>
									</g>
									<g>
										<g>
											<g>
												<path style="fill:#263238;" d="M142.746,163.784l0.711-1.334c0.534,0.375,1.316,0.631,2.056,0.631
													c0.749,0,1.061-0.211,1.088-0.521c0.089-1.015-3.614-0.274-3.406-2.65c0.1-1.143,1.114-2.075,3.015-2.075
													c0.831,0,1.674,0.192,2.272,0.558l-0.675,1.344c-0.583-0.329-1.172-0.493-1.73-0.493c-0.759,0-1.055,0.256-1.083,0.575
													c-0.086,0.979,3.607,0.247,3.4,2.605c-0.098,1.115-1.113,2.065-3.014,2.065
													C144.33,164.488,143.313,164.205,142.746,163.784z"/>
											</g>
											<g>
												<path style="fill:#263238;" d="M173.235,164.36l0.278-3.391l-1.887,2.76h-0.805l-1.402-2.669l-0.289,3.3h-1.673
													l0.56-6.398h1.49l1.925,3.693l2.517-3.693h1.49l-0.542,6.398H173.235z"/>
											</g>
											<g>
												<path style="fill:#263238;" d="M194.379,159.397h-1.965l0.126-1.436h5.731l-0.126,1.436h-1.956l-0.434,4.963h-1.81
													L194.379,159.397z"/>
											</g>
											<g>
												<path style="fill:#263238;" d="M227.083,157.962l-2.634,6.398h-1.938l-0.884-3.894l-1.62,3.894h-1.938l-1.515-6.398
													h1.865l0.931,4.086l1.71-4.086h1.664l0.928,4.123l1.704-4.123H227.083z"/>
											</g>
											<g>
												<path style="fill:#263238;" d="M242.189,159.397h-1.965l0.126-1.436h5.731l-0.126,1.436h-1.956l-0.434,4.963h-1.81
													L242.189,159.397z"/>
											</g>
											<g>
												<path style="fill:#263238;" d="M266.545,159.36l-0.123,1.408h2.824l-0.122,1.398h-2.824l-0.192,2.193h-1.81l0.56-6.398
													h5.018l-0.122,1.398H266.545z"/>
											</g>
											<g>
												<path style="fill:#263238;" d="M287.805,163.784l0.711-1.334c0.534,0.375,1.316,0.631,2.056,0.631
													c0.75,0,1.06-0.211,1.088-0.521c0.089-1.015-3.614-0.274-3.406-2.65c0.1-1.143,1.114-2.075,3.015-2.075
													c0.832,0,1.674,0.192,2.272,0.558l-0.675,1.344c-0.583-0.329-1.172-0.493-1.73-0.493c-0.759,0-1.055,0.256-1.083,0.575
													c-0.086,0.979,3.607,0.247,3.401,2.605c-0.098,1.115-1.113,2.065-3.014,2.065
													C289.388,164.488,288.371,164.205,287.805,163.784z"/>
											</g>
										</g>
										<g>
											<g>
												<path style="fill:#263238;" d="M194.177,173.718l-0.56,6.398h-1.81l0.437-5h-1.188l0.122-1.398H194.177z"/>
											</g>
											<g>
												<path style="fill:#263238;" d="M219.85,178.682l-0.126,1.434h-4.981l0.099-1.134l2.59-2.239
													c0.553-0.475,0.652-0.768,0.675-1.032c0.036-0.411-0.217-0.658-0.765-0.658c-0.466,0-0.905,0.21-1.197,0.621
													l-1.278-0.749c0.555-0.805,1.506-1.335,2.767-1.335c1.472,0,2.42,0.759,2.316,1.947
													c-0.054,0.621-0.278,1.189-1.266,2.029l-1.304,1.115H219.85z"/>
											</g>
											<g>
												<path style="fill:#263238;" d="M243.787,178.114c-0.095,1.088-1.046,2.13-2.974,2.13c-0.887,0-1.809-0.22-2.431-0.631
													l0.777-1.361c0.481,0.347,1.124,0.53,1.727,0.53c0.612,0,1.036-0.238,1.073-0.668c0.034-0.384-0.229-0.621-0.924-0.621
													h-0.758l0.1-1.143l1.25-1.234h-2.523l0.122-1.398h4.625l-0.099,1.134l-1.451,1.426
													C243.361,176.506,243.867,177.2,243.787,178.114z"/>
											</g>
											<g>
												<path style="fill:#263238;" d="M268.73,178.891h-0.951l-0.107,1.225h-1.764l0.107-1.225h-3.382l0.103-1.18l3.22-3.994
													h1.874l-2.932,3.738h1.298l0.095-1.087H268l-0.095,1.087h0.951L268.73,178.891z"/>
											</g>
											<g>
												<path style="fill:#263238;" d="M291.702,178.059c-0.1,1.143-1.051,2.185-2.979,2.185c-0.887,0-1.809-0.22-2.422-0.631
													l0.768-1.361c0.491,0.347,1.114,0.53,1.727,0.53s1.046-0.247,1.083-0.677c0.035-0.394-0.208-0.649-1.186-0.649h-1.737
													l0.647-3.738h4.076l-0.122,1.398h-2.578l-0.164,0.933h0.43C291.138,176.049,291.801,176.927,291.702,178.059z"/>
											</g>
										</g>
										<g>
											<g>
												<path style="fill:#263238;" d="M145.712,193.817c-0.117,1.335-1.306,2.185-2.705,2.185
													c-1.792,0-2.867-1.078-2.686-3.153c0.195-2.23,1.687-3.501,3.707-3.501c0.722,0,1.402,0.165,1.842,0.467l-0.772,1.298
													c-0.343-0.256-0.739-0.329-1.15-0.329c-0.914,0-1.571,0.512-1.748,1.489c0.384-0.311,0.882-0.475,1.486-0.475
													C144.893,191.798,145.82,192.593,145.712,193.817z M143.95,193.899c0.043-0.493-0.286-0.804-0.807-0.804
													c-0.521,0-0.915,0.329-0.958,0.813c-0.042,0.475,0.277,0.804,0.826,0.804
													C143.523,194.713,143.906,194.402,143.95,193.899z"/>
											</g>
											<g>
												<path style="fill:#263238;" d="M170.133,189.475l-0.099,1.134l-2.718,5.265h-1.974l2.591-4.963h-1.682l-0.086,0.987
													h-1.545l0.212-2.423H170.133z"/>
											</g>
											<g>
												<path style="fill:#263238;" d="M195.183,193.991c-0.107,1.225-1.301,2.011-2.955,2.011s-2.71-0.786-2.602-2.011
													c0.058-0.658,0.439-1.161,1.044-1.49c-0.403-0.301-0.62-0.74-0.572-1.288c0.099-1.134,1.205-1.865,2.713-1.865
													s2.486,0.731,2.387,1.865c-0.048,0.548-0.343,0.987-0.798,1.288C194.946,192.83,195.24,193.333,195.183,193.991z
													 M193.368,193.936c0.043-0.494-0.315-0.795-0.89-0.795s-0.986,0.301-1.029,0.795c-0.043,0.493,0.314,0.795,0.89,0.795
													S193.325,194.43,193.368,193.936z M191.881,191.295c-0.037,0.42,0.243,0.667,0.7,0.667s0.789-0.247,0.826-0.667
													c0.038-0.43-0.261-0.677-0.708-0.677C192.251,190.618,191.918,190.865,191.881,191.295z"/>
											</g>
											<g>
												<path style="fill:#263238;" d="M219.007,192.501c-0.195,2.23-1.687,3.501-3.715,3.501c-0.713,0-1.393-0.164-1.833-0.466
													l0.771-1.298c0.343,0.256,0.739,0.329,1.15,0.329c0.905,0,1.553-0.513,1.738-1.481
													c-0.383,0.302-0.873,0.467-1.476,0.467c-1.207,0-2.134-0.796-2.026-2.02c0.117-1.334,1.306-2.185,2.696-2.185
													C218.113,189.348,219.188,190.427,219.007,192.501z M217.143,191.441c0.042-0.476-0.277-0.805-0.825-0.805
													c-0.512,0-0.896,0.311-0.94,0.813c-0.043,0.493,0.286,0.805,0.808,0.805
													C216.706,192.255,217.101,191.926,217.143,191.441z"/>
											</g>
											<g>
												<path style="fill:#263238;" d="M240.608,189.475l-0.56,6.398h-1.81l0.438-5h-1.188l0.122-1.398H240.608z"/>
												<path style="fill:#263238;" d="M241.29,192.675c0.185-2.111,1.48-3.327,3.116-3.327c1.626,0,2.709,1.216,2.524,3.327
													c-0.185,2.111-1.48,3.327-3.106,3.327C242.187,196.002,241.105,194.786,241.29,192.675z M245.111,192.675
													c0.118-1.344-0.259-1.846-0.835-1.846c-0.585,0-1.05,0.502-1.167,1.846c-0.118,1.344,0.259,1.847,0.844,1.847
													C244.529,194.521,244.993,194.018,245.111,192.675z"/>
											</g>
											<g>
												<path style="fill:#263238;" d="M264.513,189.475l-0.56,6.398h-1.81l0.438-5h-1.189l0.122-1.398H264.513z"/>
												<path style="fill:#263238;" d="M268.217,189.475l-0.56,6.398h-1.81l0.438-5h-1.189l0.122-1.398H268.217z"/>
											</g>
											<g>
												<path style="fill:#263238;" d="M288.418,189.475l-0.56,6.398h-1.81l0.437-5h-1.188l0.122-1.398H288.418z"/>
												<path style="fill:#263238;" d="M293.89,194.439l-0.125,1.434h-4.981l0.099-1.134l2.59-2.239
													c0.553-0.475,0.652-0.768,0.675-1.032c0.036-0.411-0.217-0.658-0.765-0.658c-0.466,0-0.905,0.21-1.197,0.621
													l-1.278-0.749c0.555-0.805,1.506-1.335,2.767-1.335c1.472,0,2.42,0.759,2.316,1.947
													c-0.054,0.621-0.278,1.189-1.265,2.029l-1.304,1.115H293.89z"/>
											</g>
										</g>
										<g>
											<g>
												<path style="fill:#FFFFFF;" d="M141.981,205.229l-0.56,6.399h-1.81l0.438-5h-1.188l0.122-1.399H141.981z"/>
												<path style="fill:#FFFFFF;" d="M147.485,209.626c-0.095,1.088-1.046,2.13-2.974,2.13c-0.887,0-1.809-0.22-2.431-0.631
													l0.777-1.361c0.481,0.347,1.124,0.53,1.727,0.53c0.612,0,1.035-0.238,1.073-0.668c0.034-0.384-0.229-0.621-0.924-0.621
													h-0.758l0.1-1.143l1.25-1.234h-2.522l0.122-1.399h4.625l-0.099,1.134l-1.45,1.426
													C147.058,208.017,147.565,208.712,147.485,209.626z"/>
											</g>
											<g>
												<path style="fill:#263238;" d="M166.296,205.229l-0.56,6.399h-1.81l0.437-5h-1.189l0.122-1.399H166.296z"/>
												<path style="fill:#263238;" d="M172.838,210.403h-0.951l-0.107,1.225h-1.764l0.107-1.225h-3.382l0.103-1.18l3.22-3.994
													h1.874l-2.932,3.738h1.298l0.095-1.087h1.709l-0.095,1.087h0.951L172.838,210.403z"/>
											</g>
											<g>
												<path style="fill:#263238;" d="M191.421,205.229l-0.56,6.399h-1.81l0.437-5H188.3l0.122-1.399H191.421z"/>
												<path style="fill:#263238;" d="M197.029,209.571c-0.1,1.143-1.051,2.185-2.979,2.185c-0.887,0-1.809-0.22-2.422-0.631
													l0.768-1.361c0.491,0.347,1.114,0.53,1.727,0.53s1.046-0.247,1.083-0.677c0.034-0.394-0.208-0.649-1.186-0.649h-1.737
													l0.647-3.738h4.076l-0.122,1.399h-2.578l-0.164,0.933h0.43C196.465,207.56,197.128,208.438,197.029,209.571z"/>
											</g>
											<g>
												<path style="fill:#263238;" d="M215.325,205.229l-0.56,6.399h-1.809l0.437-5h-1.188l0.122-1.399H215.325z"/>
												<path style="fill:#263238;" d="M221.382,209.571c-0.117,1.335-1.306,2.185-2.705,2.185
													c-1.792,0-2.867-1.078-2.686-3.153c0.195-2.23,1.687-3.501,3.707-3.501c0.722,0,1.402,0.165,1.842,0.467l-0.772,1.298
													c-0.343-0.256-0.739-0.329-1.15-0.329c-0.913,0-1.571,0.512-1.748,1.489c0.384-0.311,0.882-0.475,1.486-0.475
													C220.562,207.552,221.489,208.346,221.382,209.571z M219.619,209.653c0.043-0.493-0.286-0.804-0.807-0.804
													s-0.915,0.329-0.958,0.814c-0.042,0.475,0.277,0.804,0.826,0.804C219.192,210.467,219.575,210.156,219.619,209.653z"/>
											</g>
											<g>
												<path style="fill:#263238;" d="M239.23,205.229l-0.56,6.399h-1.81l0.438-5h-1.189l0.122-1.399H239.23z"/>
												<path style="fill:#263238;" d="M245.392,205.229l-0.099,1.134l-2.718,5.265h-1.974l2.591-4.963h-1.682l-0.086,0.987
													h-1.544l0.212-2.423H245.392z"/>
											</g>
											<g>
												<path style="fill:#263238;" d="M263.135,205.229l-0.56,6.399h-1.81l0.438-5h-1.189l0.122-1.399H263.135z"/>
												<path style="fill:#263238;" d="M269.223,209.745c-0.107,1.225-1.3,2.011-2.955,2.011s-2.71-0.786-2.602-2.011
													c0.058-0.658,0.44-1.161,1.044-1.49c-0.403-0.301-0.62-0.74-0.572-1.288c0.099-1.134,1.205-1.865,2.713-1.865
													s2.486,0.731,2.387,1.865c-0.048,0.548-0.343,0.987-0.798,1.288C268.986,208.584,269.28,209.087,269.223,209.745z
													 M267.409,209.69c0.043-0.494-0.315-0.795-0.891-0.795c-0.576,0-0.986,0.301-1.029,0.795
													c-0.043,0.493,0.314,0.795,0.89,0.795C266.955,210.485,267.366,210.183,267.409,209.69z M265.921,207.049
													c-0.037,0.42,0.243,0.667,0.701,0.667c0.457,0,0.789-0.247,0.826-0.667c0.038-0.43-0.261-0.677-0.708-0.677
													C266.291,206.372,265.959,206.619,265.921,207.049z"/>
											</g>
											<g>
												<path style="fill:#263238;" d="M287.04,205.229l-0.56,6.399h-1.81l0.437-5h-1.188l0.122-1.399H287.04z"/>
												<path style="fill:#263238;" d="M293.047,208.255c-0.195,2.23-1.686,3.501-3.715,3.501c-0.713,0-1.393-0.164-1.833-0.466
													l0.771-1.298c0.343,0.256,0.739,0.329,1.15,0.329c0.905,0,1.553-0.513,1.738-1.481
													c-0.383,0.302-0.873,0.467-1.476,0.467c-1.207,0-2.133-0.796-2.026-2.021c0.117-1.334,1.306-2.185,2.695-2.185
													C292.153,205.101,293.228,206.18,293.047,208.255z M291.184,207.195c0.042-0.475-0.277-0.805-0.825-0.805
													c-0.512,0-0.895,0.311-0.939,0.813c-0.043,0.493,0.286,0.805,0.807,0.805
													C290.747,208.009,291.141,207.68,291.184,207.195z"/>
											</g>
										</g>
										<g>
											<g>
												<path style="fill:#263238;" d="M142.371,225.948l-0.126,1.434h-4.981l0.099-1.134l2.59-2.239
													c0.553-0.475,0.652-0.768,0.675-1.032c0.036-0.411-0.217-0.658-0.765-0.658c-0.466,0-0.905,0.21-1.197,0.621
													l-1.278-0.749c0.555-0.805,1.506-1.335,2.767-1.335c1.472,0,2.42,0.759,2.316,1.947
													c-0.054,0.621-0.278,1.189-1.265,2.029l-1.304,1.115H142.371z"/>
												<path style="fill:#263238;" d="M143.05,224.183c0.185-2.111,1.48-3.327,3.116-3.327c1.626,0,2.709,1.216,2.524,3.327
													c-0.185,2.111-1.48,3.327-3.106,3.327C143.947,227.511,142.865,226.295,143.05,224.183z M146.871,224.183
													c0.118-1.344-0.259-1.846-0.835-1.846c-0.585,0-1.05,0.502-1.167,1.846c-0.118,1.344,0.259,1.847,0.844,1.847
													C146.289,226.03,146.753,225.527,146.871,224.183z"/>
											</g>
											<g>
												<path style="fill:#263238;" d="M166.686,225.948l-0.126,1.434h-4.981l0.099-1.134l2.59-2.239
													c0.553-0.475,0.652-0.768,0.675-1.032c0.036-0.411-0.217-0.658-0.765-0.658c-0.466,0-0.905,0.21-1.197,0.621
													l-1.278-0.749c0.555-0.805,1.506-1.335,2.767-1.335c1.472,0,2.42,0.759,2.316,1.947
													c-0.054,0.621-0.278,1.189-1.266,2.029l-1.304,1.115H166.686z"/>
												<path style="fill:#263238;" d="M170.396,220.984l-0.56,6.398h-1.81l0.438-5h-1.189l0.122-1.398H170.396z"/>
											</g>
											<g>
												<path style="fill:#263238;" d="M191.811,225.948l-0.126,1.434h-4.981l0.099-1.134l2.59-2.239
													c0.553-0.475,0.652-0.768,0.675-1.032c0.036-0.411-0.217-0.658-0.765-0.658c-0.466,0-0.905,0.21-1.197,0.621
													l-1.278-0.749c0.555-0.805,1.506-1.335,2.767-1.335c1.472,0,2.42,0.759,2.316,1.947
													c-0.054,0.621-0.278,1.189-1.265,2.029l-1.304,1.115H191.811z"/>
												<path style="fill:#263238;" d="M197.288,225.948l-0.126,1.434h-4.981l0.099-1.134l2.59-2.239
													c0.553-0.475,0.652-0.768,0.675-1.032c0.036-0.411-0.217-0.658-0.765-0.658c-0.466,0-0.905,0.21-1.197,0.621
													l-1.278-0.749c0.555-0.805,1.506-1.335,2.767-1.335c1.472,0,2.42,0.759,2.316,1.947
													c-0.054,0.621-0.278,1.189-1.265,2.029l-1.304,1.115H197.288z"/>
											</g>
											<g>
												<path style="fill:#263238;" d="M215.715,225.948l-0.126,1.434h-4.981l0.099-1.134l2.59-2.239
													c0.553-0.475,0.652-0.768,0.675-1.032c0.036-0.411-0.217-0.658-0.765-0.658c-0.466,0-0.905,0.21-1.197,0.621
													l-1.278-0.749c0.555-0.805,1.506-1.335,2.767-1.335c1.472,0,2.42,0.759,2.316,1.947
													c-0.054,0.621-0.278,1.189-1.266,2.029l-1.304,1.115H215.715z"/>
												<path style="fill:#263238;" d="M221.224,225.381c-0.095,1.088-1.046,2.13-2.974,2.13c-0.887,0-1.809-0.22-2.431-0.631
													l0.777-1.361c0.481,0.347,1.124,0.53,1.727,0.53c0.612,0,1.036-0.238,1.073-0.668c0.034-0.384-0.229-0.621-0.924-0.621
													h-0.758l0.1-1.143l1.25-1.234h-2.522l0.122-1.398h4.625l-0.099,1.134l-1.45,1.426
													C220.798,223.772,221.304,224.467,221.224,225.381z"/>
											</g>
											<g>
												<path style="fill:#263238;" d="M239.62,225.948l-0.126,1.434h-4.981l0.099-1.134l2.59-2.239
													c0.553-0.475,0.652-0.768,0.675-1.032c0.036-0.411-0.217-0.658-0.765-0.658c-0.466,0-0.905,0.21-1.197,0.621
													l-1.278-0.749c0.555-0.805,1.506-1.335,2.767-1.335c1.472,0,2.42,0.759,2.316,1.947
													c-0.054,0.621-0.278,1.189-1.265,2.029l-1.304,1.115H239.62z"/>
												<path style="fill:#263238;" d="M246.122,226.158h-0.951l-0.107,1.225H243.3l0.107-1.225h-3.382l0.103-1.18l3.22-3.994
													h1.874l-2.932,3.738h1.298l0.095-1.087h1.709l-0.095,1.087h0.951L246.122,226.158z"/>
											</g>
											<g>
												<path style="fill:#263238;" d="M263.525,225.948l-0.125,1.434h-4.981l0.099-1.134l2.59-2.239
													c0.553-0.475,0.652-0.768,0.675-1.032c0.036-0.411-0.217-0.658-0.765-0.658c-0.466,0-0.905,0.21-1.197,0.621
													l-1.278-0.749c0.555-0.805,1.506-1.335,2.767-1.335c1.472,0,2.42,0.759,2.316,1.947
													c-0.054,0.621-0.278,1.189-1.265,2.029l-1.304,1.115H263.525z"/>
												<path style="fill:#263238;" d="M269.14,225.326c-0.1,1.143-1.051,2.185-2.979,2.185c-0.887,0-1.809-0.22-2.422-0.631
													l0.768-1.361c0.491,0.347,1.114,0.53,1.727,0.53s1.046-0.247,1.083-0.677c0.034-0.394-0.208-0.649-1.186-0.649h-1.737
													l0.647-3.738h4.076l-0.122,1.398h-2.578l-0.164,0.933h0.43C268.576,223.315,269.239,224.193,269.14,225.326z"/>
											</g>
											<g>
												<path style="fill:#263238;" d="M287.43,225.948l-0.125,1.434h-4.981l0.099-1.134l2.59-2.239
													c0.553-0.475,0.652-0.768,0.675-1.032c0.036-0.411-0.217-0.658-0.765-0.658c-0.466,0-0.905,0.21-1.197,0.621
													l-1.278-0.749c0.555-0.805,1.506-1.335,2.767-1.335c1.472,0,2.42,0.759,2.316,1.947
													c-0.054,0.621-0.278,1.189-1.265,2.029l-1.304,1.115H287.43z"/>
												<path style="fill:#263238;" d="M293.484,225.326c-0.117,1.335-1.306,2.185-2.705,2.185
													c-1.792,0-2.867-1.078-2.686-3.153c0.195-2.23,1.687-3.501,3.707-3.501c0.722,0,1.402,0.165,1.842,0.467l-0.772,1.298
													c-0.343-0.256-0.739-0.329-1.151-0.329c-0.913,0-1.571,0.512-1.748,1.489c0.384-0.311,0.882-0.475,1.486-0.475
													C292.664,223.307,293.591,224.101,293.484,225.326z M291.721,225.408c0.043-0.493-0.286-0.804-0.807-0.804
													s-0.915,0.329-0.958,0.814c-0.042,0.475,0.277,0.804,0.826,0.804C291.294,226.221,291.677,225.911,291.721,225.408z"/>
											</g>
										</g>
										<g>
											<g>
												<path style="fill:#263238;" d="M140.993,241.704l-0.126,1.435h-4.981l0.099-1.134l2.59-2.239
													c0.553-0.475,0.652-0.768,0.675-1.032c0.036-0.411-0.217-0.658-0.765-0.658c-0.466,0-0.905,0.21-1.197,0.621
													l-1.278-0.749c0.555-0.805,1.506-1.335,2.767-1.335c1.472,0,2.42,0.759,2.316,1.947
													c-0.054,0.621-0.278,1.188-1.266,2.029l-1.304,1.115H140.993z"/>
												<path style="fill:#263238;" d="M147.152,236.74l-0.099,1.134l-2.718,5.265h-1.974l2.591-4.963h-1.682l-0.086,0.987
													h-1.544l0.212-2.423H147.152z"/>
											</g>
											<g>
												<path style="fill:#263238;" d="M165.307,241.704l-0.125,1.435h-4.981l0.099-1.134l2.59-2.239
													c0.553-0.475,0.652-0.768,0.675-1.032c0.036-0.411-0.217-0.658-0.765-0.658c-0.466,0-0.905,0.21-1.197,0.621
													l-1.278-0.749c0.555-0.805,1.506-1.335,2.767-1.335c1.472,0,2.42,0.759,2.316,1.947
													c-0.054,0.621-0.278,1.188-1.265,2.029l-1.304,1.115H165.307z"/>
												<path style="fill:#263238;" d="M171.401,241.256c-0.107,1.225-1.301,2.011-2.955,2.011s-2.71-0.786-2.602-2.011
													c0.058-0.658,0.439-1.161,1.044-1.49c-0.403-0.301-0.62-0.74-0.572-1.288c0.099-1.134,1.205-1.865,2.713-1.865
													s2.486,0.731,2.387,1.865c-0.048,0.548-0.343,0.987-0.798,1.288C171.164,240.095,171.458,240.598,171.401,241.256z
													 M169.587,241.201c0.043-0.494-0.315-0.795-0.89-0.795s-0.986,0.301-1.029,0.795c-0.043,0.493,0.314,0.795,0.89,0.795
													S169.544,241.694,169.587,241.201z M168.099,238.559c-0.037,0.42,0.243,0.667,0.701,0.667s0.789-0.247,0.826-0.667
													c0.038-0.43-0.261-0.677-0.708-0.677C168.469,237.883,168.137,238.13,168.099,238.559z"/>
											</g>
											<g>
												<path style="fill:#263238;" d="M190.432,241.704l-0.126,1.435h-4.981l0.099-1.134l2.59-2.239
													c0.553-0.475,0.652-0.768,0.675-1.032c0.036-0.411-0.217-0.658-0.765-0.658c-0.466,0-0.905,0.21-1.197,0.621
													l-1.278-0.749c0.555-0.805,1.506-1.335,2.767-1.335c1.472,0,2.42,0.759,2.316,1.947
													c-0.054,0.621-0.278,1.188-1.265,2.029l-1.304,1.115H190.432z"/>
												<path style="fill:#263238;" d="M196.445,239.766c-0.195,2.23-1.686,3.501-3.715,3.501c-0.713,0-1.393-0.164-1.833-0.466
													l0.771-1.298c0.343,0.256,0.739,0.329,1.15,0.329c0.905,0,1.553-0.513,1.738-1.481
													c-0.383,0.302-0.873,0.467-1.476,0.467c-1.207,0-2.133-0.796-2.026-2.02c0.117-1.334,1.306-2.185,2.695-2.185
													C195.551,236.612,196.627,237.691,196.445,239.766z M194.582,238.706c0.042-0.476-0.277-0.805-0.825-0.805
													c-0.512,0-0.895,0.311-0.939,0.814c-0.043,0.493,0.286,0.805,0.807,0.805
													C194.145,239.519,194.54,239.19,194.582,238.706z"/>
											</g>
											<g>
												<path style="fill:#263238;" d="M214.368,241.137c-0.095,1.088-1.046,2.13-2.974,2.13c-0.887,0-1.809-0.22-2.431-0.631
													l0.777-1.361c0.481,0.347,1.124,0.53,1.727,0.53c0.612,0,1.035-0.238,1.073-0.668c0.034-0.384-0.229-0.621-0.924-0.621
													h-0.758l0.1-1.143l1.25-1.234h-2.523l0.122-1.398h4.625l-0.099,1.134l-1.45,1.426
													C213.942,239.528,214.448,240.223,214.368,241.137z"/>
												<path style="fill:#263238;" d="M215.061,239.939c0.185-2.111,1.48-3.327,3.116-3.327c1.626,0,2.708,1.216,2.524,3.327
													c-0.185,2.111-1.48,3.327-3.106,3.327C215.958,243.266,214.876,242.051,215.061,239.939z M218.881,239.939
													c0.118-1.344-0.259-1.846-0.835-1.846c-0.585,0-1.05,0.502-1.167,1.846c-0.118,1.344,0.259,1.847,0.844,1.847
													C218.299,241.786,218.764,241.283,218.881,239.939z"/>
											</g>
										</g>
										<g>
											<g>
												<polygon style="fill:#263238;" points="148.196,134.48 144.817,137.921 147.563,141.723 												"/>
											</g>
										</g>
										<g>
											<g>
												<polygon style="fill:#263238;" points="296.605,134.48 299.383,137.921 295.971,141.723 												"/>
											</g>
										</g>
										<g>
											<polygon style="fill:#263238;" points="252.236,141.723 191.569,141.723 192.203,134.48 252.87,134.48 											"/>
										</g>
									</g>
									<g>
										<polygon style="fill:#407BFF;" points="370.94,272.025 302.094,272.025 314.951,125.069 383.797,125.069 										"/>
									</g>
									<g style="opacity:0.3;">
										<polygon points="370.94,272.025 302.094,272.025 314.951,125.069 383.797,125.069 										"/>
									</g>
									<g>
										<g style="opacity:0.8;">
											<path style="fill:#FFFFFF;" d="M327.014,183.989h-6.707c-1.68,0-2.923-1.362-2.776-3.042l2.134-24.397
												c0.147-1.68,1.628-3.042,3.308-3.042h6.707c1.68,0,2.923,1.362,2.776,3.042l-2.134,24.397
												C330.175,182.627,328.694,183.989,327.014,183.989z"/>
										</g>
										<g>
											<path style="fill:#263238;" d="M327.027,171.131c-0.095,1.088-1.046,2.13-2.974,2.13c-0.887,0-1.809-0.22-2.431-0.631
												l0.777-1.361c0.481,0.347,1.124,0.53,1.727,0.53c0.612,0,1.035-0.238,1.073-0.668c0.034-0.384-0.229-0.621-0.924-0.621
												h-0.758l0.1-1.143l1.25-1.234h-2.522l0.122-1.398h4.625l-0.099,1.134l-1.45,1.426
												C326.601,169.522,327.107,170.217,327.027,171.131z"/>
										</g>
										<g>
											<path style="fill:#407BFF;" d="M368.548,183.989h-32.773c-1.68,0-2.923-1.362-2.776-3.042l2.134-24.397
												c0.147-1.68,1.628-3.042,3.308-3.042h32.773c1.68,0,2.923,1.362,2.776,3.042l-2.134,24.397
												C371.71,182.627,370.228,183.989,368.548,183.989z"/>
										</g>
										<g>
											<path style="fill:#263238;" d="M365.303,221.089H332.53c-1.68,0-2.923-1.362-2.776-3.042l2.134-24.397
												c0.147-1.68,1.628-3.042,3.308-3.042h32.773c1.68,0,2.923,1.362,2.776,3.042l-2.135,24.397
												C368.464,219.727,366.983,221.089,365.303,221.089z"/>
										</g>
										<g>
											<path style="fill:#407BFF;" d="M362.057,258.188h-32.773c-1.68,0-2.923-1.362-2.776-3.042l2.134-24.397
												c0.147-1.68,1.628-3.042,3.308-3.042h32.773c1.68,0,2.923,1.362,2.776,3.042l-2.134,24.397
												C365.218,256.826,363.737,258.188,362.057,258.188z"/>
										</g>
										<g style="opacity:0.8;">
											<path style="fill:#FFFFFF;" d="M323.768,221.089h-6.707c-1.68,0-2.923-1.362-2.776-3.042l2.134-24.397
												c0.147-1.68,1.628-3.042,3.308-3.042h6.707c1.68,0,2.923,1.362,2.776,3.042l-2.134,24.397
												C326.929,219.727,325.448,221.089,323.768,221.089z"/>
										</g>
										<g>
											<path style="fill:#263238;" d="M320.358,201.812l-0.56,6.398h-1.81l0.437-5h-1.188l0.122-1.398H320.358z"/>
											<path style="fill:#263238;" d="M325.862,206.209c-0.095,1.088-1.046,2.13-2.975,2.13c-0.887,0-1.809-0.22-2.431-0.631
												l0.777-1.361c0.481,0.347,1.124,0.53,1.727,0.53c0.612,0,1.035-0.238,1.073-0.668c0.034-0.384-0.229-0.621-0.924-0.621
												h-0.758l0.1-1.143l1.25-1.234h-2.522l0.122-1.398h4.625l-0.099,1.134l-1.45,1.426
												C325.435,204.6,325.942,205.295,325.862,206.209z"/>
										</g>
										<g style="opacity:0.8;">
											<path style="fill:#FFFFFF;" d="M320.523,258.188h-6.707c-1.68,0-2.923-1.362-2.776-3.042l2.134-24.397
												c0.147-1.68,1.628-3.042,3.308-3.042h6.707c1.68,0,2.923,1.362,2.776,3.042l-2.134,24.397
												C323.684,256.826,322.203,258.188,320.523,258.188z"/>
										</g>
										<g>
											<polygon style="fill:#FFFFFF;" points="369.446,142.227 328.07,142.227 328.748,134.48 370.124,134.48 											"/>
										</g>
									</g>
									<g>
										<path style="fill:#FFFFFF;" d="M225.988,114.776c0.205-2.344,2.144-4.005,4.586-4.005c1.419,0,2.518,0.518,3.184,1.452
											l-1.496,1.255c-0.433-0.583-1-0.902-1.737-0.902c-1.265,0-2.222,0.88-2.338,2.2c-0.115,1.32,0.688,2.2,1.953,2.2
											c0.737,0,1.359-0.319,1.894-0.902l1.276,1.255c-0.83,0.935-2.02,1.452-3.439,1.452
											C227.43,118.781,225.782,117.12,225.988,114.776z"/>
										<path style="fill:#FFFFFF;" d="M239.323,117.131h-3.256l-0.736,1.496h-2.222l4.073-7.701h2.145l2.737,7.701h-2.266
											L239.323,117.131z M238.826,115.524l-0.775-2.464l-1.206,2.464H238.826z"/>
										<path style="fill:#FFFFFF;" d="M243.352,110.926h2.178l-0.523,5.974h3.675l-0.151,1.728h-5.853L243.352,110.926z"/>
										<path style="fill:#FFFFFF;" d="M255.719,116.943l-0.147,1.684h-6.183l0.674-7.701h6.04l-0.147,1.684h-3.884l-0.114,1.298
											h3.422l-0.142,1.628h-3.422l-0.123,1.408H255.719z"/>
										<path style="fill:#FFFFFF;" d="M264.781,110.926l-0.674,7.701h-1.793l-3.04-4.104l-0.359,4.104h-2.134l0.674-7.701h1.794
											l3.04,4.104l0.359-4.104H264.781z"/>
										<path style="fill:#FFFFFF;" d="M266.32,110.926h3.642c2.552,0,4.172,1.485,3.965,3.851
											c-0.207,2.365-2.086,3.851-4.639,3.851h-3.642L266.32,110.926z M269.352,116.888c1.309,0,2.258-0.781,2.374-2.112
											c0.117-1.331-0.695-2.112-2.005-2.112h-1.375l-0.37,4.225H269.352z"/>
										<path style="fill:#FFFFFF;" d="M279.913,117.131h-3.256l-0.736,1.496h-2.222l4.073-7.701h2.145l2.737,7.701h-2.266
											L279.913,117.131z M279.416,115.524l-0.775-2.464l-1.206,2.464H279.416z"/>
										<path style="fill:#FFFFFF;" d="M286.814,116.581h-1.189l-0.179,2.046h-2.178l0.674-7.701h3.521
											c2.102,0,3.326,1.089,3.172,2.85c-0.099,1.133-0.722,1.969-1.72,2.432l1.449,2.42h-2.333L286.814,116.581z
											 M287.181,112.641h-1.211l-0.197,2.256h1.21c0.902,0,1.39-0.418,1.451-1.122
											C288.497,113.06,288.082,112.641,287.181,112.641z"/>
									</g>
									<g>
										<g>
											<path style="fill:#FFFFFF;" d="M147.019,117.287h-1.003c-0.878,0-1.528-0.712-1.451-1.591l0.088-1.003
												c0.077-0.878,0.851-1.59,1.73-1.59h1.003c0.878,0,1.528,0.712,1.451,1.59l-0.088,1.003
												C148.671,116.575,147.897,117.287,147.019,117.287z"/>
										</g>
										<g>
											<path style="fill:#FFFFFF;" d="M153.295,117.287h-1.003c-0.879,0-1.528-0.712-1.451-1.591l0.088-1.003
												c0.077-0.878,0.851-1.59,1.73-1.59h1.003c0.878,0,1.528,0.712,1.451,1.59l-0.088,1.003
												C154.948,116.575,154.174,117.287,153.295,117.287z"/>
										</g>
										<g>
											<path style="fill:#FFFFFF;" d="M159.572,117.287h-1.003c-0.878,0-1.528-0.712-1.451-1.591l0.088-1.003
												c0.077-0.878,0.851-1.59,1.73-1.59h1.003c0.878,0,1.528,0.712,1.451,1.59l-0.088,1.003
												C161.225,116.575,160.451,117.287,159.572,117.287z"/>
										</g>
									</g>
								</g>
								<g>
									<path style="fill:#263238;" d="M317.917,245.746l-0.125,1.435h-4.981l0.099-1.134l2.59-2.239
										c0.553-0.475,0.652-0.768,0.675-1.032c0.036-0.411-0.217-0.658-0.765-0.658c-0.466,0-0.905,0.21-1.197,0.621l-1.278-0.749
										c0.555-0.805,1.506-1.335,2.767-1.335c1.472,0,2.42,0.759,2.316,1.947c-0.054,0.621-0.278,1.189-1.266,2.029l-1.304,1.115
										H317.917z"/>
									<path style="fill:#263238;" d="M323.427,245.178c-0.095,1.088-1.046,2.13-2.974,2.13c-0.887,0-1.809-0.22-2.431-0.631
										l0.777-1.361c0.481,0.347,1.124,0.53,1.727,0.53c0.612,0,1.035-0.238,1.073-0.668c0.034-0.384-0.229-0.621-0.924-0.621
										h-0.758l0.1-1.143l1.25-1.234h-2.522l0.122-1.398h4.625l-0.099,1.134l-1.45,1.426
										C323.001,243.57,323.507,244.264,323.427,245.178z"/>
								</g>
								<g>
									<g>
										<polygon style="fill:#FFFFFF;" points="366.97,165.965 339.949,165.965 340.037,164.965 367.057,164.965 										"/>
									</g>
									<g>
										<polygon style="fill:#FFFFFF;" points="353.064,170.479 339.555,170.479 339.642,169.479 353.152,169.479 										"/>
									</g>
								</g>
								<g>
									<g>
										<polygon style="fill:#FFFFFF;" points="360.481,240.124 333.461,240.124 333.549,239.124 360.569,239.124 										"/>
									</g>
									<g>
										<polygon style="fill:#FFFFFF;" points="346.576,244.639 333.066,244.639 333.154,243.639 346.664,243.639 										"/>
									</g>
								</g>
								<g>
									<g>
										<polygon style="fill:#FFFFFF;" points="363.747,202.797 336.727,202.797 336.815,201.797 363.835,201.797 										"/>
									</g>
									<g>
										<polygon style="fill:#FFFFFF;" points="349.842,207.311 336.332,207.311 336.42,206.311 349.929,206.311 										"/>
									</g>
								</g>
								<g>
									<g>
										<g>
											<path style="fill:#FFFFFF;" d="M367.225,158.718c0.597-1.42,0.214-2.446,1.617-2.446c1.403,0,0.684,1.041,1.189,2.446
												c0.254,0.708-0.679,0.586-1.454,0.586C367.802,159.304,366.916,159.453,367.225,158.718z"/>
										</g>
									</g>
									<g>
										<g>
											<path style="fill:#FFFFFF;" d="M368.802,156.732c-0.254,0-0.442-0.207-0.42-0.46c0.022-0.254,0.247-0.461,0.501-0.461
												c0.254,0,0.443,0.207,0.42,0.461C369.281,156.526,369.056,156.732,368.802,156.732z M368.862,156.052
												c-0.121,0-0.228,0.098-0.238,0.219c-0.011,0.121,0.079,0.219,0.2,0.219c0.121,0,0.228-0.099,0.239-0.219
												C369.072,156.151,368.983,156.052,368.862,156.052z"/>
										</g>
									</g>
								</g>
								<g>
									<g>
										<g>
											<path style="fill:#FFFFFF;" d="M363.966,195.973c0.597-1.42,0.214-2.446,1.617-2.446c1.403,0,0.684,1.041,1.189,2.446
												c0.254,0.708-0.68,0.586-1.454,0.586C364.543,196.559,363.657,196.708,363.966,195.973z"/>
										</g>
									</g>
									<g>
										<g>
											<path style="fill:#FFFFFF;" d="M365.543,193.987c-0.254,0-0.442-0.207-0.42-0.46c0.022-0.254,0.247-0.461,0.501-0.461
												c0.254,0,0.442,0.207,0.42,0.461C366.021,193.78,365.797,193.987,365.543,193.987z M365.602,193.307
												c-0.121,0-0.228,0.098-0.238,0.219c-0.011,0.121,0.079,0.219,0.2,0.219s0.228-0.098,0.238-0.219
												C365.813,193.406,365.723,193.307,365.602,193.307z"/>
										</g>
									</g>
								</g>
								<g>
									<g>
										<g>
											<path style="fill:#FFFFFF;" d="M360.707,233.227c0.597-1.42,0.214-2.446,1.617-2.446s0.684,1.041,1.189,2.446
												c0.254,0.708-0.679,0.586-1.454,0.586S360.397,233.962,360.707,233.227z"/>
										</g>
									</g>
									<g>
										<g>
											<path style="fill:#FFFFFF;" d="M362.283,231.242c-0.254,0-0.442-0.207-0.42-0.46c0.022-0.254,0.247-0.461,0.501-0.461
												c0.254,0,0.442,0.207,0.42,0.461C362.762,231.035,362.537,231.242,362.283,231.242z M362.343,230.562
												c-0.121,0-0.228,0.098-0.238,0.219c-0.011,0.121,0.079,0.219,0.2,0.219c0.121,0,0.228-0.099,0.238-0.219
												C362.554,230.66,362.464,230.562,362.343,230.562z"/>
										</g>
									</g>
								</g>
							</g>
						</g>
						<g>
							<polygon style="opacity:0.2;fill:#FFFFFF;enable-background:new    ;" points="156.845,91.107 104.993,285.042 
								122.436,285.042 173.715,91.107 							"/>
							<polygon style="opacity:0.2;fill:#FFFFFF;enable-background:new    ;" points="183.764,91.107 131.912,285.042 
								166.511,285.042 217.791,91.107 							"/>
						</g>
					</g>
				</g>
			</g>
			
				<ellipse transform="matrix(0.2298 -0.9732 0.9732 0.2298 -89.665 255.4404)" style="opacity:0.4;fill:#FFFFFF;" cx="116.549" cy="184.369" rx="7.412" ry="7.412"/>
			<path style="opacity:0.4;fill:#FFFFFF;" d="M389.431,184.369c0,2.047-1.659,3.706-3.706,3.706c-2.047,0-3.706-1.659-3.706-3.706
				c0-2.047,1.659-3.706,3.706-3.706C387.772,180.663,389.431,182.322,389.431,184.369z"/>
		</g>
		<g>
			<g>
				<g>
					<g>
						<path style="fill:#FFFFFF;" d="M337.698,118.704c-0.063,0.72-0.698,1.303-1.417,1.303c-0.72,0-1.252-0.584-1.189-1.303
							c0.063-0.72,0.698-1.303,1.417-1.303S337.761,117.984,337.698,118.704z"/>
					</g>
				</g>
			</g>
			<g>
				<g>
					<path style="fill:#FFFFFF;" d="M339.141,114.817l-0.631,1.075c-0.631-0.292-1.414-0.456-2.29-0.456
						c-0.748,0-1.449,0.175-2.057,0.467l-0.514-1.075c0.818-0.374,1.73-0.608,2.676-0.608
						C337.388,114.221,338.346,114.431,339.141,114.817z"/>
					<path style="fill:#FFFFFF;" d="M340.905,111.802l-0.631,1.075c-0.923-0.479-2.256-0.795-3.833-0.795
						c-1.449,0-2.723,0.374-3.693,0.853l-0.502-1.052c1.215-0.619,2.723-1.028,4.301-1.028
						C338.288,110.855,339.795,111.206,340.905,111.802z"/>
					<path style="fill:#FFFFFF;" d="M342.693,108.728l-0.643,1.11c-1.134-0.654-3.003-1.122-5.387-1.122
						c-2.244,0-4.114,0.584-5.353,1.227l-0.491-1.052c1.543-0.806,3.693-1.391,5.948-1.391
						C339.246,107.501,341.326,107.957,342.693,108.728z"/>
				</g>
			</g>
		</g>
		<g>
			<g>
				<g>
					<g>
						<path style="fill:#FFFFFF;" d="M360.361,120.221c-3.546,0-6.178-2.885-5.868-6.431c0.31-3.546,3.447-6.431,6.993-6.431
							l-0.025,0.283c-3.39,0-6.389,2.758-6.686,6.148c-0.297,3.39,2.22,6.148,5.61,6.148L360.361,120.221z"/>
						<path style="fill:#FFFFFF;" d="M360.59,120.471h-0.25c-3.684,0-6.418-2.997-6.096-6.681c0.322-3.684,3.582-6.681,7.265-6.681
							h0.25l-0.069,0.783h-0.25c-3.252,0-6.129,2.646-6.414,5.898c-0.285,3.252,2.13,5.898,5.382,5.898h0.25L360.59,120.471z"/>
					</g>
				</g>
				<g>
					<g>
						<g>
							<g>
								<path style="fill:#FFFFFF;" d="M360.361,120.221l0.025-0.283c3.39,0,6.389-2.758,6.686-6.148
									c0.297-3.39-2.22-6.148-5.61-6.148l0.025-0.283c3.546,0,6.178,2.885,5.868,6.431
									C367.045,117.336,363.908,120.221,360.361,120.221z"/>
								<path style="fill:#FFFFFF;" d="M360.34,120.471h-0.25l0.069-0.783h0.25c3.252,0,6.129-2.646,6.414-5.898
									c0.285-3.252-2.13-5.898-5.382-5.898h-0.25l0.069-0.783h0.25c3.684,0,6.418,2.997,6.096,6.681
									C367.283,117.475,364.023,120.471,360.34,120.471z"/>
							</g>
						</g>
						<g>
							<g>
								<g>
									<path style="fill:#FFFFFF;" d="M364.21,113.792h-0.283c0.182-2.084-0.631-4.873-2.54-6.17l0.173-0.238
										C363.55,108.735,364.399,111.631,364.21,113.792z"/>
									<path style="fill:#FFFFFF;" d="M364.438,114.042h-0.783l0.022-0.25c0.176-2.017-0.606-4.711-2.443-5.959l-0.199-0.135
										l0.48-0.659l0.199,0.135c2.061,1.4,2.941,4.389,2.746,6.619L364.438,114.042z"/>
								</g>
							</g>
							<g>
								<g>
									<path style="fill:#FFFFFF;" d="M360.456,120.008l-0.132-0.238c2.135-1.297,3.437-4.086,3.619-6.17h0.283
										C364.038,115.761,362.682,118.656,360.456,120.008z"/>
									<path style="fill:#FFFFFF;" d="M360.35,120.353l-0.365-0.659l0.222-0.135c2.056-1.249,3.309-3.943,3.486-5.959l0.022-0.25
										h0.783l-0.022,0.25c-0.195,2.229-1.599,5.219-3.904,6.619L360.35,120.353z"/>
								</g>
							</g>
						</g>
						<g>
							<g>
								<g>
									<path style="fill:#FFFFFF;" d="M357.921,113.79h-0.283c0.189-2.161,1.545-5.056,3.77-6.409l0.132,0.238
										C359.405,108.917,358.103,111.706,357.921,113.79z"/>
									<path style="fill:#FFFFFF;" d="M358.149,114.04h-0.783l0.022-0.25c0.195-2.229,1.599-5.218,3.903-6.619l0.222-0.135
										l0.365,0.659l-0.222,0.135c-2.056,1.249-3.309,3.943-3.486,5.96L358.149,114.04z"/>
								</g>
							</g>
							<g>
								<g>
									<path style="fill:#FFFFFF;" d="M360.304,120.007c-1.989-1.352-2.838-4.247-2.649-6.408h0.283
										c-0.182,2.084,0.631,4.873,2.54,6.17L360.304,120.007z"/>
									<path style="fill:#FFFFFF;" d="M360.349,120.353l-0.199-0.135c-2.06-1.401-2.94-4.391-2.745-6.619l0.022-0.25h0.783
										l-0.022,0.25c-0.177,2.017,0.606,4.711,2.443,5.96l0.198,0.135L360.349,120.353z"/>
								</g>
							</g>
						</g>
						<g>
							<g>
								<polygon style="fill:#FFFFFF;" points="360.515,120.08 360.232,120.08 361.333,107.501 361.616,107.501 								"/>
								<polygon style="fill:#FFFFFF;" points="360.743,120.33 359.961,120.33 361.105,107.251 361.887,107.251 								"/>
							</g>
						</g>
					</g>
				</g>
				<g>
					<g>
						<g>
							<polygon style="fill:#FFFFFF;" points="366.529,110.582 355.881,110.582 355.906,110.299 366.553,110.299 							"/>
							<polygon style="fill:#FFFFFF;" points="366.757,110.832 355.609,110.832 355.678,110.049 366.825,110.049 							"/>
						</g>
					</g>
					<g>
						<g>
							<polygon style="fill:#FFFFFF;" points="367.189,114.039 354.616,114.039 354.641,113.756 367.214,113.756 							"/>
							<polygon style="fill:#FFFFFF;" points="367.417,114.289 354.344,114.289 354.412,113.506 367.486,113.506 							"/>
						</g>
					</g>
					<g>
						<g>
							<polygon style="fill:#FFFFFF;" points="365.783,117.493 355.417,117.493 355.442,117.211 365.808,117.211 							"/>
							<polygon style="fill:#FFFFFF;" points="366.011,117.743 355.145,117.743 355.214,116.96 366.08,116.96 							"/>
						</g>
					</g>
				</g>
			</g>
		</g>
	</g>
</g>
<g id="Character">
	<g>
		<g>
			<g id="_x3C_Group_x3E__1_">
				<g>
					<g>
						<polygon style="fill:#CB7A63;" points="247.537,410.776 254.654,404.876 236.709,387.854 229.052,394.391 						"/>
						<path style="fill:#407BFF;" d="M260.429,402.6c-0.484-0.295-1.457-0.155-2.468,0.122c-0.481,0.137-0.974,0.302-1.418,0.464
							c-0.347,0.126-0.672,0.257-0.938,0.368c-0.398,0.171-0.692,0.301-0.791,0.348c-0.095,0.024-0.154,0.115-0.159,0.21
							c-0.007,0.035,0.01,0.074,0.029,0.101c0.033,0.048,0.079,0.087,0.142,0.104c1.01,0.268,2.045,0.439,3.089,0.523
							c0.514,0.073,1.038,0.028,1.526-0.114c0.025-0.007,0.051-0.014,0.069-0.017c0.281-0.091,0.554-0.207,0.811-0.362
							c0.332-0.267,0.512-0.683,0.473-1.11C260.789,402.979,260.655,402.738,260.429,402.6z M260.33,403.252
							c0.047,0.29-0.079,0.578-0.315,0.749c-0.185,0.157-0.457,0.262-0.805,0.328c-0.336,0.068-0.747,0.087-1.217,0.064
							c-0.548-0.019-1.191-0.104-1.897-0.238c-0.15-0.028-0.312-0.059-0.468-0.094c0.85-0.409,1.741-0.715,2.655-0.926
							c0.489-0.112,0.977-0.193,1.478-0.243c0.15-0.002,0.294,0.031,0.424,0.104C260.277,403.056,260.331,403.15,260.33,403.252z"/>
						<path style="fill:#407BFF;" d="M257.163,398.85c-0.464,0.074-0.874,0.345-1.133,0.733c-0.082,0.116-0.147,0.242-0.204,0.381
							c-0.596,1.284-0.285,3.23-0.221,3.59c0.007,0.025,0.01,0.044,0.014,0.051c0.015,0.081,0.069,0.145,0.147,0.172
							c0.044,0.02,0.09,0.029,0.141,0.015c0.03,0,0.058-0.019,0.087-0.049c0.169-0.136,0.35-0.329,0.548-0.556
							c0.285-0.336,0.585-0.753,0.848-1.194c0.615-1.005,1.057-2.144,0.785-2.734C258.068,399.008,257.806,398.743,257.163,398.85z
							 M257.758,399.442c0.173,0.386-0.164,1.281-0.664,2.158c-0.327,0.556-0.711,1.101-1.085,1.497
							c-0.079-0.632-0.159-1.828,0.145-2.711c0.062-0.204,0.15-0.385,0.257-0.539c0.166-0.244,0.411-0.432,0.69-0.511l0.136-0.022
							C257.659,399.237,257.737,399.396,257.758,399.442z"/>
						<path style="fill:#263238;" d="M253.732,404.453l-8.941,4.516c-0.354,0.165-0.534,0.566-0.421,0.94l2.638,8.367
							c0.291,0.82,1.192,1.249,2.012,0.959c0.053-0.019,0.105-0.04,0.156-0.065c15.317-5.389,20.013-9.197,21.611-10.069
							c4.558-2.489,1.997-5.722,0.295-5.318c-7.64,1.832-10.204,1.359-13.509,0.508C255.825,404.016,254.27,404.186,253.732,404.453
							z"/>
						<polygon style="opacity:0.2;enable-background:new    ;" points="236.71,387.862 245.797,395.913 238.14,402.449 
							229.053,394.398 						"/>
						<g>
							<polygon style="fill:#407BFF;" points="233.888,402.389 245.313,391.848 242.797,387.43 229.583,398.783 							"/>
						</g>
					</g>
					<g>
						<g>
							<g>
								<g>
									<g>
										<path style="fill:#407BFF;" d="M240.994,388.981l-1.531,1.317l-2.288,1.966l-1.364,1.163l-3.984,3.426l-0.764,0.653
											c0,0-16.287-9.169-25.348-16.997c-6.209-5.365-6.765-7.362-7.423-6.862c-8.752,6.662-34.658,29.687-49.338,41.668
											c-0.477,0.054-0.953,0.096-1.433,0.131c-7.845,0.577-14.018-0.28-18.803-2.105c-0.052-6.368,5.393-21.24,5.844-22.677
											c0,0,21.662-21.544,56.763-39.759c0.345-0.179,0.708-0.322,1.06-0.471c0.457-0.201,0.913-0.391,1.375-0.556
											c1.833-0.697,3.635-1.131,5.382-1.215c1.568-0.082,3.091,0.199,4.563,0.716c0.832,0.289,1.645,0.652,2.435,1.07
											c0.695,0.353,1.374,0.756,2.037,1.181c1.086,0.69,2.134,1.457,3.129,2.22c2.239,1.728,19.204,23.574,28.324,33.652
											c0.005,0.007,0.005,0.007,0.005,0.007C240.113,388.029,240.564,388.528,240.994,388.981z"/>
									</g>
								</g>
							</g>
						</g>
					</g>
					<g style="opacity:0.6;">
						<g>
							<g>
								<g>
									<path d="M240.994,388.981l-1.531,1.317l-2.288,1.966l-1.364,1.163l-3.984,3.426l-0.764,0.653
										c0,0-16.287-9.169-25.348-16.997c-6.209-5.365-6.765-7.362-7.423-6.862c-8.752,6.662-34.658,29.687-49.338,41.668
										c-0.477,0.054-0.953,0.096-1.433,0.131c-7.845,0.577-14.018-0.28-18.803-2.105c-0.052-6.368,5.393-21.24,5.844-22.677
										c0,0,21.662-21.544,56.763-39.759c0.345-0.179,0.708-0.322,1.06-0.471c0.457-0.201,0.913-0.391,1.375-0.556
										c1.833-0.697,3.635-1.131,5.382-1.215c1.568-0.082,3.091,0.199,4.563,0.716c0.832,0.289,1.645,0.652,2.435,1.07
										c0.695,0.353,1.374,0.756,2.037,1.181c1.086,0.69,2.134,1.457,3.129,2.22c2.239,1.728,19.204,23.574,28.324,33.652
										c0.005,0.007,0.005,0.007,0.005,0.007C240.113,388.029,240.564,388.528,240.994,388.981z"/>
								</g>
							</g>
						</g>
					</g>
				</g>
				<polygon style="fill:#CB7A63;" points="251.644,415.26 259.353,407.744 244.426,388.999 235.113,394.499 				"/>
				<g>
					<path style="fill:#407BFF;" d="M267.218,405.43c-0.858-0.298-2.613,0.659-3.943,1.506c-0.338,0.215-0.643,0.421-0.897,0.598
						l-0.022,0.012c-0.047,0.035-0.094,0.071-0.134,0.102c-0.301,0.213-0.518,0.371-0.598,0.434
						c-0.095,0.052-0.143,0.155-0.117,0.254c0.026,0.1,0.115,0.174,0.223,0.181c0.915,0.038,1.838,0.005,2.755-0.091
						c0.208-0.02,0.404-0.042,0.608-0.069c0.665-0.052,1.305-0.272,1.853-0.64c0.196-0.127,0.385-0.269,0.553-0.428
						c0.292-0.351,0.388-0.832,0.251-1.27C267.682,405.755,267.483,405.532,267.218,405.43z M267.269,406.144
						c0.105,0.294,0.047,0.62-0.163,0.86c-0.259,0.324-0.782,0.583-1.513,0.757c-0.568,0.142-1.258,0.236-2.061,0.279
						c-0.317,0.013-0.659,0.03-1.013,0.025c0.112-0.09,0.221-0.169,0.337-0.252c0.08-0.063,0.156-0.114,0.239-0.17
						c1.07-0.75,2.247-1.341,3.498-1.745c0.147-0.043,0.312-0.039,0.47,0.007C267.168,405.943,267.246,406.033,267.269,406.144z"/>
					<path style="fill:#407BFF;" d="M262.936,402.245c-0.47,0.183-0.835,0.555-1.018,1.017c-0.629,1.535,0.304,3.902,0.46,4.272
						c-0.003,0.011-0.003,0.011,0.008,0.015c0.001,0.018,0.005,0.026,0.009,0.033c0.037,0.084,0.113,0.137,0.196,0.149
						c0.053,0.009,0.104,0,0.152-0.017c0.033-0.009,0.066-0.036,0.079-0.063c0.01-0.016,0.018-0.02,0.028-0.035
						c0.138-0.181,0.286-0.414,0.424-0.68c0.739-1.386,1.423-3.702,0.821-4.502C263.918,402.199,263.589,401.981,262.936,402.245z
						 M262.69,406.963c-0.274-0.79-0.746-2.46-0.314-3.506c0.115-0.291,0.329-0.542,0.61-0.688l0.135-0.065
						c0.429-0.17,0.54-0.022,0.575,0.026C264.134,403.316,263.467,405.68,262.69,406.963z"/>
				</g>
				<polygon style="opacity:0.2;enable-background:new    ;" points="243.645,387.852 250.667,396.836 241.167,402.132 
					234.037,393.381 				"/>
				<path style="fill:#407BFF;" d="M249.543,391.87l-1.949,1.1l-0.008,0.008l-3.347,1.891l-3.006,1.683l-0.009,0.008l-3.081,1.742
					l0,0.008l-1.182,0.667c0,0-0.267-0.192-0.741-0.541c-0.183-0.125-0.392-0.275-0.633-0.458c-0.733-0.549-1.758-1.315-2.949-2.264
					c0,0,0,0,0-0.008c-6.206-4.903-17.26-14.544-20.553-23.312c-2.123,2.533-4.603,5.771-7.584,9.23
					c-23.187,26.909-47.94,45.873-81.942,37.701c-14.767-3.549-14.206-24.017-14.206-24.017c-0.001-7.733,5.724-15.678,5.724-15.678
					l45.237,3.507c6.252-7.597,18.798-19.502,31.629-27.01c0.3-0.192,0.608-0.367,0.916-0.533c0.383-0.225,0.766-0.433,1.149-0.642
					c4.172-2.283,8.343-4.059,12.299-5.017c0.883-0.209,1.749-0.392,2.606-0.517c0.899-0.142,1.782-0.217,2.657-0.259v0.008
					c6.079-0.277,11.36,1.978,14.943,8.048l23.363,33.688L249.543,391.87z"/>
				<path style="opacity:0.5;" d="M249.543,391.87l-1.949,1.1l-0.008,0.008l-3.347,1.891l-3.006,1.683l-0.009,0.008l-3.081,1.742
					l0,0.008l-1.182,0.667c0,0-0.267-0.192-0.741-0.541c-0.183-0.125-0.392-0.275-0.633-0.458c-0.733-0.549-1.758-1.315-2.949-2.264
					c0,0,0,0,0-0.008c-6.206-4.903-17.26-14.544-20.553-23.312c-2.123,2.533-4.603,5.771-7.584,9.23
					c-23.187,26.909-47.94,45.873-81.942,37.701c-14.767-3.549-14.206-24.017-14.206-24.017c-0.001-7.733,5.724-15.678,5.724-15.678
					l45.237,3.507c6.252-7.597,18.798-19.502,31.629-27.01c0.3-0.192,0.608-0.367,0.916-0.533c0.383-0.225,0.766-0.433,1.149-0.642
					c4.172-2.283,8.343-4.059,12.299-5.017c0.883-0.209,1.749-0.392,2.606-0.517c0.899-0.142,1.782-0.217,2.657-0.259v0.008
					c6.079-0.277,11.36,1.978,14.943,8.048l23.363,33.688L249.543,391.87z"/>
				<g>
					<polygon style="fill:#407BFF;" points="235.079,401.1 250.016,393.628 248.737,388.318 231.712,396.094 					"/>
				</g>
				<path style="fill:#263238;" d="M258.752,406.926l-10.298,3.124c-0.406,0.11-0.67,0.5-0.62,0.917l1.244,9.343
					c0.156,0.922,1.03,1.543,1.952,1.387c0.06-0.01,0.119-0.024,0.177-0.04c17.207-2.869,22.882-6.029,24.734-6.656
					c5.284-1.79,3.173-5.686,1.296-5.573c-8.424,0.525-11.05-0.45-14.391-1.962C261.048,406.85,259.371,406.743,258.752,406.926z"/>
				<g>
					<path style="fill:#263238;" d="M207.064,358.104h-32.017c-0.908,0-1.58-0.736-1.501-1.645l1.791-20.468
						c0.079-0.908,0.88-1.645,1.789-1.645h32.017c0.908,0,1.58,0.736,1.501,1.645l-1.791,20.468
						C208.773,357.368,207.972,358.104,207.064,358.104z"/>
					<polygon style="opacity:0.9;fill:#FFFFFF;" points="207.07,356.492 176.384,356.492 178.186,335.895 208.872,335.895 					"/>
				</g>
				<g>
					<g id="Monitor_Screen_1_">
						<g id="_x3C_Group_x3E__2_">
						</g>
					</g>
					<path style="opacity:0.4;" d="M176.834,345.318c0,0.501-0.406,0.907-0.907,0.907s-0.907-0.406-0.907-0.907
						c0-0.501,0.406-0.907,0.907-0.907S176.834,344.817,176.834,345.318z"/>
					<path style="opacity:0.4;" d="M209.403,344.865c0,0.25-0.203,0.454-0.453,0.454c-0.251,0-0.454-0.203-0.454-0.454
						c0-0.251,0.203-0.454,0.454-0.454C209.2,344.411,209.403,344.614,209.403,344.865z"/>
				</g>
				<g>
					<path style="fill:#CB7A63;" d="M131.535,298.953c1.15,6.261-0.514,14.642-4.93,18.759c4.963,9.501,12.476,18.693,19.487,26.801
						c9.918-15.919,1.41-26.274,1.41-26.274c-6.952-1.746-6.74-4.565-5.47-9.389L131.535,298.953z"/>
					<path style="fill:#407BFF;" d="M126.945,315.046c0.726-1.605,1.97-2.92,3.533-3.733c1.526-0.889,15.96,0.778,19.551,2.481
						c2.102,0.971,3.778,2.676,4.714,4.794L126.945,315.046z"/>
					<g>
						<g>
							<path style="fill:#CB7A63;" d="M167.732,293.798l6.436,2.991c0,0,0.928,2.915,0.543,5.211
								c-0.37,2.203-1.365,2.935-4.957,1.412l0,0C166.471,299.325,167.732,293.798,167.732,293.798z"/>
							<path style="fill:#CB7A63;" d="M172.018,289.725l0.723,1.548l1.245,0.768c0.689,0.417,1.029,1.238,0.835,2.02l-0.669,2.757
								l-6.436-2.991l1.229-2.43c1.119-1.709,2.037-2.193,2.936-1.747C171.927,289.673,171.973,289.698,172.018,289.725z"/>
							<path style="fill:#CB7A63;" d="M165.168,329.923c3.69-8.093,5.238-11.88,9.258-26.849l-5.331-0.605
								c-5.356,14.312-11.497,20.384-11.497,20.384s-30.122-5.07-33.859-3.306c-6.059,2.861-2.819,9.111,0.961,10.693
								c3.761,1.574,25.392,5.125,35.375,3.896C162.438,333.845,164.18,332.09,165.168,329.923z"/>
						</g>
						<g style="opacity:0.2;enable-background:new    ;">
							<polygon points="188.374,296.259 188.346,296.283 188.342,296.267 							"/>
						</g>
					</g>
					<g>
						<path style="fill:#407BFF;" d="M165.616,330.061c6.064,19.591-14.108,22.413-9.025,53.923l-42.512-4.353
							c2.348-16.246,7.691-12.013,3.942-43.591c-0.317-2.674-0.449-10.248,3.172-16.671c1.409-2.499,3.612-4.494,6.288-5.53
							c3.344-1.295,16.959,1.773,23.196,2.994C157.608,316.732,164.667,327.585,165.616,330.061z"/>
					</g>
					<path style="fill:#263238;" d="M156.711,292.391c-0.406,0.722-0.326,1.462,0.126,1.71c0.452,0.248,1.133-0.103,1.522-0.797
						c0.388-0.694,0.326-1.462-0.126-1.71C157.781,291.346,157.094,291.702,156.711,292.391z"/>
					<path style="fill:#263238;" d="M158.011,291.521l1.929,0.44C159.94,291.96,158.362,292.789,158.011,291.521z"/>
					<path style="fill:#A02724;" d="M156.826,293.858c0,0,0.71,3.597,1.884,5.471c-1.207,0.775-2.88,0.015-2.88,0.015
						L156.826,293.858z"/>
					<path style="fill:#263238;" d="M159.749,287.388c0.156-0.055,0.27-0.189,0.302-0.351c0.044-0.253-0.121-0.495-0.373-0.546
						c-1.469-0.311-2.998,0.112-4.098,1.134c-0.195,0.168-0.217,0.463-0.049,0.658c0.168,0.195,0.463,0.217,0.658,0.049
						c0.023-0.02,0.044-0.042,0.063-0.065c0.884-0.79,2.094-1.108,3.253-0.856C159.587,287.426,159.672,287.418,159.749,287.388z"/>
					<path style="fill:#CB7A63;" d="M131.118,285.405c-1.145,9.693-1.844,13.771,2.103,19.572
						c5.942,8.726,18.119,8.036,22.125-1.128c3.628-8.246,4.9-22.712-3.787-28.229c-6.19-3.975-14.43-2.18-18.405,4.01
						C132.036,281.371,131.339,283.348,131.118,285.405z"/>
					<path style="fill:#263238;" d="M155.593,303.267c-0.712-0.648-1.245-1.486-1.53-2.434c-0.023-0.104,0.04-0.212,0.148-0.243
						c0.104-0.023,0.213,0.04,0.236,0.144c0.265,0.818,0.717,1.541,1.309,2.13L155.593,303.267z"/>
					<path style="fill:#263238;" d="M162.723,282.254c0.007,1.999-1.58,4.021-3.579,4.053c-1.307,3.521-4.906,8.896-8.065,6.866
						c1.841-0.061,5.204-4.237,2.362-7.49c-2.084-2.385-4.906-8.629,0.027-10.166C157.232,274.344,162.709,278.413,162.723,282.254z
						"/>
					<path style="fill:#263238;" d="M154.23,278.301c-1.371-5.667-9.54-10.087-15.368-9.913c-5.828,0.174-11.186,3.373-15.459,7.341
						c-2.22,2.061-4.29,4.465-5.082,7.389c-0.793,2.924,0.013,6.456,2.557,8.101c-9.294,9.175-2.372,12.888-0.966,12.263
						c0.196,2.294-1.367,3.66-3.483,5.17c-1.874,1.337-2.343,2.93-2.984,5.142c-0.641,2.211-0.046,5.004,2.013,6.034
						c-0.496-1.6,0.102-3.007,1.685-3.554c-0.984,2.287-0.424,5.152,1.35,6.899c1.774,1.748,4.646,2.266,6.919,1.248
						c-0.921-0.232-2.213-1.135-2.354-2.074c2.689,0.997,5.434,2.006,8.3,2.119c2.866,0.114,5.925-0.816,7.693-3.074
						c0.111-1.642,2.329-3.279,3.974-3.224c1.645,0.055,3.105,1.563,3.107,3.208c1.817-0.395,2.572-2.403,2.673-4.259
						c0.053-0.979-0.27-1.955-0.847-2.746c-0.622-0.854-1.653-1.2-2.7-1.347c-0.751-0.105-1.76-1.015-2.082-1.664
						c-0.43-0.865-0.111-1.927,0.443-2.718c7.235-10.324,3.822-16.746,4.303-17.999c0.481-1.253,2.799,0.356,2.799,0.356
						C152.795,288.309,155.029,281.603,154.23,278.301z"/>
					<path style="fill:#CB7A63;" d="M143.499,292.478c-0.183,2.246,0.533,4.474,1.992,6.192c1.95,2.271,4.575,0.924,5.41-1.785
						c0.761-2.428,0.648-6.537-1.967-7.814C146.318,287.795,143.739,289.742,143.499,292.478z"/>
					<path style="fill:#407BFF;" d="M114.108,376.346l-1.464,3.719c-0.184,0.286,0.144,0.62,0.629,0.669l43.775,4.498
						c0.384,0.033,0.718-0.12,0.768-0.36l-0.582-4.168c0.063-0.255-0.257-0.516-0.673-0.558l-41.713-4.045
						C114.576,376.046,114.294,376.139,114.108,376.346z"/>
					<path style="fill:#263238;" d="M152.449,385.117l-1.161-0.024c-0.226-0.035-0.409-0.123-0.387-0.265l0.608-4.968
						c0.022-0.142,0.219-0.257,0.45-0.256l1.162,0.016c0.226,0.035,0.409,0.123,0.386,0.273l-0.607,4.959
						C152.877,385.003,152.68,385.119,152.449,385.117z"/>
					<g>
						<path style="fill:#407BFF;" d="M136.803,383.339l-1.161-0.024c-0.226-0.035-0.401-0.121-0.387-0.265l0.617-4.967
							c0.022-0.142,0.219-0.257,0.45-0.256l1.154,0.014c0.226,0.035,0.409,0.123,0.386,0.273l-0.607,4.959
							C137.238,383.243,137.034,383.34,136.803,383.339z"/>
						<path style="fill:#263238;" d="M136.803,383.339l-1.161-0.024c-0.226-0.035-0.401-0.121-0.387-0.265l0.617-4.967
							c0.022-0.142,0.219-0.257,0.45-0.256l1.154,0.014c0.226,0.035,0.409,0.123,0.386,0.273l-0.607,4.959
							C137.238,383.243,137.034,383.34,136.803,383.339z"/>
					</g>
					<path style="opacity:0.2;" d="M147.237,328.65c0,0-2.883,4.374,2.165,17.531l2.127,5.373l0,0
						c0.701,1.772,7.184-0.836,9.384-3.714l0,0C160.913,347.84,150.21,339.425,147.237,328.65z"/>
					<g>
						<path style="fill:#CB7A63;" d="M197.301,355.002l7.881-4.729l-0.062,7.21c0,0-6.035,4.925-8.661,1.016
							C196.458,358.501,195.568,355.743,197.301,355.002z"/>
						<path style="fill:#CB7A63;" d="M210.751,352.577l-0.334,2.628c-0.096,0.812-0.713,1.465-1.518,1.607l-3.813,0.668l0.062-7.21
							l3.835,0.239c1.018,0.035,1.816,0.889,1.781,1.908C210.762,352.47,210.757,352.523,210.751,352.577z"/>
						<path style="fill:#CB7A63;" d="M161.05,359.64c2.66,4.762,6.714,8.973,11.893,10.685c6.101,2.017,20.14-5.925,26.519-10.937
							c0.022-2.454-0.53-3.123-2.898-3.765c0,0-6.79,3.767-18.856,5.016c-3.897,0.403-5.931-3.788-8.519-9.839
							c-1.29-3.017-6.292-21.124-7.973-23.942c-2.701-4.529-12.25-2.736-9.864,7.634C152.355,338.856,158.875,355.746,161.05,359.64
							z"/>
					</g>
					<g>
						<path style="fill:#407BFF;" d="M162.362,323.496c5.755,6.804,7.582,17.781,7.582,17.781l-16.379,7.341
							c0,0-9.145-17.01-6.469-22.195c2.101-4.025,5.352-6.421,9.191-6.176C158.668,320.399,160.821,321.675,162.362,323.496z"/>
					</g>
					<path style="fill:#263238;" d="M119.549,381.763l-1.156-0.119c-0.222-0.055-0.397-0.159-0.361-0.306l1.045-4.886
						c0.036-0.148,0.243-0.245,0.473-0.224l1.156,0.119c0.222,0.055,0.395,0.167,0.361,0.307l-1.047,4.894
						C119.984,381.696,119.771,381.818,119.549,381.763z"/>
					<line style="fill:none;stroke:#263238;stroke-miterlimit:10;" x1="114.848" y1="376.101" x2="156.562" y2="380.145"/>
				</g>
			</g>
		</g>
	</g>
</g>
</svg>
