<?xml version="1.0" encoding="utf-8"?>
<!-- Generator: Adobe Illustrator 27.5.0, SVG Export Plug-In . SVG Version: 6.00 Build 0)  -->
<svg version="1.1" xmlns="http://www.w3.org/2000/svg" xmlns:xlink="http://www.w3.org/1999/xlink" x="0px" y="0px"
	 viewBox="0 0 500 500" style="enable-background:new 0 0 500 500;" xml:space="preserve">
<g id="Background_Complete">
	<rect x="416.779" y="398.494" style="fill:#EBEBEB;" width="33.122" height="0.25"/>
	<rect x="322.527" y="401.208" style="fill:#EBEBEB;" width="8.693" height="0.25"/>
	<rect x="396.586" y="389.208" style="fill:#EBEBEB;" width="19.192" height="0.25"/>
	<rect x="52.459" y="390.888" style="fill:#EBEBEB;" width="43.193" height="0.25"/>
	<rect x="104.556" y="390.888" style="fill:#EBEBEB;" width="6.333" height="0.25"/>
	<rect x="131.471" y="395.111" style="fill:#EBEBEB;" width="93.676" height="0.25"/>
	<g>
		<path style="fill:#EBEBEB;" d="M238.401,337.8H45.302c-3.147,0-5.708-2.561-5.708-5.708V60.66c0-3.147,2.561-5.708,5.708-5.708
			h193.099c3.146,0,5.707,2.561,5.707,5.708v271.432C244.108,335.239,241.547,337.8,238.401,337.8z M45.302,55.203
			c-3.01,0-5.458,2.448-5.458,5.458v271.432c0,3.01,2.448,5.458,5.458,5.458h193.099c3.009,0,5.457-2.448,5.457-5.458V60.66
			c0-3.009-2.448-5.458-5.457-5.458H45.302z"/>
		<path style="fill:#EBEBEB;" d="M454.698,337.8H261.599c-3.146,0-5.707-2.561-5.707-5.708V60.66c0-3.147,2.561-5.708,5.707-5.708
			h193.099c3.148,0,5.708,2.561,5.708,5.708v271.432C460.406,335.239,457.845,337.8,454.698,337.8z M261.599,55.203
			c-3.009,0-5.457,2.448-5.457,5.458v271.432c0,3.01,2.448,5.458,5.457,5.458h193.099c3.01,0,5.458-2.448,5.458-5.458V60.66
			c0-3.009-2.448-5.458-5.458-5.458H261.599z"/>
	</g>
	<rect y="382.398" style="fill:#EBEBEB;" width="500" height="0.25"/>
	<g>
		
			<rect x="153.02" y="256.673" transform="matrix(-1 -1.224647e-16 1.224647e-16 -1 348.2634 637.1513)" style="fill:#EBEBEB;" width="42.224" height="123.804"/>
		<g>
			
				<rect x="189.924" y="140.767" transform="matrix(-1 -1.224647e-16 1.224647e-16 -1 422.0719 521.2449)" style="fill:#F5F5F5;" width="42.224" height="239.711"/>
			<g>
				
					<rect x="220.406" y="164.301" transform="matrix(-1 -1.224647e-16 1.224647e-16 -1 445.1328 334.0979)" style="fill:#FFFFFF;" width="4.321" height="5.497"/>
				
					<rect x="197.345" y="164.301" transform="matrix(-1 -1.224647e-16 1.224647e-16 -1 399.0111 334.0979)" style="fill:#FFFFFF;" width="4.321" height="5.497"/>
				
					<rect x="220.406" y="182.109" transform="matrix(-1 -1.224647e-16 1.224647e-16 -1 445.1328 369.7144)" style="fill:#FFFFFF;" width="4.321" height="5.496"/>
				
					<rect x="208.875" y="182.109" transform="matrix(-1 -1.224647e-16 1.224647e-16 -1 422.0719 369.7144)" style="fill:#FFFFFF;" width="4.321" height="5.496"/>
				
					<rect x="197.345" y="199.917" transform="matrix(-1 -1.224647e-16 1.224647e-16 -1 399.0111 405.3309)" style="fill:#FFFFFF;" width="4.321" height="5.497"/>
				
					<rect x="220.406" y="217.725" transform="matrix(-1 -1.224647e-16 1.224647e-16 -1 445.1328 440.9473)" style="fill:#FFFFFF;" width="4.321" height="5.497"/>
				
					<rect x="208.875" y="217.725" transform="matrix(-1 -1.224647e-16 1.224647e-16 -1 422.0719 440.9473)" style="fill:#FFFFFF;" width="4.321" height="5.497"/>
				
					<rect x="208.875" y="235.534" transform="matrix(-1 -1.224647e-16 1.224647e-16 -1 422.0719 476.5637)" style="fill:#FFFFFF;" width="4.321" height="5.497"/>
				
					<rect x="197.345" y="235.534" transform="matrix(-1 -1.224647e-16 1.224647e-16 -1 399.0111 476.5637)" style="fill:#FFFFFF;" width="4.321" height="5.497"/>
				
					<rect x="208.875" y="253.342" transform="matrix(-1 -1.224647e-16 1.224647e-16 -1 422.0719 512.1801)" style="fill:#FFFFFF;" width="4.321" height="5.496"/>
				
					<rect x="197.345" y="253.342" transform="matrix(-1 -1.224647e-16 1.224647e-16 -1 399.0111 512.1801)" style="fill:#FFFFFF;" width="4.321" height="5.496"/>
				
					<rect x="197.345" y="271.15" transform="matrix(-1 -1.224647e-16 1.224647e-16 -1 399.0111 547.7966)" style="fill:#FFFFFF;" width="4.321" height="5.496"/>
				
					<rect x="208.875" y="288.958" transform="matrix(-1 -1.224647e-16 1.224647e-16 -1 422.0719 583.413)" style="fill:#FFFFFF;" width="4.321" height="5.496"/>
			</g>
		</g>
		<g>
			
				<rect x="109.746" y="157.874" transform="matrix(-1 -1.224647e-16 1.224647e-16 -1 266.38 538.352)" style="fill:#F5F5F5;" width="46.888" height="222.604"/>
			<rect x="109.746" y="169.797" style="fill:#E6E6E6;" width="46.888" height="4.582"/>
			<rect x="109.746" y="182.566" style="fill:#E6E6E6;" width="46.888" height="4.582"/>
			<rect x="109.746" y="195.336" style="fill:#E6E6E6;" width="46.888" height="4.582"/>
			<rect x="109.746" y="208.105" style="fill:#E6E6E6;" width="46.888" height="4.582"/>
			<rect x="109.746" y="220.874" style="fill:#E6E6E6;" width="46.888" height="4.582"/>
			<rect x="109.746" y="233.643" style="fill:#E6E6E6;" width="46.888" height="4.582"/>
			<rect x="109.746" y="246.412" style="fill:#E6E6E6;" width="46.888" height="4.582"/>
			<rect x="109.746" y="259.182" style="fill:#E6E6E6;" width="46.888" height="4.582"/>
			<rect x="109.746" y="271.951" style="fill:#E6E6E6;" width="46.888" height="4.582"/>
			<rect x="109.746" y="284.72" style="fill:#E6E6E6;" width="46.888" height="4.582"/>
			<rect x="109.746" y="297.489" style="fill:#E6E6E6;" width="46.888" height="4.582"/>
			<rect x="109.746" y="310.258" style="fill:#E6E6E6;" width="46.888" height="4.582"/>
			<rect x="109.746" y="323.028" style="fill:#E6E6E6;" width="46.888" height="4.582"/>
			<rect x="109.746" y="335.797" style="fill:#E6E6E6;" width="46.888" height="4.582"/>
			<rect x="109.746" y="348.566" style="fill:#E6E6E6;" width="46.888" height="4.582"/>
			<rect x="109.746" y="361.335" style="fill:#E6E6E6;" width="46.888" height="4.582"/>
		</g>
		
			<rect x="69.92" y="225.669" transform="matrix(-1 -1.224647e-16 1.224647e-16 -1 186.7277 606.1465)" style="fill:#F0F0F0;" width="46.888" height="154.809"/>
		<g>
			<rect x="79.673" y="235.534" style="fill:#FFFFFF;" width="4.321" height="5.497"/>
			<rect x="102.734" y="235.534" style="fill:#FFFFFF;" width="4.321" height="5.497"/>
			<rect x="79.673" y="253.342" style="fill:#FFFFFF;" width="4.321" height="5.496"/>
			<rect x="91.203" y="253.342" style="fill:#FFFFFF;" width="4.321" height="5.496"/>
			<rect x="102.734" y="271.15" style="fill:#FFFFFF;" width="4.321" height="5.496"/>
			<rect x="79.673" y="288.958" style="fill:#FFFFFF;" width="4.321" height="5.496"/>
			<rect x="91.203" y="288.958" style="fill:#FFFFFF;" width="4.321" height="5.496"/>
			<rect x="91.203" y="306.767" style="fill:#FFFFFF;" width="4.321" height="5.496"/>
			<rect x="102.734" y="306.767" style="fill:#FFFFFF;" width="4.321" height="5.496"/>
			<rect x="91.203" y="324.575" style="fill:#FFFFFF;" width="4.321" height="5.497"/>
			<rect x="102.734" y="324.575" style="fill:#FFFFFF;" width="4.321" height="5.497"/>
			<rect x="102.734" y="342.383" style="fill:#FFFFFF;" width="4.321" height="5.497"/>
			<rect x="91.203" y="360.191" style="fill:#FFFFFF;" width="4.321" height="5.496"/>
		</g>
	</g>
	<g>
		<g>
			
				<rect x="329.974" y="244.731" transform="matrix(-1 -1.224647e-16 1.224647e-16 -1 702.8915 625.2087)" style="fill:#E0E0E0;" width="42.944" height="135.747"/>
		</g>
		
			<rect x="408.075" y="304.98" transform="matrix(-1 -1.224647e-16 1.224647e-16 -1 854.822 685.4579)" style="fill:#EBEBEB;" width="38.672" height="75.498"/>
		
			<rect x="372.918" y="234.299" transform="matrix(-1 -1.224647e-16 1.224647e-16 -1 784.5076 614.7765)" style="fill:#F5F5F5;" width="38.672" height="146.179"/>
		<g>
			
				<rect x="400.836" y="248.65" transform="matrix(-1 -1.224647e-16 1.224647e-16 -1 805.6287 500.6515)" style="fill:#FFFFFF;" width="3.957" height="3.352"/>
			
				<rect x="379.714" y="248.65" transform="matrix(-1 -1.224647e-16 1.224647e-16 -1 763.3863 500.6515)" style="fill:#FFFFFF;" width="3.957" height="3.352"/>
			
				<rect x="400.836" y="259.51" transform="matrix(-1 -1.224647e-16 1.224647e-16 -1 805.6287 522.371)" style="fill:#FFFFFF;" width="3.957" height="3.352"/>
			
				<rect x="390.275" y="259.51" transform="matrix(-1 -1.224647e-16 1.224647e-16 -1 784.5075 522.371)" style="fill:#FFFFFF;" width="3.957" height="3.352"/>
			
				<rect x="379.714" y="270.369" transform="matrix(-1 -1.224647e-16 1.224647e-16 -1 763.3863 544.0904)" style="fill:#FFFFFF;" width="3.957" height="3.352"/>
			
				<rect x="400.836" y="281.229" transform="matrix(-1 -1.224647e-16 1.224647e-16 -1 805.6287 565.8098)" style="fill:#FFFFFF;" width="3.957" height="3.352"/>
			
				<rect x="390.275" y="281.229" transform="matrix(-1 -1.224647e-16 1.224647e-16 -1 784.5075 565.8098)" style="fill:#FFFFFF;" width="3.957" height="3.352"/>
			
				<rect x="390.275" y="292.089" transform="matrix(-1 -1.224647e-16 1.224647e-16 -1 784.5075 587.5292)" style="fill:#FFFFFF;" width="3.957" height="3.352"/>
			
				<rect x="379.714" y="292.089" transform="matrix(-1 -1.224647e-16 1.224647e-16 -1 763.3863 587.5292)" style="fill:#FFFFFF;" width="3.957" height="3.352"/>
			
				<rect x="390.275" y="302.948" transform="matrix(-1 -1.224647e-16 1.224647e-16 -1 784.5075 609.2486)" style="fill:#FFFFFF;" width="3.957" height="3.352"/>
			
				<rect x="379.714" y="302.948" transform="matrix(-1 -1.224647e-16 1.224647e-16 -1 763.3863 609.2486)" style="fill:#FFFFFF;" width="3.957" height="3.352"/>
			
				<rect x="379.714" y="313.808" transform="matrix(-1 -1.224647e-16 1.224647e-16 -1 763.3863 630.9681)" style="fill:#FFFFFF;" width="3.957" height="3.352"/>
			
				<rect x="390.275" y="324.668" transform="matrix(-1 -1.224647e-16 1.224647e-16 -1 784.5075 652.6875)" style="fill:#FFFFFF;" width="3.957" height="3.352"/>
		</g>
		<g>
			
				<rect x="360.028" y="259.51" transform="matrix(-1 -1.224647e-16 1.224647e-16 -1 724.0126 522.371)" style="fill:#FFFFFF;" width="3.957" height="3.352"/>
			
				<rect x="338.906" y="259.51" transform="matrix(-1 -1.224647e-16 1.224647e-16 -1 681.7703 522.371)" style="fill:#FFFFFF;" width="3.957" height="3.352"/>
			
				<rect x="360.028" y="270.369" transform="matrix(-1 -1.224647e-16 1.224647e-16 -1 724.0126 544.0905)" style="fill:#FFFFFF;" width="3.957" height="3.352"/>
			
				<rect x="349.467" y="270.369" transform="matrix(-1 -1.224647e-16 1.224647e-16 -1 702.8914 544.0905)" style="fill:#FFFFFF;" width="3.958" height="3.352"/>
			
				<rect x="338.906" y="281.229" transform="matrix(-1 -1.224647e-16 1.224647e-16 -1 681.7703 565.81)" style="fill:#FFFFFF;" width="3.957" height="3.352"/>
			
				<rect x="360.028" y="292.089" transform="matrix(-1 -1.224647e-16 1.224647e-16 -1 724.0126 587.5293)" style="fill:#FFFFFF;" width="3.957" height="3.352"/>
			
				<rect x="349.467" y="292.089" transform="matrix(-1 -1.224647e-16 1.224647e-16 -1 702.8914 587.5293)" style="fill:#FFFFFF;" width="3.958" height="3.352"/>
			
				<rect x="349.467" y="302.948" transform="matrix(-1 -1.224647e-16 1.224647e-16 -1 702.8914 609.2487)" style="fill:#FFFFFF;" width="3.958" height="3.352"/>
			
				<rect x="338.906" y="302.948" transform="matrix(-1 -1.224647e-16 1.224647e-16 -1 681.7703 609.2487)" style="fill:#FFFFFF;" width="3.957" height="3.352"/>
			
				<rect x="349.467" y="313.808" transform="matrix(-1 -1.224647e-16 1.224647e-16 -1 702.8914 630.9682)" style="fill:#FFFFFF;" width="3.958" height="3.352"/>
			
				<rect x="338.906" y="313.808" transform="matrix(-1 -1.224647e-16 1.224647e-16 -1 681.7703 630.9682)" style="fill:#FFFFFF;" width="3.957" height="3.352"/>
			
				<rect x="338.906" y="324.668" transform="matrix(-1 -1.224647e-16 1.224647e-16 -1 681.7703 652.6876)" style="fill:#FFFFFF;" width="3.957" height="3.352"/>
			
				<rect x="349.467" y="335.528" transform="matrix(-1 -1.224647e-16 1.224647e-16 -1 702.8914 674.407)" style="fill:#FFFFFF;" width="3.958" height="3.352"/>
		</g>
		
			<rect x="293.497" y="286.073" transform="matrix(-1 -1.224647e-16 1.224647e-16 -1 629.9388 666.5507)" style="fill:#F0F0F0;" width="42.944" height="94.405"/>
		<g>
			<rect x="302.43" y="292.089" style="fill:#FFFFFF;" width="3.957" height="3.352"/>
			<rect x="323.551" y="292.089" style="fill:#FFFFFF;" width="3.957" height="3.352"/>
			<rect x="302.43" y="302.948" style="fill:#FFFFFF;" width="3.957" height="3.352"/>
			<rect x="312.991" y="302.948" style="fill:#FFFFFF;" width="3.957" height="3.352"/>
			<rect x="323.551" y="313.808" style="fill:#FFFFFF;" width="3.957" height="3.352"/>
			<rect x="302.43" y="324.668" style="fill:#FFFFFF;" width="3.957" height="3.352"/>
			<rect x="312.991" y="324.668" style="fill:#FFFFFF;" width="3.957" height="3.352"/>
			<rect x="312.991" y="335.528" style="fill:#FFFFFF;" width="3.957" height="3.352"/>
			<rect x="323.551" y="335.528" style="fill:#FFFFFF;" width="3.957" height="3.352"/>
			<rect x="312.991" y="346.387" style="fill:#FFFFFF;" width="3.957" height="3.352"/>
			<rect x="323.551" y="346.387" style="fill:#FFFFFF;" width="3.957" height="3.352"/>
			<rect x="323.551" y="357.247" style="fill:#FFFFFF;" width="3.957" height="3.352"/>
			<rect x="312.991" y="368.107" style="fill:#FFFFFF;" width="3.957" height="3.352"/>
		</g>
	</g>
	<g>
		<g>
			<path style="fill:#EBEBEB;" d="M279.439,380.478h-3.197c-1.326,0-2.401-1.075-2.401-2.401V187.617
				c0-1.326,1.075-2.401,2.401-2.401h3.197c1.326,0,2.401,1.075,2.401,2.401v190.459
				C281.84,379.403,280.765,380.478,279.439,380.478z"/>
		</g>
		<g>
			<path style="fill:#E0E0E0;" d="M411.368,180.609H300.344c-4.003,0-7.247-3.245-7.247-7.248V133.54
				c0-4.003,3.245-7.247,7.247-7.247h111.025c4.003,0,7.247,3.245,7.247,7.247v39.822
				C418.616,177.365,415.371,180.609,411.368,180.609z"/>
			<path style="fill:#F5F5F5;" d="M411.368,129.292H300.344c-2.342,0-4.247,1.905-4.247,4.248v39.822
				c0,2.342,1.905,4.247,4.247,4.247h111.024c2.342,0,4.248-1.905,4.248-4.247V133.54
				C415.616,131.198,413.711,129.292,411.368,129.292z"/>
		</g>
		<g>
			<path style="fill:#EBEBEB;" d="M280.34,195.418h-5v-63.703c0-9.277,7.52-16.797,16.797-16.797h122.244c1.381,0,2.5,1.119,2.5,2.5
				l0,0c0,1.381-1.119,2.5-2.5,2.5H292.137c-6.516,0-11.797,5.282-11.797,11.797V195.418z"/>
		</g>
		<g>
			<rect x="355.812" y="117.417" style="fill:#EBEBEB;" width="2.532" height="11.875"/>
			<g>
				<rect x="301.512" y="117.417" style="fill:#EBEBEB;" width="2.532" height="11.875"/>
				<rect x="410.112" y="117.417" style="fill:#EBEBEB;" width="2.532" height="11.875"/>
			</g>
		</g>
		<g>
			<g>
				<path style="fill:#E0E0E0;" d="M322.347,166.971h-4.431v-10.29c0-1.083-0.422-2.102-1.188-2.868l-6.571-6.571l3.133-3.133
					l6.571,6.571c1.603,1.603,2.486,3.734,2.486,6.001V166.971z"/>
			</g>
			<polygon style="fill:#E0E0E0;" points="308.682,151.729 306.497,139.931 318.295,142.116 			"/>
		</g>
		<g>
			<g>
				<path style="fill:#E0E0E0;" d="M387.542,166.971h4.431v-10.29c0-1.083,0.422-2.102,1.188-2.868l6.571-6.571l-3.133-3.133
					l-6.571,6.571c-1.603,1.603-2.486,3.734-2.486,6.001V166.971z"/>
			</g>
			<polygon style="fill:#E0E0E0;" points="401.207,151.729 403.392,139.931 391.595,142.116 			"/>
		</g>
		<polygon style="fill:#E0E0E0;" points="361.742,150.216 354.944,140.329 348.147,150.216 352.729,150.216 352.729,166.934 
			357.16,166.934 357.16,150.216 		"/>
	</g>
	<g>
		<path style="fill:#E0E0E0;" d="M65.943,383.165H39.844v-3.906c0-1.985,1.609-3.594,3.594-3.594h18.911
			c1.985,0,3.594,1.609,3.594,3.594V383.165z"/>
		<path style="fill:#F5F5F5;" d="M92.043,383.165H65.943v-3.906c0-1.985,1.609-3.594,3.594-3.594h18.911
			c1.985,0,3.594,1.609,3.594,3.594V383.165z"/>
		<path style="fill:#E0E0E0;" d="M118.142,383.165H92.043v-3.906c0-1.985,1.609-3.594,3.594-3.594h18.911
			c1.985,0,3.594,1.609,3.594,3.594V383.165z"/>
		<path style="fill:#F5F5F5;" d="M144.241,383.165h-26.099v-3.906c0-1.985,1.609-3.594,3.594-3.594h18.911
			c1.985,0,3.594,1.609,3.594,3.594V383.165z"/>
		<path style="fill:#E0E0E0;" d="M170.341,383.165h-26.099v-3.906c0-1.985,1.609-3.594,3.594-3.594h18.911
			c1.985,0,3.594,1.609,3.594,3.594V383.165z"/>
		<path style="fill:#F5F5F5;" d="M196.44,383.165h-26.099v-3.906c0-1.985,1.609-3.594,3.594-3.594h18.911
			c1.985,0,3.594,1.609,3.594,3.594V383.165z"/>
		<path style="fill:#E0E0E0;" d="M222.539,383.165H196.44v-3.906c0-1.985,1.609-3.594,3.594-3.594h18.911
			c1.985,0,3.594,1.609,3.594,3.594V383.165z"/>
		<path style="fill:#F5F5F5;" d="M248.639,383.165h-26.099v-3.906c0-1.985,1.609-3.594,3.594-3.594h18.911
			c1.985,0,3.594,1.609,3.594,3.594V383.165z"/>
		<path style="fill:#E0E0E0;" d="M274.738,383.165h-26.099v-3.906c0-1.985,1.609-3.594,3.594-3.594h18.911
			c1.985,0,3.594,1.609,3.594,3.594V383.165z"/>
		<path style="fill:#F5F5F5;" d="M300.837,383.165h-26.099v-3.906c0-1.985,1.609-3.594,3.594-3.594h18.911
			c1.985,0,3.594,1.609,3.594,3.594V383.165z"/>
		<path style="fill:#E0E0E0;" d="M326.936,383.165h-26.099v-3.906c0-1.985,1.609-3.594,3.594-3.594h18.911
			c1.985,0,3.594,1.609,3.594,3.594V383.165z"/>
		<path style="fill:#F5F5F5;" d="M353.036,383.165h-26.099v-3.906c0-1.985,1.609-3.594,3.594-3.594h18.911
			c1.985,0,3.594,1.609,3.594,3.594V383.165z"/>
		<path style="fill:#E0E0E0;" d="M379.135,383.165h-26.099v-3.906c0-1.985,1.609-3.594,3.594-3.594h18.911
			c1.985,0,3.594,1.609,3.594,3.594V383.165z"/>
		<path style="fill:#F5F5F5;" d="M405.234,383.165h-26.099v-3.906c0-1.985,1.609-3.594,3.594-3.594h18.911
			c1.985,0,3.594,1.609,3.594,3.594V383.165z"/>
		<path style="fill:#E0E0E0;" d="M431.333,383.165h-26.099v-3.906c0-1.985,1.609-3.594,3.594-3.594h18.911
			c1.985,0,3.594,1.609,3.594,3.594V383.165z"/>
		<path style="fill:#F5F5F5;" d="M457.433,383.165h-26.099v-3.906c0-1.985,1.609-3.594,3.594-3.594h18.911
			c1.985,0,3.594,1.609,3.594,3.594V383.165z"/>
	</g>
	<path style="fill:#F5F5F5;" d="M342.759,105.026c0,2.557,19.939,0,42.773,0c22.835,0,17.597-14.674,13.688-16.954
		c-4.161-2.427-9.567,0-9.567,0s1.849-8.511-5.464-10.179c-6.043-1.379-9.32,6.362-9.32,6.362s-3.085-5.196-8.568-3.393
		c-5.699,1.873-3.801,8.561-6.081,10.592c-2.385,2.126-12.523,1.495-12.523,3.086c0,2.186,8.579,1.697,8.579,3.075
		c0,2.651-21.621,0-21.621,3.087c0,2.639,19.438-0.118,19.438,1.791C354.094,103.871,342.759,103.341,342.759,105.026z"/>
	<path style="fill:#F5F5F5;" d="M146.092,121.277c0,3.24,25.266,0,54.202,0s22.299-18.595,17.346-21.483
		c-5.273-3.075-12.124,0-12.124,0s2.342-10.785-6.923-12.899c-7.657-1.747-11.81,8.062-11.81,8.062s-3.909-6.584-10.857-4.3
		c-7.221,2.374-4.817,10.848-7.705,13.423c-3.023,2.694-15.869,1.895-15.869,3.91c0,2.77,10.871,2.15,10.871,3.897
		c0,3.359-27.398,0-27.398,3.912c0,3.344,24.632-0.149,24.632,2.269C160.455,119.814,146.092,119.142,146.092,121.277z"/>
	<path style="fill:#F5F5F5;" d="M73.294,121.686c0,2.319,18.086,0,38.798,0s15.962-13.31,12.416-15.378
		c-3.774-2.201-8.678,0-8.678,0s1.677-7.72-4.956-9.233c-5.481-1.25-8.454,5.771-8.454,5.771s-2.798-4.713-7.772-3.078
		c-5.169,1.699-3.448,7.765-5.515,9.608c-2.164,1.928-11.359,1.356-11.359,2.799c0,1.983,7.781,1.539,7.781,2.789
		c0,2.405-19.612,0-19.612,2.8c0,2.394,17.632-0.107,17.632,1.624C83.575,120.639,73.294,120.158,73.294,121.686z"/>
</g>
<g id="Background_Simple" style="display:none;">
	<g style="display:inline;">
		<path style="fill:#407BFF;" d="M66.855,196.481c6.57-16.784,29.488-50.705,71.858-38.385c49.176,14.3,58.811,58.547,88.35,54.207
			c36.304-5.333,52.663-92.428,120.639-83.597c64.363,8.362,103.849,83.234,91.992,135.63
			c-17.98,79.456-79.121,122.286-123.221,131.481c-63.425,13.224-203.333-47.798-238.014-102.523
			C51.883,251.36,55.349,225.876,66.855,196.481z"/>
		<path style="opacity:0.9;fill:#FFFFFF;" d="M66.855,196.481c6.57-16.784,29.488-50.705,71.858-38.385
			c49.176,14.3,58.811,58.547,88.35,54.207c36.304-5.333,52.663-92.428,120.639-83.597c64.363,8.362,103.849,83.234,91.992,135.63
			c-17.98,79.456-79.121,122.286-123.221,131.481c-63.425,13.224-203.333-47.798-238.014-102.523
			C51.883,251.36,55.349,225.876,66.855,196.481z"/>
	</g>
</g>
<g id="Shadow">
	<ellipse id="_x3C_Path_x3E__359_" style="fill:#F5F5F5;" cx="250" cy="415.693" rx="193.889" ry="11.323"/>
</g>
<g id="Crash">
	<g>
		<g>
			<polygon style="fill:#407BFF;" points="197.624,343.746 125.224,244.529 207.599,296.874 192.748,160.846 245.439,277.306 
				276.293,175.789 283.018,281.783 360.398,214.798 311.105,306.627 400.849,279.024 290.966,353.552 248.027,360.685 			"/>
			<polygon style="opacity:0.6;fill:#FFFFFF;" points="197.624,343.746 125.224,244.529 207.599,296.874 192.748,160.846 
				245.439,277.306 276.293,175.789 283.018,281.783 360.398,214.798 311.105,306.627 400.849,279.024 290.966,353.552 
				248.027,360.685 			"/>
			<polygon style="fill:#407BFF;" points="293.434,321.16 330.429,252.243 275.45,299.835 270.654,224.247 247.041,301.942 
				207.314,214.134 218.207,313.919 159.315,276.496 203.017,336.385 248.742,351.752 287.661,345.286 347.958,304.389 			"/>
		</g>
		<g>
			<polygon style="fill:#407BFF;" points="224.061,331.214 214.797,319.506 208.939,322.312 208.939,323.288 220.778,333.38 
				224.061,332.19 			"/>
			<polygon style="fill:#407BFF;" points="208.939,323.288 214.797,320.482 224.062,332.19 220.778,333.38 			"/>
			<polygon style="opacity:0.6;fill:#FFFFFF;" points="208.939,323.288 214.797,320.482 224.062,332.19 220.778,333.38 			"/>
		</g>
		<g>
			<polygon style="fill:#407BFF;" points="205.667,326.033 204.397,317.134 200.486,316.782 200.189,317.287 203.294,326.142 
				205.37,326.537 			"/>
			<polygon style="fill:#407BFF;" points="200.189,317.287 204.1,317.639 205.37,326.537 203.294,326.142 			"/>
			<polygon style="opacity:0.6;fill:#FFFFFF;" points="200.189,317.287 204.1,317.639 205.37,326.537 203.294,326.142 			"/>
		</g>
		<g>
			<polygon style="fill:#407BFF;" points="239.055,326.046 254.121,319.791 252.659,312.993 251.608,312.721 237.597,322.07 
				238.004,325.774 			"/>
			<polygon style="fill:#407BFF;" points="251.608,312.721 253.07,319.519 238.004,325.774 237.597,322.07 			"/>
			<polygon style="opacity:0.4;fill:#FFFFFF;" points="251.608,312.721 253.07,319.519 238.004,325.774 237.597,322.07 			"/>
		</g>
		<g>
			<polygon style="fill:#407BFF;" points="233.127,293.022 230.552,284.341 226.648,284.643 226.43,285.197 230.806,293.528 
				232.909,293.576 			"/>
			<polygon style="fill:#407BFF;" points="226.43,285.197 230.334,284.894 232.909,293.576 230.806,293.528 			"/>
			<polygon style="opacity:0.4;fill:#FFFFFF;" points="226.43,285.197 230.334,284.894 232.909,293.576 230.806,293.528 			"/>
		</g>
		<g>
			<polygon style="fill:#407BFF;" points="268.403,330.071 273.473,320.009 269.568,317.706 268.888,318.094 265.801,329.016 
				267.723,330.459 			"/>
			<polygon style="fill:#407BFF;" points="268.888,318.094 272.793,320.397 267.723,330.459 265.801,329.016 			"/>
			<polygon style="opacity:0.3;" points="268.888,318.094 272.793,320.397 267.723,330.459 265.801,329.016 			"/>
		</g>
		<g>
			<polygon style="fill:#407BFF;" points="257.316,315.108 257.44,305.866 261.471,304.478 261.849,304.904 259.806,314.588 
				257.694,315.534 			"/>
			<polygon style="fill:#407BFF;" points="261.849,304.904 257.819,306.292 257.694,315.534 259.806,314.588 			"/>
			<polygon style="opacity:0.3;" points="261.849,304.904 257.819,306.292 257.694,315.534 259.806,314.588 			"/>
		</g>
	</g>
</g>
<g id="Car_2">
	<g>
		<g>
			<path style="fill:#263238;" d="M449.372,333.142l-8.228,2.585c-1.21,0.38-2.498-0.293-2.878-1.502l-0.025-0.081l10.418-3.273
				c0.49-0.154,1.012,0.118,1.166,0.608l0.156,0.497C450.134,332.466,449.862,332.988,449.372,333.142z"/>
			<g>
				<g>
					<polygon style="fill:#263238;" points="261.207,391.227 307.073,379.077 297.145,364.848 278.434,358.494 268.095,361.742 
						260.118,372.927 260.229,384.518 					"/>
					<polygon style="fill:#263238;" points="385.533,354.428 428.634,338.629 430.709,334.73 425.258,325.166 408.326,318.441 
						393.687,320.857 383.484,337.16 383.574,351.823 					"/>
				</g>
				<g>
					<polygon points="261.207,391.227 307.073,379.077 297.145,364.848 278.434,358.494 268.095,361.742 260.118,372.927 
						260.229,384.518 					"/>
					<polygon points="385.533,354.428 428.634,338.629 430.709,334.73 425.258,325.166 408.326,318.441 393.687,320.857 
						383.484,337.16 383.574,351.823 					"/>
				</g>
			</g>
			<polygon style="fill:#407BFF;" points="247.421,373.302 253.533,381.575 254.455,390.101 253.11,398.598 255.165,397.952 
				259.865,393.744 258.244,378.199 252.217,371.795 			"/>
			<polygon style="opacity:0.6;" points="247.421,373.302 253.533,381.575 254.455,390.101 253.11,398.598 255.165,397.952 
				259.865,393.744 258.244,378.199 252.217,371.795 			"/>
			<g>
				<path style="fill:#407BFF;" d="M442.182,317.06l-9.398-9.205c-2.051-2.008-4.631-3.39-7.439-3.982l-34.919-19.898
					c-9.409-5.362-20.625-6.564-30.956-3.318l-49.727,15.622c-6.466,2.031-11.654,6.898-14.094,13.221l-9.14,23.687l-22.976,9.752
					c-10.891,4.622-17.938,15.337-17.868,27.168l1.757,3.196l8.323,4.929l1.223,11.081l-1.802,8.639l5.65-1.775
					c2.205-0.693,3.391-3.08,2.602-5.252c-0.176-0.486-0.336-0.981-0.478-1.487c-2.866-10.188,2.605-21.11,12.49-24.891
					c11.239-4.299,23.605,1.799,27.157,13.106l0.016,0.051c0.841,2.688,3.702,4.183,6.389,3.339l76.83-24.137
					c2.61-0.82,4.107-3.605,3.262-6.208c-0.087-0.268-0.169-0.539-0.246-0.812c-2.866-10.188,2.605-21.11,12.489-24.891
					c11.239-4.299,23.605,1.799,27.158,13.106c0.055,0.176,0.101,0.352,0.151,0.528l13.241-4.16
					c2.395-0.752,4.074-2.909,4.216-5.415l0.038-0.667c0.047-0.83-0.056-1.662-0.306-2.455l-1.889-6.014
					C443.594,318.836,442.992,317.854,442.182,317.06z"/>
				<path style="opacity:0.3;" d="M442.182,317.06l-9.398-9.205c-2.051-2.008-4.631-3.39-7.439-3.982l-34.919-19.898
					c-9.409-5.362-20.625-6.564-30.956-3.318l-49.727,15.622c-6.466,2.031-11.654,6.898-14.094,13.221l-9.14,23.687l-22.976,9.752
					c-10.891,4.622-17.938,15.337-17.868,27.168l1.757,3.196l8.323,4.929l1.223,11.081l-1.802,8.639l5.65-1.775
					c2.205-0.693,3.391-3.08,2.602-5.252c-0.176-0.486-0.336-0.981-0.478-1.487c-2.866-10.188,2.605-21.11,12.49-24.891
					c11.239-4.299,23.605,1.799,27.157,13.106l0.016,0.051c0.841,2.688,3.702,4.183,6.389,3.339l76.83-24.137
					c2.61-0.82,4.107-3.605,3.262-6.208c-0.087-0.268-0.169-0.539-0.246-0.812c-2.866-10.188,2.605-21.11,12.489-24.891
					c11.239-4.299,23.605,1.799,27.158,13.106c0.055,0.176,0.101,0.352,0.151,0.528l13.241-4.16
					c2.395-0.752,4.074-2.909,4.216-5.415l0.038-0.667c0.047-0.83-0.056-1.662-0.306-2.455l-1.889-6.014
					C443.594,318.836,442.992,317.854,442.182,317.06z"/>
			</g>
			<g style="opacity:0.2;">
				<path style="fill:#FFFFFF;" d="M306.712,376.356L306.712,376.356c-0.559,0.175-1.142-0.132-1.342-0.682
					c-4.305-11.86-17.276-18.355-29.429-14.537c-1.88,0.591-3.676,1.408-5.337,2.429c-1.53,0.943-3.426,0.871-4.828-0.148
					c0.03,0.515,0.138,1.201,0.215,1.68c0.29,1.828,0.618,3.9-1.021,4.464c-1.264,0.439-2-0.808-2.547-1.786
					c0.062,1.039,0.372,2.621,0.843,4.217c0.165,0.557-0.135,1.144-0.685,1.331l-0.006,0.002c-0.574,0.194-1.198-0.122-1.376-0.702
					c-1.012-3.298-1.608-6.969,0.357-7.839c1.126-0.507,1.884,0.462,2.414,1.352c-0.036-0.252-0.075-0.496-0.107-0.702
					c-0.287-1.809-0.612-3.859,0.959-4.48c0.623-0.246,1.329-0.046,2.077,0.605c0.708,0.616,1.742,0.683,2.577,0.172
					c1.812-1.114,3.77-2.006,5.82-2.649c13.258-4.165,27.408,2.922,32.102,15.861C307.608,375.526,307.304,376.17,306.712,376.356z
					 M265.209,362.984L265.209,362.984L265.209,362.984z"/>
			</g>
			<path style="opacity:0.6;" d="M245.665,370.106L245.665,370.106l2.674,1.457c0,0,6.977-22.546,17.868-27.169l22.976-9.751
				l-2.674-1.457l-22.976,9.752C252.641,347.56,245.595,358.275,245.665,370.106z"/>
			<g>
				<path style="fill:#407BFF;" d="M233.298,335.368L233.298,335.368l1.189,2.804c0,0,19.482-13.321,30.886-10.17l24.058,6.647
					l-1.189-2.804l-24.059-6.647C252.779,322.047,240.599,326.057,233.298,335.368z"/>
				<path style="opacity:0.3;" d="M233.298,335.368L233.298,335.368l1.189,2.804c0,0,19.482-13.321,30.886-10.17l24.058,6.647
					l-1.189-2.804l-24.059-6.647C252.779,322.047,240.599,326.057,233.298,335.368z"/>
			</g>
			<path style="opacity:0.6;" d="M259.335,363.065c0.908,2.891,0.504,5.592-0.903,6.034c-1.407,0.442-3.283-1.543-4.191-4.434
				c-0.908-2.891-0.504-5.592,0.903-6.034C256.55,358.189,258.427,360.174,259.335,363.065z"/>
			<path style="opacity:0.5;fill:#FFFFFF;" d="M255.61,358.576c-0.431,0.327-0.723,0.923-0.868,1.685l1.684,0.913l0.302,1.818
				l1.54,1.649l-1.954-1.268l-0.565-1.798l-1.11-0.055c0.01,0.874,0.164,1.859,0.481,2.869c0.811,2.581,2.393,4.435,3.725,4.489
				c1.062-0.805,1.3-3.231,0.489-5.813C258.524,360.483,256.941,358.629,255.61,358.576z"/>
			<g>
				<path style="fill:#263238;" d="M446.716,326.97l-11.537,3.625c-1.229,0.386-2.538-0.297-2.924-1.526l-0.342-1.089
					c-0.386-1.229,0.297-2.538,1.526-2.924l11.537-3.624c1.229-0.386,2.538,0.297,2.924,1.526l0.342,1.089
					C448.628,325.276,447.945,326.585,446.716,326.97z"/>
				<path style="opacity:0.4;fill:#FFFFFF;" d="M446.716,326.97l-11.537,3.625c-1.229,0.386-2.538-0.297-2.924-1.526l-0.342-1.089
					c-0.386-1.229,0.297-2.538,1.526-2.924l11.537-3.624c1.229-0.386,2.538,0.297,2.924,1.526l0.342,1.089
					C448.628,325.276,447.945,326.585,446.716,326.97z"/>
			</g>
			<g style="opacity:0.2;">
				<path style="fill:#FFFFFF;" d="M384.205,347.744l-0.028,0.004c-0.606,0.086-1.151-0.358-1.211-0.967
					c-1.197-12.167,6.236-23.485,18.022-27.187c11.262-3.538,23.598,1.097,29.768,11.042c0.314,0.507,0.126,1.177-0.394,1.469
					l-0.024,0.014c-0.504,0.284-1.131,0.106-1.437-0.385c-5.663-9.092-16.956-13.325-27.267-10.085
					c-10.804,3.394-17.617,13.766-16.524,24.917C385.167,347.141,384.777,347.663,384.205,347.744z"/>
			</g>
			<path style="fill:#263238;" d="M360.43,314.48l37.215-11.691c1.946-0.611,2.228-3.248,0.456-4.258l-12.513-7.13
				c-7.153-4.076-15.681-4.991-23.536-2.523l-10.164,3.193c-1.296,0.407-1.972,1.83-1.47,3.092l7.142,17.952
				C358.011,314.251,359.263,314.847,360.43,314.48z"/>
			<path style="fill:#263238;" d="M341.887,295.213l-29.561,9.287c-3.754,1.179-6.766,4.005-8.183,7.676l-7.032,18.222
				c-0.704,1.825,1.013,3.656,2.879,3.069l49.07-15.416c1.231-0.387,1.915-1.698,1.528-2.928l-5.775-18.382
				C344.429,295.51,343.118,294.826,341.887,295.213z"/>
			<path style="opacity:0.2;" d="M296.385,341.684l1.286,2.298l-0.475,3.655l1.637,2.628l-0.898,5.717l9.586,15.399
				c1.173,1.885,3.474,2.737,5.592,2.072l50.305-15.803c2.159-0.678,3.359-2.978,2.681-5.137l-9.38-29.859
				c-0.673-2.142-2.944-3.344-5.094-2.695l-52.92,15.978C296.274,336.671,295.145,339.467,296.385,341.684z"/>
			<polygon style="opacity:0.2;fill:#FFFFFF;" points="259.995,355.818 270.408,346.525 290.894,340.089 269.982,349.67 			"/>
			<polygon style="opacity:0.2;fill:#FFFFFF;" points="269.094,354.34 281.066,352.704 294.051,350.138 281.965,355.564 			"/>
			<polygon style="opacity:0.2;" points="263.214,356.187 271.135,357.839 267.252,359.059 			"/>
			<g>
				<path style="opacity:0.3;" d="M302.842,341.248l-3.141,2.096l3.512,0.786c0.904,0.202,1.522-0.889,0.885-1.56L302.842,341.248z"
					/>
				<path style="opacity:0.3;" d="M300.264,349.816l3.52-1.876c0.568-0.303,1.208,0.261,0.98,0.863l-0.44,1.159l1.38,2.714
					c0.345,0.679-0.492,1.341-1.073,0.848L300.264,349.816z"/>
			</g>
			<path style="fill:#263238;" d="M355.454,322.818c0.239,0.762-0.717,1.74-2.136,2.186c-1.419,0.446-8.93,2.127-9.169,1.365
				c-0.239-0.762,6.883-3.678,8.302-4.124C353.871,321.8,355.215,322.056,355.454,322.818z"/>
			<path style="opacity:0.4;fill:#FFFFFF;" d="M355.454,322.818c0.239,0.762-0.717,1.74-2.136,2.186
				c-1.419,0.446-8.93,2.127-9.169,1.365c-0.239-0.762,6.883-3.678,8.302-4.124C353.871,321.8,355.215,322.056,355.454,322.818z"/>
			<g>
				<path style="fill:#263238;" d="M299.261,311.261c0.659-1.699-0.261-3.596-2.023-4.062l-0.478-0.126
					c-0.415,0.782-0.789,1.591-1.112,2.427l-8.392,21.748l1.231,0.344c1.499,0.419,3.071-0.369,3.631-1.821l7.13-18.477
					C299.253,311.283,299.257,311.272,299.261,311.261z"/>
				<polygon style="opacity:0.2;fill:#FFFFFF;" points="291.935,325.898 290.664,323.851 293.495,323.589 291.137,322.958 
					294.985,319.232 292.074,321.15 295.399,317.157 294.399,316.969 297.104,313.799 293.314,317.31 294.004,317.658 
					291.731,319.653 288.86,327.093 289.745,329.911 289.405,326.631 290.584,325.194 291.49,326.478 291.992,328.076 				"/>
			</g>
			<g>
				<path style="opacity:0.4;" d="M430.495,312.292l5.03,5.221c1.392,1.444,0.778,3.848-1.135,4.449l-1.348,0.423l-9.216-9.567
					l3.915-1.23C428.718,311.282,429.784,311.554,430.495,312.292z"/>
				<polygon style="opacity:0.4;fill:#FFFFFF;" points="429.943,319.169 435.453,317.438 432.259,314.123 426.749,315.854 				"/>
			</g>
			<path style="opacity:0.2;" d="M360.574,321.443l1.31,4.168c0.3,0.955,1.318,1.486,2.273,1.186l48.795-15.329
				c1.23-0.386,2.203-1.414,2.376-2.691c0.18-1.334-0.441-2.585-1.603-3.247l-3.321-1.893c-1.936-1.103-4.247-1.338-6.365-0.646
				l-40.826,13.329C361.077,317.016,359.901,319.301,360.574,321.443z"/>
			<polygon style="opacity:0.2;fill:#FFFFFF;" points="301.255,329.808 301.05,326.36 304.907,326.947 302.921,323.074 
				313.651,325.534 310.355,324.03 313.143,322.121 308.6,323.235 303.822,321.098 304.982,318.609 312.023,317.957 
				311.467,316.187 315.387,316.084 310.448,314.742 310.655,317.195 306.204,316.209 310.502,310.719 302.478,316.493 
				302.478,316.493 298.692,326.304 			"/>
			<g>
				
					<ellipse transform="matrix(0.8811 -0.4729 0.4729 0.8811 -114.2281 234.2416)" style="fill:#263238;" cx="408.75" cy="344.3" rx="17.236" ry="17.236"/>
				
					<ellipse transform="matrix(0.4331 -0.9013 0.9013 0.4331 -78.6136 563.6072)" style="opacity:0.5;fill:#FFFFFF;" cx="408.751" cy="344.3" rx="10.959" ry="10.959"/>
				<path style="fill:#263238;" d="M411.182,343.536c0.422,1.343-0.325,2.773-1.667,3.195c-1.343,0.422-2.773-0.325-3.195-1.667
					c-0.422-1.343,0.325-2.773,1.667-3.195C409.329,341.447,410.76,342.193,411.182,343.536z"/>
				<g style="opacity:0.4;">
					<path d="M405.36,339.654l-0.28-4.198c-1.861,0.77-3.367,2.073-4.393,3.676l4.087,1.014
						C404.958,339.971,405.153,339.806,405.36,339.654z"/>
					<path d="M404.597,348.276c-0.176-0.184-0.341-0.378-0.492-0.586l-4.198,0.28c0.77,1.861,2.073,3.367,3.676,4.393
						L404.597,348.276z"/>
					<path d="M408.626,350.05c-0.257-0.006-0.511-0.03-0.762-0.069l-2.773,3.169c1.758,0.728,3.74,0.936,5.707,0.503L408.626,350.05
						z"/>
					<path d="M403.001,344.176c0.005-0.257,0.03-0.511,0.069-0.762l-3.169-2.773c-0.728,1.758-0.936,3.74-0.503,5.706
						L403.001,344.176z"/>
					<path d="M414.5,344.424c-0.005,0.257-0.03,0.511-0.069,0.762l3.169,2.773c0.728-1.758,0.936-3.74,0.503-5.707L414.5,344.424z"
						/>
					<path d="M412.904,340.324c0.176,0.183,0.341,0.378,0.493,0.586l4.198-0.28c-0.77-1.861-2.073-3.367-3.676-4.393
						L412.904,340.324z"/>
					<path d="M412.727,348.453c-0.184,0.176-0.378,0.341-0.586,0.493l0.28,4.198c1.861-0.77,3.367-2.073,4.393-3.676
						L412.727,348.453z"/>
					<path d="M409.637,338.619l2.773-3.169c-1.758-0.728-3.74-0.936-5.707-0.503l2.171,3.604
						C409.132,338.556,409.386,338.58,409.637,338.619z"/>
				</g>
				<path style="opacity:0.5;fill:#FFFFFF;" d="M410.15,343.86c0.243,0.773-0.187,1.596-0.96,1.839
					c-0.773,0.243-1.596-0.187-1.839-0.96c-0.243-0.773,0.617-0.226,1.39-0.469C409.514,344.028,409.907,343.087,410.15,343.86z"/>
			</g>
			<g>
				
					<ellipse transform="matrix(0.954 -0.2997 0.2997 0.954 -102.3013 101.8975)" style="fill:#263238;" cx="281.014" cy="384.429" rx="15.095" ry="17.236"/>
				<path style="opacity:0.5;fill:#FFFFFF;" d="M290.17,381.553c1.814,5.774-0.815,11.743-5.872,13.332
					c-5.057,1.589-10.627-1.804-12.441-7.579c-1.814-5.774,0.815-11.743,5.872-13.332
					C282.786,372.385,288.356,375.778,290.17,381.553z"/>
				<path style="fill:#263238;" d="M283.143,383.76c0.422,1.343-0.189,2.731-1.365,3.1c-1.176,0.369-2.471-0.42-2.893-1.762
					c-0.422-1.343,0.189-2.731,1.365-3.1C281.426,381.628,282.721,382.417,283.143,383.76z"/>
				<g style="opacity:0.4;">
					<path d="M277.842,379.715l-0.397-4.161c-1.623,0.695-2.913,1.93-3.766,3.479l3.661,1.148
						C277.496,380.014,277.663,379.857,277.842,379.715z"/>
					<path d="M277.471,388.213c-0.163-0.188-0.316-0.386-0.458-0.597l-3.713,0.128c0.749,1.868,1.958,3.404,3.417,4.475
						L277.471,388.213z"/>
					<path d="M281.108,390.11c-0.228-0.015-0.454-0.047-0.679-0.095l-2.347,3.035c1.585,0.783,3.35,1.058,5.079,0.7L281.108,390.11z
						"/>
					<path d="M275.909,384.102c-0.004-0.254,0.008-0.504,0.034-0.751l-2.91-2.855c-0.583,1.713-0.697,3.665-0.244,5.625
						L275.909,384.102z"/>
					<path d="M286.118,384.756c0.004,0.254-0.008,0.504-0.034,0.751l2.91,2.855c0.583-1.713,0.697-3.665,0.244-5.625
						L286.118,384.756z"/>
					<path d="M284.556,380.645c0.163,0.188,0.316,0.386,0.458,0.597l3.713-0.128c-0.749-1.867-1.958-3.404-3.417-4.475
						L284.556,380.645z"/>
					<path d="M284.688,388.677c-0.156,0.167-0.323,0.324-0.502,0.466l0.397,4.161c1.623-0.695,2.913-1.931,3.766-3.479
						L284.688,388.677z"/>
					<path d="M281.598,378.843l2.347-3.035c-1.585-0.783-3.35-1.058-5.079-0.7l2.053,3.64
						C281.148,378.762,281.374,378.795,281.598,378.843z"/>
				</g>
				<path style="opacity:0.5;fill:#FFFFFF;" d="M282.239,384.044c0.243,0.773-0.109,1.572-0.786,1.785
					c-0.677,0.213-1.422-0.242-1.665-1.014c-0.243-0.773,0.54-0.202,1.216-0.414C281.681,384.187,281.996,383.271,282.239,384.044z"
					/>
			</g>
			<g>
				<path style="fill:#263238;" d="M398.545,297.751l-12.513-7.13c-7.346-4.186-16.184-5.133-24.25-2.599l-10.164,3.193
					c-0.855,0.268-1.566,0.887-1.951,1.696c-0.385,0.81-0.416,1.751-0.084,2.585l7.142,17.952c0.622,1.564,2.367,2.394,3.973,1.889
					l37.215-11.691c1.246-0.391,2.107-1.441,2.246-2.74C400.298,299.607,399.68,298.398,398.545,297.751z M398.374,300.714
					c-0.063,0.587-0.436,1.042-0.998,1.219l-37.215,11.691c-0.714,0.224-1.49-0.145-1.767-0.84l-7.142-17.952
					c-0.15-0.376-0.136-0.784,0.038-1.15c0.174-0.365,0.482-0.633,0.867-0.754l10.164-3.193c7.591-2.385,15.909-1.493,22.823,2.446
					l12.513,7.13C398.168,299.603,398.437,300.127,398.374,300.714z"/>
				<path style="fill:#263238;" d="M341.618,294.356l-29.56,9.286c-4.038,1.268-7.227,4.26-8.751,8.209l-7.031,18.223
					c-0.451,1.169-0.199,2.462,0.659,3.376c0.857,0.914,2.132,1.248,3.327,0.873l49.07-15.416c1.701-0.534,2.65-2.353,2.116-4.054
					l-5.775-18.382C345.138,294.771,343.319,293.822,341.618,294.356z M298.243,332.223c-0.387-0.413-0.496-0.974-0.293-1.501
					l7.031-18.223c1.326-3.436,4.101-6.04,7.614-7.143l0.957-0.301l6.637,21.126l-20.467,6.43
					C299.183,332.78,298.63,332.635,298.243,332.223z M349.734,315.392c0.238,0.756-0.185,1.565-0.941,1.803l-27.69,8.699
					l-6.637-21.126l27.69-8.699c0.756-0.238,1.565,0.185,1.803,0.941L349.734,315.392z"/>
			</g>
			<g style="opacity:0.6;">
				<path d="M398.545,297.751l-12.513-7.13c-7.346-4.186-16.184-5.133-24.25-2.599l-10.164,3.193
					c-0.855,0.268-1.566,0.887-1.951,1.696c-0.385,0.81-0.416,1.751-0.084,2.585l7.142,17.952c0.622,1.564,2.367,2.394,3.973,1.889
					l37.215-11.691c1.246-0.391,2.107-1.441,2.246-2.74C400.298,299.607,399.68,298.398,398.545,297.751z M398.374,300.714
					c-0.063,0.587-0.436,1.042-0.998,1.219l-37.215,11.691c-0.714,0.224-1.49-0.145-1.767-0.84l-7.142-17.952
					c-0.15-0.376-0.136-0.784,0.038-1.15c0.174-0.365,0.482-0.633,0.867-0.754l10.164-3.193c7.591-2.385,15.909-1.493,22.823,2.446
					l12.513,7.13C398.168,299.603,398.437,300.127,398.374,300.714z"/>
				<path d="M341.618,294.356l-29.56,9.286c-4.038,1.268-7.227,4.26-8.751,8.209l-7.031,18.223
					c-0.451,1.169-0.199,2.462,0.659,3.376c0.857,0.914,2.132,1.248,3.327,0.873l49.07-15.416c1.701-0.534,2.65-2.353,2.116-4.054
					l-5.775-18.382C345.138,294.771,343.319,293.822,341.618,294.356z M298.243,332.223c-0.387-0.413-0.496-0.974-0.293-1.501
					l7.031-18.223c1.326-3.436,4.101-6.04,7.614-7.143l0.957-0.301l6.637,21.126l-20.467,6.43
					C299.183,332.78,298.63,332.635,298.243,332.223z M349.734,315.392c0.238,0.756-0.185,1.565-0.941,1.803l-27.69,8.699
					l-6.637-21.126l27.69-8.699c0.756-0.238,1.565,0.185,1.803,0.941L349.734,315.392z"/>
			</g>
		</g>
		<polygon style="opacity:0.2;" points="253.936,368.702 258.505,373.039 258.244,378.199 		"/>
	</g>
</g>
<g id="Car_1">
	<g>
		<g>
			<path style="fill:#263238;" d="M57.748,356.96l9.336,9.018l35.603,11.186l27.397,5.781c0.952,0.201,1.945-0.022,2.719-0.612
				l0.155-0.118c0.748-0.57,1.702-0.798,2.628-0.63l37.676,6.859c0.677,0.123,1.292,0.476,1.741,0.998l3.617,4.21
				c0.449,0.522,1.063,0.875,1.741,0.998l23.038,4.194l41.106-1.29c1.079-0.034,1.939-0.914,1.948-1.993l0.08-9.671l-1.284-18.217
				l-46.183-9.349l-25.627,19.591l-49.118-9.883l-19.287-27.872l-34.325-4.994l-10.602,14.589L57.748,356.96z"/>
			<path style="opacity:0.6;" d="M57.748,356.96l9.336,9.018l35.603,11.186l27.397,5.781c0.952,0.201,1.945-0.022,2.719-0.612
				l0.155-0.118c0.748-0.57,1.702-0.798,2.628-0.63l37.676,6.859c0.677,0.123,1.292,0.476,1.741,0.998l3.617,4.21
				c0.449,0.522,1.063,0.875,1.741,0.998l23.038,4.194l41.106-1.29c1.079-0.034,1.939-0.914,1.948-1.993l0.08-9.671l-1.284-18.217
				l-46.183-9.349l-25.627,19.591l-49.118-9.883l-19.287-27.872l-34.325-4.994l-10.602,14.589L57.748,356.96z"/>
		</g>
		<g>
			<path style="fill:#407BFF;" d="M257.003,350.194l-2.863-0.946c0,0-1.788-3.545-2.902-4.147c-1.617-0.873-5.706,0.603-7.348-0.222
				c-1.455-0.732-2.585-4.458-4.096-5.067c-1.8-0.725-5.909,1.707-7.704,0.967c-0.832-0.343-1.416-2.536-2.281-2.785
				c-1.226-0.354-4.84,1.618-4.84,1.618l-24.379-8.053c0,0-1.754-6.503-2.628-8.565c-0.982-2.316-3.678-6.656-4.318-9.088
				c-0.414-1.572-0.212-4.879-0.461-6.485c-0.204-1.316-1.562-5.091-1.562-5.091c-0.745-2.428-2.562-4.38-4.93-5.296l-4.716-1.825
				c-9.746-3.772-19.827-6.614-30.109-8.485L81.762,273.96c-1.895-0.345-3.76,0.736-4.403,2.552l-13.142,37.153
				c-0.07,0.197-0.124,0.4-0.161,0.606l-7.663,42.089c-0.148,0.812,0.39,1.59,1.202,1.737c0.583,0.106,1.173-0.142,1.505-0.633
				l8.637-12.773c2.054-3.762,6.288-5.783,10.505-5.016l22.014,4.008c3.805,0.693,6.863,3.53,7.838,7.272l5.155,19.78
				c0.419,1.609,1.734,2.828,3.369,3.126l70.869,12.902c1.635,0.298,3.295-0.38,4.254-1.738l11.795-16.694
				c2.232-3.159,6.093-4.736,9.898-4.043l22.014,4.008c4.217,0.768,7.467,4.152,8.063,8.396l2.134,15.188
				c0.145,1.028,1.619,1.058,1.805,0.036c0,0,1.794-23.216,4.042-30.597C252.397,358.35,257.003,350.194,257.003,350.194z"/>
			<path style="opacity:0.5;fill:#FFFFFF;" d="M257.003,350.194l-2.863-0.946c0,0-1.788-3.545-2.902-4.147
				c-1.617-0.873-5.706,0.603-7.348-0.222c-1.455-0.732-2.585-4.458-4.096-5.067c-1.8-0.725-5.909,1.707-7.704,0.967
				c-0.832-0.343-1.416-2.536-2.281-2.785c-1.226-0.354-4.84,1.618-4.84,1.618l-24.379-8.053c0,0-1.754-6.503-2.628-8.565
				c-0.982-2.316-3.678-6.656-4.318-9.088c-0.414-1.572-0.212-4.879-0.461-6.485c-0.204-1.316-1.562-5.091-1.562-5.091
				c-0.745-2.428-2.562-4.38-4.93-5.296l-4.716-1.825c-9.746-3.772-19.827-6.614-30.109-8.485L81.762,273.96
				c-1.895-0.345-3.76,0.736-4.403,2.552l-13.142,37.153c-0.07,0.197-0.124,0.4-0.161,0.606l-7.663,42.089
				c-0.148,0.812,0.39,1.59,1.202,1.737c0.583,0.106,1.173-0.142,1.505-0.633l8.637-12.773c2.054-3.762,6.288-5.783,10.505-5.016
				l22.014,4.008c3.805,0.693,6.863,3.53,7.838,7.272l5.155,19.78c0.419,1.609,1.734,2.828,3.369,3.126l70.869,12.902
				c1.635,0.298,3.295-0.38,4.254-1.738l11.795-16.694c2.232-3.159,6.093-4.736,9.898-4.043l22.014,4.008
				c4.217,0.768,7.467,4.152,8.063,8.396l2.134,15.188c0.145,1.028,1.619,1.058,1.805,0.036c0,0,1.794-23.216,4.042-30.597
				C252.397,358.35,257.003,350.194,257.003,350.194z"/>
		</g>
		<path style="opacity:0.2;" d="M210.878,357.759l10.785-13.879c0.75-0.965,2.295-0.347,2.173,0.869l-0.5,4.969
			c-0.173,1.715,2.034,2.556,3.046,1.16l4.441-6.122c0.664-0.916,2.109-0.51,2.199,0.618l0.717,8.968
			c0.124,1.557,2.115,2.125,3.042,0.867l4.534-6.156c0.745-1.011,2.347-0.369,2.188,0.877l-1.382,10.799l1.452,9.256l-20.11-7.843
			l-13.285-0.537L210.878,357.759z"/>
		<path style="opacity:0.2;" d="M250.168,353.626c0,0-3.772,3.435-4.516,4.932c-0.445,0.896-1.511,3.329-0.717,3.937
			c0.874,0.67,3.197-1.175,3.92-2.005c1.101-1.264,2.208-6.33,2.208-6.33C251.255,353.614,250.559,353.199,250.168,353.626z"/>
		<path style="opacity:0.2;" d="M214.842,343.586l-10.691,3.194c-0.178,0.053-0.322,0.185-0.391,0.358l-2.305,5.76
			c-0.215,0.537,0.37,1.044,0.871,0.754l10.31-5.964c0.055-0.032,0.105-0.073,0.148-0.12l2.685-2.99
			C215.881,344.119,215.432,343.41,214.842,343.586z"/>
		<path style="fill:#407BFF;" d="M80.434,276.62c1.214,1.755,3.076,2.956,5.175,3.338l103.905,18.917
			c-0.798-0.788-1.75-1.425-2.823-1.84l-4.716-1.825c-9.746-3.772-19.827-6.614-30.109-8.485L81.762,273.96
			c-0.998-0.182-1.982,0.04-2.789,0.549L80.434,276.62z"/>
		<path style="fill:#263238;" d="M117.07,317.47l-34.036-6.196c-1.53-0.279-2.545-1.745-2.266-3.275l3.929-21.581
			c0.279-1.53,1.745-2.545,3.275-2.266l34.036,6.196c1.53,0.279,2.545,1.745,2.266,3.275l-3.929,21.581
			C120.066,316.734,118.6,317.748,117.07,317.47z"/>
		<path style="fill:#263238;" d="M187.185,330.235l-52.018-9.47c-1.259-0.229-2.094-1.436-1.865-2.695l4.107-22.562
			c0.229-1.259,1.436-2.094,2.695-1.865l42.084,7.662c0.904,0.165,1.625,0.847,1.839,1.741c0,0,0.866,3.036,0.975,4.079
			c0.197,1.884-0.149,5.724,0.262,7.573c0.489,2.199,2.76,6.173,3.531,8.29c0.389,1.07,1.059,4.428,1.059,4.428
			C190.243,329.044,188.831,330.534,187.185,330.235z"/>
		<path style="opacity:0.2;fill:#FFFFFF;" d="M186.217,317.331c-0.433-0.984-0.791-1.906-0.952-2.634
			c-0.349-1.573-0.152-4.581-0.206-6.605l-5.118-5.524l3.458,6.275l-13.375-8.081l11.976,11.172l-10.452-0.021l-6.789-2.909
			l-8.391,0.145l8.151,1.17l6.982,3.571l4.848,0.36l-4.353,3.808l-4.775,0.385l-3.847,3.9l4.592-2.823l4.701,0.02l6.414-4.792
			l3.137,0.571l-4.969,5.473l-5.272,3.118l9.449-3.089l-1.518-0.276l3.847-3.9l-1.971,8.528L186.217,317.331z"/>
		<path style="opacity:0.3;fill:#FFFFFF;" d="M194.4,339.794l-125.512-22.85c-0.608-0.111-1.011-0.693-0.9-1.301l0.017-0.094
			c0.111-0.608,0.693-1.011,1.301-0.9l125.512,22.85c0.608,0.111,1.011,0.693,0.9,1.301l-0.017,0.094
			C195.591,339.501,195.008,339.905,194.4,339.794z"/>
		<path style="opacity:0.3;fill:#FFFFFF;" d="M184.64,366.018l-64.928-11.82c-0.608-0.111-1.011-0.693-0.9-1.301l0.017-0.094
			c0.111-0.608,0.693-1.011,1.301-0.9l64.928,11.82c0.608,0.111,1.011,0.693,0.9,1.301l-0.017,0.094
			C185.831,365.725,185.248,366.128,184.64,366.018z"/>
		<path style="fill:#407BFF;" d="M138.731,335.041l-6.233-1.135c-0.608-0.111-1.011-0.693-0.9-1.301l0.017-0.094
			c0.111-0.608,0.693-1.011,1.301-0.9l6.233,1.135c0.608,0.111,1.011,0.693,0.9,1.301l-0.017,0.094
			C139.921,334.748,139.339,335.151,138.731,335.041z"/>
		<path style="fill:#407BFF;" d="M190.595,330.365l1.158-6.359c0.154-0.846-0.407-1.657-1.253-1.811l-2.496-0.454
			c-1.385-0.252-2.711,0.666-2.963,2.051l-1.298,7.13c-0.252,1.385,0.666,2.711,2.051,2.963l3.423,0.623l1.028,1.485l1.442,0.263
			l0.622-3.415L190.595,330.365z"/>
		<g>
			
				<ellipse transform="matrix(0.4787 -0.878 0.878 0.4787 -282.289 267.9988)" style="fill:#263238;" cx="84.544" cy="371.722" rx="21.395" ry="21.395"/>
			<path style="opacity:0.4;fill:#FFFFFF;" d="M97.221,375.61c0.15-0.492,0.281-0.993,0.376-1.512
				c0.094-0.518,0.149-1.034,0.181-1.547l-4.805-1.568c-0.062-0.713-0.212-1.407-0.444-2.067l3.727-3.407
				c-0.488-0.919-1.082-1.776-1.77-2.557l-4.502,2.287c-0.536-0.451-1.132-0.835-1.778-1.144l0.226-5.049
				c-0.492-0.15-0.993-0.281-1.512-0.376c-0.518-0.094-1.034-0.149-1.547-0.181l-1.568,4.805c-0.714,0.062-1.407,0.211-2.067,0.444
				l-3.407-3.727c-0.919,0.488-1.776,1.082-2.557,1.77l2.287,4.502c-0.451,0.536-0.835,1.132-1.144,1.778l-5.049-0.226
				c-0.15,0.492-0.281,0.993-0.376,1.512c-0.094,0.518-0.149,1.034-0.181,1.547l4.805,1.568c0.062,0.714,0.212,1.407,0.444,2.067
				l-3.727,3.407c0.488,0.919,1.082,1.776,1.77,2.557l4.502-2.287c0.536,0.451,1.132,0.835,1.778,1.144l-0.226,5.049
				c0.492,0.15,0.993,0.281,1.511,0.376c0.518,0.094,1.034,0.149,1.547,0.181l1.568-4.805c0.714-0.062,1.407-0.212,2.067-0.444
				l3.407,3.727c0.919-0.488,1.776-1.082,2.557-1.77l-2.287-4.502c0.451-0.536,0.835-1.132,1.144-1.778L97.221,375.61z"/>
			<path style="opacity:0.6;fill:#FFFFFF;" d="M87.254,356.838c-8.22-1.496-16.097,3.954-17.594,12.174
				c-1.497,8.22,3.954,16.097,12.174,17.594c8.22,1.496,16.097-3.954,17.594-12.174C100.925,366.212,95.474,358.335,87.254,356.838z
				 M82.168,384.775c-7.209-1.312-11.989-8.22-10.676-15.429s8.22-11.989,15.429-10.676c7.209,1.312,11.989,8.22,10.676,15.429
				C96.285,381.307,89.377,386.087,82.168,384.775z"/>
			<path style="opacity:0.6;fill:#FFFFFF;" d="M91.484,372.986c-0.698,3.833-4.37,6.374-8.203,5.676
				c-3.833-0.698-6.374-4.371-5.676-8.203c0.698-3.833,4.37-6.374,8.203-5.676C89.64,365.48,92.182,369.153,91.484,372.986z"/>
			<path style="opacity:0.5;fill:#FFFFFF;" d="M88.126,372.374c-0.36,1.978-2.255,3.289-4.233,2.929
				c-1.978-0.36-3.289-2.255-2.929-4.233c0.36-1.978,2.255-3.289,4.233-2.929C87.174,368.501,88.486,370.396,88.126,372.374z"/>
		</g>
		<path style="opacity:0.2;" d="M208.192,338.592l6.815,1.834c0.701,0.189,0.668,1.195-0.044,1.337l-6.034,1.201
			c-0.357,0.071-0.708-0.149-0.799-0.503l-0.78-3.034C207.217,338.917,207.684,338.455,208.192,338.592z"/>
		<path style="fill:#407BFF;" d="M249.617,371.273c-2.244-5.275-6.999-9.2-12.842-10.263l-22.014-4.008
			c-6.613-1.204-13.394,1.566-17.273,7.056l-13.368,18.92l-63.017-11.473l-5.843-22.418c-1.702-6.531-7.038-11.482-13.678-12.691
			L79.57,332.39c-7.359-1.34-14.748,2.188-18.333,8.753l0,0c-0.466,0.853-1.426,1.311-2.382,1.137l-2.017-0.367
			c-1.291-0.235-2.528,0.621-2.764,1.912l-1.577,8.665c-0.158,0.868,0.178,1.752,0.872,2.296l3.132,2.455
			c0.195,0.432,0.591,0.766,1.094,0.857c0.583,0.106,1.173-0.142,1.505-0.633l8.637-12.773c2.054-3.762,6.288-5.783,10.505-5.016
			l22.014,4.008c3.805,0.693,6.863,3.53,7.838,7.272l5.155,19.78c0.419,1.609,1.733,2.828,3.369,3.126l70.869,12.902
			c1.635,0.298,3.295-0.38,4.254-1.738l11.795-16.694c2.232-3.159,6.093-4.736,9.898-4.043l22.014,4.008
			c4.217,0.768,7.467,4.152,8.063,8.396l2.134,15.188c0.145,1.028,1.619,1.058,1.805,0.036
			C247.451,391.917,248.325,380.614,249.617,371.273z"/>
		<g>
			<path style="fill:#263238;" d="M227.82,369.597c0,0,2.48,0.734,3.211-0.122c0,0,3.995,5.227,6.337,5.914
				c0,0,2.906,7.064,4.148,7.708c0,0-0.273,6.38,1.245,7.807c0,0-3.137,4.97-3.401,8.529c0,0-1.114-0.098-1.147,2.091
				c0,0-0.595-1.513-1.817-1.794l0.346-6.21l1.584-6.403l-0.367-2.576l-4.235-7.462l-3.698-3.81L227.82,369.597z"/>
			<path style="opacity:0.4;fill:#FFFFFF;" d="M227.82,369.597c0,0,2.48,0.734,3.211-0.122c0,0,3.995,5.227,6.337,5.914
				c0,0,2.906,7.064,4.148,7.708c0,0-0.273,6.38,1.245,7.807c0,0-3.137,4.97-3.401,8.529c0,0-1.114-0.098-1.147,2.091
				c0,0-0.595-1.513-1.817-1.794l0.346-6.21l1.584-6.403l-0.367-2.576l-4.235-7.462l-3.698-3.81L227.82,369.597z"/>
			
				<ellipse transform="matrix(0.3769 -0.9263 0.9263 0.3769 -223.659 445.7693)" style="fill:#263238;" cx="219.491" cy="389.12" rx="21.395" ry="21.395"/>
			<path style="opacity:0.6;fill:#FFFFFF;" d="M233.482,388.862c-0.136-8.354-6.58-15.024-14.393-14.897
				c-7.813,0.127-14.036,7.003-13.901,15.357c0.136,8.354,6.58,15.024,14.393,14.897
				C227.395,404.092,233.619,397.216,233.482,388.862z M219.552,402.358c-6.852,0.111-12.503-5.737-12.622-13.064
				c-0.119-7.326,5.339-13.356,12.19-13.467c6.852-0.111,12.503,5.737,12.622,13.064
				C231.861,396.217,226.403,402.246,219.552,402.358z"/>
			<path style="opacity:0.4;fill:#FFFFFF;" d="M231.675,390.446c0.048-0.512,0.076-1.029,0.067-1.556
				c-0.009-0.527-0.053-1.043-0.118-1.553l-4.694-0.606c-0.188-0.688-0.452-1.339-0.787-1.942l2.792-4.065
				c-0.616-0.806-1.318-1.533-2.092-2.165l-3.709,3.117c-0.575-0.338-1.192-0.599-1.841-0.778l-0.719-4.997
				c-0.479-0.052-0.963-0.083-1.455-0.075c-0.492,0.008-0.975,0.055-1.452,0.122l-0.556,5.018c-0.643,0.199-1.251,0.48-1.814,0.837
				l-3.808-2.995c-0.753,0.657-1.43,1.406-2.02,2.232l2.923,3.972c-0.315,0.613-0.558,1.273-0.723,1.966l-4.672,0.758
				c-0.048,0.512-0.076,1.029-0.067,1.556c0.009,0.527,0.053,1.043,0.118,1.553l4.694,0.606c0.188,0.688,0.452,1.339,0.787,1.942
				l-2.792,4.065c0.617,0.806,1.318,1.533,2.092,2.165l3.709-3.117c0.574,0.338,1.191,0.599,1.841,0.778l0.719,4.997
				c0.479,0.052,0.963,0.083,1.455,0.075c0.493-0.008,0.975-0.055,1.452-0.122l0.556-5.018c0.643-0.199,1.251-0.48,1.814-0.837
				l3.808,2.995c0.753-0.657,1.43-1.406,2.02-2.232l-2.923-3.973c0.315-0.613,0.558-1.273,0.723-1.966L231.675,390.446z"/>
			<path style="opacity:0.3;fill:#FFFFFF;" d="M227.101,369.127c0.568,1.226,1.092,3.06,0.587,5.141c0,0,6.764-0.445,5.962,6.56
				c0,0,8.154,5.185,2.271,10.032c0,0,1.728,6.588-1.806,9.918c0,0,1.949-0.483,3.346-0.042c1.487-2.299,2.557-4.922,3.078-7.784
				C242.417,382.64,236.561,372.716,227.101,369.127z"/>
			<path style="opacity:0.9;" d="M228.462,369.714c0.633,1.353,1.799,3.241,3.945,5.413c4.326,4.38,7.293,9.328,5.868,13.713
				c-1.256,3.864-2.004,9.406-0.508,11.399c1.326-2.178,2.29-4.627,2.773-7.286C242.325,383.147,237.111,373.705,228.462,369.714z"
				/>
			<path style="opacity:0.6;fill:#FFFFFF;" d="M225.932,388.985c0.063,3.895-2.838,7.101-6.481,7.16
				c-3.643,0.059-6.647-3.05-6.711-6.946c-0.063-3.895,2.838-7.101,6.481-7.16C222.864,381.98,225.868,385.09,225.932,388.985z"/>
			<path style="opacity:0.5;fill:#FFFFFF;" d="M222.74,389.037c0.033,2.01-1.465,3.664-3.345,3.695
				c-1.88,0.031-3.43-1.574-3.463-3.584c-0.033-2.01,1.465-3.664,3.345-3.695C221.156,385.422,222.707,387.027,222.74,389.037z"/>
		</g>
	</g>
</g>
</svg>
