<?xml version="1.0" encoding="utf-8"?>
<!-- Generator: Adobe Illustrator 27.5.0, SVG Export Plug-In . SVG Version: 6.00 Build 0)  -->
<svg version="1.1" xmlns="http://www.w3.org/2000/svg" xmlns:xlink="http://www.w3.org/1999/xlink" x="0px" y="0px"
	 viewBox="0 0 500 500" style="enable-background:new 0 0 500 500;" xml:space="preserve">
<g id="Background_Complete">
	<g>
		<rect y="382.398" style="fill:#EBEBEB;" width="500" height="0.25"/>
		<rect x="400.674" y="393.042" style="fill:#EBEBEB;" width="33.122" height="0.25"/>
		<rect x="304.382" y="392.917" style="fill:#EBEBEB;" width="8.693" height="0.25"/>
		<rect x="430.709" y="398.494" style="fill:#EBEBEB;" width="19.192" height="0.25"/>
		<rect x="71.414" y="401.806" style="fill:#EBEBEB;" width="43.193" height="0.25"/>
		<rect x="104.556" y="390.888" style="fill:#EBEBEB;" width="6.333" height="0.25"/>
		<rect x="187.546" y="391.956" style="fill:#EBEBEB;" width="60.898" height="0.25"/>
		<path style="fill:#EBEBEB;" d="M237.014,337.8H43.915c-3.147,0-5.708-2.561-5.708-5.708V60.66c0-3.147,2.561-5.708,5.708-5.708
			h193.099c3.146,0,5.707,2.561,5.707,5.708v271.432C242.721,335.239,240.16,337.8,237.014,337.8z M43.915,55.203
			c-3.01,0-5.458,2.448-5.458,5.458v271.432c0,3.01,2.448,5.458,5.458,5.458h193.099c3.009,0,5.457-2.448,5.457-5.458V60.66
			c0-3.009-2.448-5.458-5.457-5.458H43.915z"/>
		<path style="fill:#EBEBEB;" d="M453.31,337.8H260.212c-3.147,0-5.707-2.561-5.707-5.708V60.66c0-3.147,2.561-5.708,5.707-5.708
			H453.31c3.148,0,5.708,2.561,5.708,5.708v271.432C459.019,335.239,456.458,337.8,453.31,337.8z M260.212,55.203
			c-3.009,0-5.457,2.448-5.457,5.458v271.432c0,3.01,2.448,5.458,5.457,5.458H453.31c3.01,0,5.458-2.448,5.458-5.458V60.66
			c0-3.009-2.448-5.458-5.458-5.458H260.212z"/>
	</g>
	<g>
		<g>
			
				<rect x="279.417" y="106.235" transform="matrix(-1 -1.224647e-16 1.224647e-16 -1 714.1889 407.0135)" style="fill:#F5F5F5;" width="155.356" height="194.544"/>
			<path style="fill:#EBEBEB;" d="M280.962,297.773h152.265c1.716,0,3.107,1.391,3.107,3.107v1.707c0,1.716-1.391,3.107-3.107,3.107
				H280.962c-1.716,0-3.107-1.391-3.107-3.107v-1.707C277.856,299.164,279.246,297.773,280.962,297.773z"/>
			<path style="fill:#EBEBEB;" d="M314.345,115.253h85.5c0.782,0,1.416,0.634,1.416,1.416l0,0c0,0.782-0.634,1.416-1.416,1.416
				h-85.5c-0.782,0-1.416-0.634-1.416-1.416l0,0C312.928,115.887,313.562,115.253,314.345,115.253z"/>
		</g>
		<g>
			<g>
				<g>
					
						<rect x="83.029" y="194.211" transform="matrix(-1 -1.224647e-16 1.224647e-16 -1 276.8315 427.0043)" style="fill:#F0F0F0;" width="110.773" height="38.582"/>
					
						<rect x="121.232" y="160.222" transform="matrix(-1.836970e-16 1 -1 -1.836970e-16 351.9179 75.0863)" style="fill:#E6E6E6;" width="34.368" height="106.56"/>
					
						<rect x="155.499" y="194.645" transform="matrix(-1 -1.224647e-16 1.224647e-16 -1 313.105 427.0043)" style="fill:#F0F0F0;" width="2.107" height="37.715"/>
					<rect x="157.606" y="196.318" style="fill:#E0E0E0;" width="11.67" height="34.368"/>
					<rect x="121.416" y="196.318" style="fill:#E0E0E0;" width="11.67" height="34.368"/>
					<rect x="85.136" y="196.318" style="fill:#E0E0E0;" width="11.67" height="34.368"/>
					
						<rect x="119.303" y="194.645" transform="matrix(-1 -1.224647e-16 1.224647e-16 -1 240.712 427.0043)" style="fill:#F0F0F0;" width="2.107" height="37.715"/>
					<rect x="193.802" y="194.211" style="fill:#E6E6E6;" width="10.488" height="38.582"/>
				</g>
				<g>
					<polygon style="fill:#EBEBEB;" points="164.842,230.686 184.265,230.686 179.703,201.378 160.28,201.378 					"/>
					<polygon style="fill:#F5F5F5;" points="126.878,230.686 146.301,230.686 142.93,201.378 123.507,201.378 					"/>
					<polygon style="fill:#E0E0E0;" points="136.162,230.686 153.829,230.686 146.395,204.027 128.728,204.027 					"/>
					
						<rect x="172.272" y="199.011" transform="matrix(-1 -1.224647e-16 1.224647e-16 -1 363.9679 429.6965)" style="fill:#F5F5F5;" width="19.423" height="31.675"/>
					
						<rect x="89.397" y="199.011" transform="matrix(-1 -1.224647e-16 1.224647e-16 -1 198.2172 429.6965)" style="fill:#F5F5F5;" width="19.423" height="31.675"/>
					<polygon style="fill:#E0E0E0;" points="103.15,230.686 118.202,230.686 112.969,204.027 97.918,204.027 					"/>
					<polygon style="fill:#F5F5F5;" points="110.641,230.686 119.303,230.686 119.303,205.964 102.367,205.964 					"/>
					
						<rect x="89.397" y="199.011" transform="matrix(-1 -1.224647e-16 1.224647e-16 -1 183.2185 429.6965)" style="fill:#FAFAFA;" width="4.425" height="31.675"/>
					<path style="fill:#F0F0F0;" d="M177.867,228.319L177.867,228.319c0.323,0,0.585-0.262,0.585-0.585v-25.771
						c0-0.323-0.262-0.585-0.585-0.585l0,0c-0.323,0-0.585,0.262-0.585,0.585v25.771
						C177.282,228.057,177.544,228.319,177.867,228.319z"/>
				</g>
			</g>
			<g>
				
					<rect x="70.549" y="232.793" transform="matrix(-1 -1.224647e-16 1.224647e-16 -1 166.2476 615.1913)" style="fill:#E6E6E6;" width="25.149" height="149.605"/>
				<polygon style="fill:#F0F0F0;" points="75.326,382.398 70.549,382.398 70.549,368.811 80.334,368.811 				"/>
				
					<rect x="196.96" y="232.793" transform="matrix(-1 -1.224647e-16 1.224647e-16 -1 419.0694 615.1913)" style="fill:#E6E6E6;" width="25.149" height="149.605"/>
				
					<rect x="70.549" y="232.793" transform="matrix(-1 -1.224647e-16 1.224647e-16 -1 271.6784 606.8538)" style="fill:#F0F0F0;" width="130.58" height="141.268"/>
				<g>
					<path style="fill:#E6E6E6;" d="M193.047,263.758H78.631c-2.688,0-4.876-2.188-4.876-4.876v-18.004
						c0-2.689,2.188-4.876,4.876-4.876h114.416c2.688,0,4.876,2.188,4.876,4.876v18.004
						C197.923,261.57,195.736,263.758,193.047,263.758z M78.631,237.001c-2.137,0-3.876,1.739-3.876,3.876v18.004
						c0,2.137,1.739,3.876,3.876,3.876h114.416c2.137,0,3.876-1.739,3.876-3.876v-18.004c0-2.138-1.739-3.876-3.876-3.876H78.631z"
						/>
					<path style="fill:#E6E6E6;" d="M129.86,357.575H78.631c-2.688,0-4.876-2.188-4.876-4.876v-81.997
						c0-2.689,2.188-4.876,4.876-4.876h51.229c2.688,0,4.876,2.188,4.876,4.876v81.997
						C134.736,355.388,132.548,357.575,129.86,357.575z M78.631,266.826c-2.137,0-3.876,1.739-3.876,3.876v81.997
						c0,2.137,1.739,3.876,3.876,3.876h51.229c2.137,0,3.876-1.739,3.876-3.876v-81.997c0-2.138-1.739-3.876-3.876-3.876H78.631z"/>
					<path style="fill:#E6E6E6;" d="M193.047,357.575h-51.229c-2.689,0-4.876-2.188-4.876-4.876v-81.997
						c0-2.689,2.188-4.876,4.876-4.876h51.229c2.688,0,4.876,2.188,4.876,4.876v81.997
						C197.923,355.388,195.736,357.575,193.047,357.575z M141.818,266.826c-2.137,0-3.876,1.739-3.876,3.876v81.997
						c0,2.137,1.739,3.876,3.876,3.876h51.229c2.137,0,3.876-1.739,3.876-3.876v-81.997c0-2.138-1.739-3.876-3.876-3.876H141.818z"
						/>
				</g>
				<path style="fill:#FAFAFA;" d="M146.612,280.665c-2.617,0-4.747-2.129-4.747-4.747s2.129-4.746,4.747-4.746
					s4.746,2.129,4.746,4.746S149.23,280.665,146.612,280.665z M146.612,272.172c-2.066,0-3.747,1.681-3.747,3.746
					c0,2.066,1.681,3.747,3.747,3.747c2.065,0,3.746-1.681,3.746-3.747C150.358,273.853,148.678,272.172,146.612,272.172z"/>
				<path style="fill:#FAFAFA;" d="M125.066,280.665c-2.617,0-4.746-2.129-4.746-4.747s2.129-4.746,4.746-4.746
					c2.617,0,4.747,2.129,4.747,4.746S127.683,280.665,125.066,280.665z M125.066,272.172c-2.065,0-3.746,1.681-3.746,3.746
					c0,2.066,1.681,3.747,3.746,3.747c2.066,0,3.747-1.681,3.747-3.747C128.813,273.853,127.132,272.172,125.066,272.172z"/>
				<polygon style="fill:#F0F0F0;" points="196.352,382.398 201.129,382.398 201.129,368.811 191.344,368.811 				"/>
				<path style="fill:#FAFAFA;" d="M135.278,254.82c-2.617,0-4.747-2.129-4.747-4.747s2.129-4.746,4.747-4.746
					c2.617,0,4.746,2.129,4.746,4.746S137.895,254.82,135.278,254.82z M135.278,246.328c-2.066,0-3.747,1.681-3.747,3.746
					c0,2.066,1.681,3.747,3.747,3.747c2.065,0,3.746-1.681,3.746-3.747C139.024,248.008,137.344,246.328,135.278,246.328z"/>
			</g>
		</g>
		<g>
			<g>
				<g>
					<g>
						<rect x="204.269" y="147.566" style="fill:#E6E6E6;" width="11.893" height="5.617"/>
						
							<rect x="73.326" y="147.566" transform="matrix(-1 -1.224647e-16 1.224647e-16 -1 277.5954 300.7492)" style="fill:#F5F5F5;" width="130.943" height="5.617"/>
					</g>
				</g>
			</g>
			<path style="fill:#F0F0F0;" d="M140.516,129.832c0,9.753-7.999,17.733-17.776,17.733h-8.825c-9.777,0-17.776-7.98-17.776-17.733
				H140.516z"/>
			<path style="fill:#F0F0F0;" d="M140.516,117.499c0,9.753-7.999,17.733-17.776,17.733h-8.825c-9.777,0-17.776-7.98-17.776-17.733
				H140.516z"/>
			<path style="fill:#F0F0F0;" d="M192.532,129.832c0,9.753-7.999,17.733-17.776,17.733h-8.825c-9.777,0-17.776-7.98-17.776-17.733
				H192.532z"/>
			<path style="fill:#F0F0F0;" d="M192.532,117.499c0,9.753-7.999,17.733-17.776,17.733h-8.825c-9.777,0-17.776-7.98-17.776-17.733
				H192.532z"/>
		</g>
	</g>
</g>
<g id="Background_Simple" style="display:none;">
	<g style="display:inline;">
		<path style="fill:#407BFF;" d="M264.33,155.696c37.979,7.115,82.635-5.222,114.051,25.187
			c23.589,22.833,19.829,55.198,4.458,82.573c-40.37,71.895-162.293,55.465-224.354,19.489
			c-64.277-37.26-125.381-125.31-63.24-184.004c25.612-24.191,59.046-21.272,91.78-3.012
			C214.835,111.443,234.565,150.12,264.33,155.696z"/>
		<path style="opacity:0.9;fill:#FFFFFF;" d="M264.33,155.696c37.979,7.115,82.635-5.222,114.051,25.187
			c23.589,22.833,19.829,55.198,4.458,82.573c-40.37,71.895-162.293,55.465-224.354,19.489
			c-64.277-37.26-125.381-125.31-63.24-184.004c25.612-24.191,59.046-21.272,91.78-3.012
			C214.835,111.443,234.565,150.12,264.33,155.696z"/>
	</g>
</g>
<g id="Shadow_1_">
	<ellipse id="_x3C_Path_x3E__23_" style="fill:#F5F5F5;" cx="250" cy="416.238" rx="193.889" ry="11.323"/>
</g>
<g id="Smartphone">
	<g>
		<g>
			<path style="fill:#263238;" d="M252.291,128.523H359.64c5.542,0,9.908,4.535,9.701,10.077l-8.124,218.093
				c-0.206,5.542-4.91,10.077-10.452,10.077H243.416c-5.542,0-9.908-4.534-9.701-10.077l8.124-218.093
				C242.045,133.057,246.749,128.523,252.291,128.523z"/>
			<rect x="301.528" y="125.023" style="fill:#407BFF;" width="7.452" height="1"/>
			<rect x="272.647" y="125.023" style="fill:#407BFF;" width="21" height="1"/>
			<path style="fill:#407BFF;" d="M249.91,128.523h107.349c5.542,0,9.908,4.535,9.701,10.077l-8.123,218.093
				c-0.207,5.542-4.91,10.077-10.452,10.077H241.036c-5.542,0-9.908-4.534-9.701-10.077l8.124-218.093
				C239.665,133.057,244.368,128.523,249.91,128.523z"/>
			<path style="fill:#FFFFFF;" d="M356.529,352.565l7.96-213.962c0.138-3.712-2.753-6.721-6.458-6.721H248.785
				c-3.705,0-6.82,3.009-6.958,6.721l-7.96,213.962c-0.138,3.712,2.753,6.721,6.458,6.721h109.246
				C353.276,359.286,356.391,356.277,356.529,352.565z"/>
			<g>
				<g>
					<path style="fill:#E6E6E6;" d="M260.342,300.111h-9.401c-1.326,0-2.353-1.085-2.283-2.411l0.499-9.401
						c0.07-1.326,1.213-2.411,2.538-2.411h9.401c1.326,0,2.353,1.085,2.283,2.411l-0.499,9.401
						C262.81,299.026,261.667,300.111,260.342,300.111z"/>
					<path style="fill:#E6E6E6;" d="M276.979,300.111h-9.401c-1.326,0-2.353-1.085-2.283-2.411l0.499-9.401
						c0.07-1.326,1.212-2.411,2.538-2.411h9.401c1.326,0,2.353,1.085,2.283,2.411l-0.499,9.401
						C279.447,299.026,278.305,300.111,276.979,300.111z"/>
					<path style="fill:#E6E6E6;" d="M293.617,300.111h-9.401c-1.326,0-2.353-1.085-2.283-2.411l0.499-9.401
						c0.07-1.326,1.213-2.411,2.538-2.411h9.401c1.326,0,2.353,1.085,2.283,2.411l-0.499,9.401
						C296.085,299.026,294.943,300.111,293.617,300.111z"/>
					<path style="fill:#E6E6E6;" d="M310.254,300.111h-9.401c-1.326,0-2.353-1.085-2.283-2.411l0.499-9.401
						c0.07-1.326,1.213-2.411,2.538-2.411h9.401c1.326,0,2.353,1.085,2.283,2.411l-0.499,9.401
						C312.723,299.026,311.58,300.111,310.254,300.111z"/>
					<path style="fill:#E6E6E6;" d="M326.892,300.111h-9.401c-1.326,0-2.353-1.085-2.283-2.411l0.499-9.401
						c0.07-1.326,1.212-2.411,2.538-2.411h9.401c1.326,0,2.353,1.085,2.283,2.411l-0.499,9.401
						C329.36,299.026,328.218,300.111,326.892,300.111z"/>
					<path style="fill:#E6E6E6;" d="M343.53,300.111h-9.401c-1.326,0-2.353-1.085-2.283-2.411l0.499-9.401
						c0.07-1.326,1.213-2.411,2.538-2.411h9.401c1.326,0,2.353,1.085,2.283,2.411l-0.499,9.401
						C345.998,299.026,344.856,300.111,343.53,300.111z"/>
				</g>
				<g>
					<path style="fill:#E6E6E6;" d="M251.162,316.333h-9.401c-1.326,0-2.353-1.085-2.283-2.411l0.499-9.401
						c0.07-1.326,1.213-2.41,2.538-2.41h9.401c1.326,0,2.353,1.085,2.283,2.41l-0.499,9.401
						C253.63,315.249,252.488,316.333,251.162,316.333z"/>
					<path style="fill:#E6E6E6;" d="M267.8,316.333h-9.401c-1.326,0-2.353-1.085-2.283-2.411l0.499-9.401
						c0.07-1.326,1.212-2.41,2.538-2.41h9.401c1.326,0,2.353,1.085,2.283,2.41l-0.499,9.401
						C270.268,315.249,269.126,316.333,267.8,316.333z"/>
					<path style="fill:#E6E6E6;" d="M284.438,316.333h-9.401c-1.326,0-2.353-1.085-2.283-2.411l0.499-9.401
						c0.07-1.326,1.213-2.41,2.538-2.41h9.401c1.326,0,2.353,1.085,2.283,2.41l-0.499,9.401
						C286.906,315.249,285.763,316.333,284.438,316.333z"/>
					<path style="fill:#E6E6E6;" d="M301.075,316.333h-9.401c-1.326,0-2.353-1.085-2.283-2.411l0.499-9.401
						c0.07-1.326,1.213-2.41,2.538-2.41h9.401c1.326,0,2.353,1.085,2.283,2.41l-0.499,9.401
						C303.543,315.249,302.401,316.333,301.075,316.333z"/>
					<path style="fill:#E6E6E6;" d="M317.713,316.333h-9.401c-1.326,0-2.353-1.085-2.283-2.411l0.499-9.401
						c0.07-1.326,1.212-2.41,2.538-2.41h9.401c1.326,0,2.353,1.085,2.283,2.41l-0.499,9.401
						C320.181,315.249,319.039,316.333,317.713,316.333z"/>
					<path style="fill:#E6E6E6;" d="M334.35,316.333h-9.401c-1.326,0-2.353-1.085-2.283-2.411l0.499-9.401
						c0.07-1.326,1.213-2.41,2.538-2.41h9.401c1.326,0,2.353,1.085,2.283,2.41l-0.499,9.401
						C336.819,315.249,335.676,316.333,334.35,316.333z"/>
					<path style="fill:#E6E6E6;" d="M350.988,316.333h-9.401c-1.326,0-2.353-1.085-2.283-2.411l0.499-9.401
						c0.07-1.326,1.213-2.41,2.538-2.41h9.401c1.326,0,2.353,1.085,2.283,2.41l-0.499,9.401
						C353.456,315.249,352.314,316.333,350.988,316.333z"/>
				</g>
				<g>
					<path style="fill:#E6E6E6;" d="M258.621,332.556h-9.401c-1.326,0-2.353-1.085-2.283-2.41l0.499-9.401
						c0.07-1.326,1.212-2.41,2.538-2.41h9.401c1.326,0,2.353,1.085,2.283,2.41l-0.499,9.401
						C261.089,331.471,259.946,332.556,258.621,332.556z"/>
					<path style="fill:#E6E6E6;" d="M275.258,332.556h-9.401c-1.326,0-2.353-1.085-2.283-2.41l0.499-9.401
						c0.07-1.326,1.213-2.41,2.538-2.41h9.401c1.326,0,2.353,1.085,2.283,2.41l-0.499,9.401
						C277.726,331.471,276.584,332.556,275.258,332.556z"/>
					<path style="fill:#E6E6E6;" d="M291.896,332.556h-9.401c-1.326,0-2.353-1.085-2.283-2.41l0.499-9.401
						c0.07-1.326,1.213-2.41,2.538-2.41h9.401c1.326,0,2.353,1.085,2.283,2.41l-0.499,9.401
						C294.364,331.471,293.222,332.556,291.896,332.556z"/>
					<path style="fill:#E6E6E6;" d="M308.534,332.556h-9.401c-1.326,0-2.353-1.085-2.283-2.41l0.499-9.401
						c0.07-1.326,1.213-2.41,2.538-2.41h9.401c1.326,0,2.353,1.085,2.283,2.41l-0.499,9.401
						C311.002,331.471,309.859,332.556,308.534,332.556z"/>
					<path style="fill:#E6E6E6;" d="M325.171,332.556h-9.401c-1.326,0-2.353-1.085-2.283-2.41l0.499-9.401
						c0.07-1.326,1.213-2.41,2.538-2.41h9.401c1.326,0,2.353,1.085,2.283,2.41l-0.499,9.401
						C327.639,331.471,326.497,332.556,325.171,332.556z"/>
					<path style="fill:#E6E6E6;" d="M341.809,332.556h-9.401c-1.326,0-2.353-1.085-2.283-2.41l0.499-9.401
						c0.07-1.326,1.213-2.41,2.538-2.41h9.401c1.326,0,2.353,1.085,2.283,2.41l-0.499,9.401
						C344.277,331.471,343.135,332.556,341.809,332.556z"/>
				</g>
				<g>
					<path style="fill:#E6E6E6;" d="M316.237,348.778H273.07c-1.191,0-2.114-0.974-2.05-2.165l0.525-9.892
						c0.063-1.191,1.089-2.165,2.28-2.165h43.167c1.191,0,2.114,0.974,2.05,2.165l-0.525,9.892
						C318.454,347.803,317.428,348.778,316.237,348.778z"/>
					<path style="fill:#E6E6E6;" d="M266.079,348.778h-9.401c-1.326,0-2.353-1.085-2.283-2.41l0.499-9.401
						c0.07-1.326,1.213-2.41,2.538-2.41h9.401c1.326,0,2.353,1.085,2.283,2.41l-0.499,9.401
						C268.547,347.693,267.405,348.778,266.079,348.778z"/>
					<path style="fill:#E6E6E6;" d="M332.629,348.778h-9.401c-1.326,0-2.353-1.085-2.283-2.41l0.499-9.401
						c0.07-1.326,1.213-2.41,2.538-2.41h9.401c1.326,0,2.353,1.085,2.283,2.41l-0.499,9.401
						C335.098,347.693,333.955,348.778,332.629,348.778z"/>
				</g>
			</g>
			<path style="fill:#407BFF;" d="M299.313,209.444h-41.111c-6.6,0-11.759-5.4-11.463-12l0.676-15.111c0.295-6.6,5.937-12,12.537-12
				h41.111c6.6,0,11.759,5.4,11.463,12l-0.676,15.111C311.554,204.044,305.913,209.444,299.313,209.444z"/>
			<path style="fill:#E6E6E6;" d="M345.198,235.222h-48.141c-4.667,0-8.315-3.818-8.106-8.485l0.116-2.585
				c0.209-4.667,4.198-8.485,8.865-8.485h48.141c4.667,0,8.314,3.818,8.106,8.485l-0.116,2.585
				C353.854,231.404,349.865,235.222,345.198,235.222z"/>
			<path style="fill:#263238;" d="M315.391,158.694h-24.207c-2.347,0-4.181-1.92-4.076-4.267l0.058-1.3
				c0.105-2.347,2.111-4.267,4.458-4.267h24.207c2.347,0,4.181,1.92,4.076,4.267l-0.058,1.3
				C319.743,156.774,317.737,158.694,315.391,158.694z"/>
			<g>
				<path style="fill:#407BFF;" d="M354.402,136.16L354.402,136.16c0.449,0,0.76,0.367,0.69,0.816l0,0
					c-0.069,0.449-0.493,0.816-0.943,0.816l0,0c-0.449,0-0.76-0.367-0.69-0.816l0,0C353.529,136.527,353.953,136.16,354.402,136.16z
					"/>
				<path style="fill:#407BFF;" d="M352.171,135.192L352.171,135.192c0.449,0,0.76,0.367,0.69,0.816l-0.15,0.968
					c-0.069,0.449-0.493,0.816-0.943,0.816l0,0c-0.449,0-0.76-0.367-0.69-0.816l0.15-0.968
					C351.298,135.559,351.722,135.192,352.171,135.192z"/>
				<path style="fill:#407BFF;" d="M349.944,134.201L349.944,134.201c0.449,0,0.76,0.367,0.69,0.816l-0.303,1.959
					c-0.069,0.449-0.493,0.816-0.943,0.816l0,0c-0.449,0-0.76-0.367-0.69-0.816l0.303-1.959
					C349.071,134.568,349.495,134.201,349.944,134.201z"/>
			</g>
			<path style="fill:#407BFF;" d="M260.99,135.014c0.015-0.198-0.135-0.36-0.333-0.36H260.4c-0.164-0.509-0.633-0.874-1.212-0.874
				h-5.738c-0.757,0-1.423,0.619-1.479,1.376l-0.095,1.26c-0.057,0.757,0.516,1.376,1.273,1.376h5.738
				c0.579,0,1.103-0.364,1.343-0.874h0.258c0.198,0,0.372-0.162,0.387-0.36L260.99,135.014z"/>
			<path style="fill:#407BFF;" d="M295.03,130.609l0.12,0.551c0.843,3.883,4.263,6.633,8.249,6.633l0,0
				c3.949,0,7.426-2.699,8.418-6.536l0.168-0.648H295.03z"/>
		</g>
	</g>
</g>
<g id="Character_1_">
	<g>
		<g>
			<path style="fill:#FF8B7B;" d="M225.93,169.508c0.211,2.311,0.49,4.842,0.832,7.26c0.356,2.44,0.702,4.883,1.167,7.298
				c0.906,4.833,2.059,9.597,3.605,14.143c0.353,1.157,0.829,2.235,1.237,3.359l1.422,3.454l2.955,6.987
				c1.956,4.686,3.946,9.385,5.78,14.152l-3.873,2.015c-2.855-4.284-5.49-8.67-8.063-13.116c-1.28-2.227-2.516-4.479-3.727-6.765
				c-0.61-1.144-1.194-2.3-1.773-3.491c-0.541-1.24-1.158-2.471-1.626-3.728c-2.007-5.012-3.452-10.138-4.52-15.303
				c-0.542-2.582-1.038-5.168-1.381-7.776c-0.355-2.631-0.676-5.164-0.831-7.937L225.93,169.508z"/>
			<path style="fill:#263238;" d="M223.134,159.555c3.552,0.904,6.037,15.523,6.037,15.523l-13.586,9.239
				c0,0-5.589-17.33-2.856-21.235C215.575,159.015,217.95,158.235,223.134,159.555z"/>
			<polygon style="opacity:0.2;" points="222.813,162.82 225.542,177.555 220.04,181.286 			"/>
			<path style="fill:#FF8B7B;" d="M242.216,224.441l7.227,5.802l-7.396,2.439c0,0-4.076-3.744-3.186-7.214L242.216,224.441z"/>
			<g>
				<polygon style="fill:#FF8B7B;" points="252.637,233.382 245.302,235.708 242.046,232.682 249.443,230.243 				"/>
			</g>
			<path style="fill:#407BFF;" d="M293.117,264.073l-45.566-11.467c-4.833-1.216-7.616-6.122-6.183-10.901l1.202-4.008
				c1.433-4.779,6.559-7.694,11.393-6.477l45.566,11.467c4.833,1.216,7.616,6.122,6.183,10.901l-1.202,4.008
				C303.077,262.375,297.951,265.289,293.117,264.073z"/>
			<polygon style="fill:#FF8B7B;" points="203.915,405.604 212.533,405.604 213.109,385.644 204.49,385.644 			"/>
			<polygon style="fill:#FF8B7B;" points="130.845,367.575 137.986,372.4 151.457,357.413 144.315,352.587 			"/>
			<path style="fill:#263238;" d="M138.944,371.999l-6.59-7.095c-0.24-0.258-0.614-0.301-0.899-0.103l-6.364,4.405
				c-0.66,0.457-0.746,1.469-0.183,2.056c2.34,2.434,3.592,3.491,6.49,6.611c1.783,1.919,5.568,7.814,8.03,10.465
				c2.408,2.593,5.214,0.357,4.426-0.967c-3.532-5.938-4.17-10.987-4.318-13.955C139.51,372.88,139.295,372.377,138.944,371.999z"/>
			<path style="fill:#263238;" d="M212.829,404.606h-9.683c-0.352,0-0.638,0.245-0.688,0.589l-1.103,7.661
				c-0.114,0.795,0.569,1.547,1.382,1.533c3.376-0.058,5.003-0.256,9.261-0.256c2.62,0,8.038,0.272,11.656,0.272
				c3.538,0,3.811-3.577,2.304-3.901c-6.755-1.453-9.413-3.456-11.688-5.367C213.859,404.792,213.344,404.606,212.829,404.606z"/>
			<g style="opacity:0.2;">
				<polygon points="213.107,385.65 212.812,395.938 204.189,395.938 204.484,385.65 				"/>
				<polygon points="144.31,352.59 151.455,357.418 144.044,365.657 137.363,360.313 				"/>
			</g>
			<path style="fill:#263238;" d="M223.134,159.555c0,0,4.106,1.446-4.119,52.02c-13.891,0-28.246,0-35.005,0
				c0.587-14.247,0.604-23.032-6.205-52.27c0,0,7.334-1.595,14.865-1.958c5.891-0.284,10.717-0.472,15.895,0.001
				C215.392,157.971,223.134,159.555,223.134,159.555z"/>
			<path style="fill:#263238;" d="M206.826,126.896c0.211-8.485-13.116-8.117-16.517-6.896c-6.808,2.444-17.666,23.727,2.625,29.769
				c9.708,2.891,19.986,3.035,27.889-4.714c5.12-5.021,4.136-9.674,0.153-8.972c-2.108,0.371,3.04-14.661-6.097-13.186
				C207.509,124.086,206.826,126.896,206.826,126.896z"/>
			<path style="opacity:0.2;" d="M180.692,170.88c3.17,0.79,6.1,4.25,5.75,10.62c-0.21,3.82-1.96,6.71-2.92,8.02
				c-0.56-4.9-1.5-10.59-2.99-17.87L180.692,170.88z"/>
			<path style="fill:#FF8B7B;" d="M194.244,139.449c1.003,5.115,2.003,14.485-1.575,17.898c0,0,3.571,3.181,12.896,8.097
				c7.091-5.667,2.999-8.097,2.999-8.097c-5.703-1.362-5.556-5.593-4.563-9.567L194.244,139.449z"/>
			<path style="opacity:0.2;" d="M198.222,142.848l5.775,4.928c-0.239,0.941-0.424,1.894-0.49,2.821
				c-2.179-0.315-5.605-2.171-6.073-4.54C197.212,144.935,198.037,143.378,198.222,142.848z"/>
			<path style="fill:#FF8B7B;" d="M192.235,126.427c-1.231,8.465-1.933,12.022,1.392,17.193c5.003,7.778,15.669,7.439,19.405-0.487
				c3.363-7.135,4.812-19.779-2.675-24.813C202.981,113.361,193.467,117.962,192.235,126.427z"/>
			<path style="fill:#263238;" d="M193.212,132.774c4.185,1.837,6.389-7.218,4.976-9.462c4.611,1.833,22.585,2.861,26.455-0.354
				c2.708-2.25-3.542-2.125-9.625-6c-7.924-5.047-19.361-6.236-23.139,2.431C189.1,121,182.767,129.992,193.212,132.774z"/>
			<path style="fill:#263238;" d="M188.921,121.25c-4.583-6.619,4.513-13.806,21.235-10.75c10.321,1.886,10.159,0.056,12.635-0.722
				c2.476-0.778,0.84,10.111-11.441,10.389C201.147,120.397,191.274,124.649,188.921,121.25z"/>
			<path style="fill:#407BFF;" d="M176.542,132.508c-0.092,0-0.185-0.025-0.269-0.079c-0.233-0.148-0.301-0.458-0.152-0.69
				l6.505-10.193c0.148-0.232,0.458-0.301,0.69-0.152c0.233,0.148,0.301,0.457,0.152,0.69l-6.505,10.193
				C176.869,132.427,176.707,132.508,176.542,132.508z"/>
			<path style="fill:#263238;" d="M189.323,119.944c-2.111-3.667-7-6.278-10.111-3.222c-3.87,3.801-0.278,10.347,6,10.174
				C191.489,126.722,189.323,119.944,189.323,119.944z"/>
			<path style="fill:#407BFF;" d="M184.623,119.847c-0.092,0-0.185-0.025-0.269-0.079c-0.233-0.148-0.301-0.458-0.152-0.69
				l5.836-9.145c0.148-0.232,0.457-0.301,0.69-0.152c0.233,0.148,0.301,0.457,0.152,0.69l-5.837,9.145
				C184.949,119.766,184.788,119.847,184.623,119.847z"/>
			<path style="fill:#407BFF;" d="M219.015,211.576c0,0,6.798,66.394,6.234,92.678c-0.588,27.339-10.606,89.692-10.606,89.692
				h-11.655c0,0,1.844-60.755,0.814-87.605c-1.123-29.271-10.421-94.765-10.421-94.765H219.015z"/>
			<polygon style="fill:#263238;" points="201.978,394.363 215.653,394.363 216.656,390.001 201.342,389.468 			"/>
			<path style="opacity:0.2;" d="M203.915,228.095c8.598,17.296,1.726,48.848-1.314,60.586c-1.559-17.63-4.188-39.18-6.237-55.006
				C197.667,224.721,199.95,220.121,203.915,228.095z"/>
			<path style="fill:#407BFF;" d="M209.771,211.576c0,0-7.93,69.025-13.918,91.185c-7.11,26.309-48.505,61.894-48.505,61.894
				l-9.739-6.58c0,0,30.518-36.779,35.458-53.529c8.99-30.477,1.671-73.666,10.942-92.97H209.771z"/>
			<polygon style="fill:#263238;" points="136.461,356.803 147.411,366.43 151.605,364.013 139.233,352.107 			"/>
			<path style="fill:#263238;" d="M205.101,131.429c-0.142,0.68,0.103,1.307,0.548,1.4c0.445,0.093,0.921-0.383,1.063-1.064
				c0.142-0.68-0.103-1.307-0.548-1.4C205.719,130.272,205.243,130.749,205.101,131.429z"/>
			<path style="fill:#263238;" d="M212.793,133.035c-0.142,0.681,0.103,1.307,0.548,1.4c0.445,0.093,0.921-0.384,1.063-1.064
				c0.142-0.681-0.103-1.308-0.548-1.4C213.411,131.878,212.935,132.355,212.793,133.035z"/>
			<path style="fill:#263238;" d="M213.652,131.968l1.733-0.13C215.385,131.838,214.279,132.939,213.652,131.968z"/>
			<path style="fill:#FF5652;" d="M210.166,133.766c0,0,0.543,3.171,1.519,4.85c-1.074,0.651-2.521-0.051-2.521-0.051
				L210.166,133.766z"/>
			<path style="fill:#263238;" d="M204.896,140.455c0.303,0.114,0.632,0.21,0.987,0.284c0.11,0.023,0.219-0.048,0.242-0.158
				c0.023-0.111-0.046-0.224-0.158-0.242c-2.987-0.629-3.946-3.001-3.955-3.025c-0.041-0.105-0.159-0.158-0.264-0.116
				c-0.105,0.041-0.157,0.16-0.116,0.264C201.668,137.558,202.469,139.545,204.896,140.455z"/>
			<path style="fill:#FF8B7B;" d="M188.415,132.437c0.137,1.768,1.077,3.308,2.2,4.238c1.688,1.399,3.421,0.104,3.697-1.955
				c0.248-1.853-0.331-4.814-2.383-5.414C189.906,128.714,188.258,130.415,188.415,132.437z"/>
			<path style="fill:#263238;" d="M203.424,127.383c0.127,0.116,0.319,0.143,0.477,0.053c1.641-0.935,3.851,0.083,3.873,0.093
				c0.204,0.096,0.447,0.008,0.543-0.196c0.096-0.203,0.01-0.446-0.196-0.543c-0.106-0.05-2.619-1.205-4.624-0.063
				c-0.196,0.112-0.264,0.361-0.153,0.557C203.366,127.322,203.393,127.355,203.424,127.383z"/>
			<path style="fill:#263238;" d="M216.563,128.572c0.13,0.049,0.282,0.03,0.399-0.063c0.176-0.141,0.204-0.398,0.063-0.574
				c-1.412-1.762-3.292-1.599-3.37-1.591c-0.225,0.022-0.388,0.222-0.367,0.446c0.022,0.224,0.221,0.386,0.446,0.367
				c0.075-0.007,1.532-0.11,2.653,1.289C216.435,128.505,216.496,128.548,216.563,128.572z"/>
			<path style="fill:#407BFF;" d="M141.193,376.07c0.034,0.006,0.068,0.01,0.103,0.013c0.389,0.032,0.734-0.132,1.025-0.49
				c0.219-0.27,0.199-0.523,0.144-0.688c-0.35-1.043-3.369-1.812-3.712-1.896c-0.085-0.023-0.162,0.01-0.212,0.075
				c-0.049,0.065-0.055,0.153-0.015,0.224C139.074,374.274,140.135,375.887,141.193,376.07z M139.133,373.533
				c1.198,0.343,2.76,0.953,2.944,1.502c0.024,0.069,0.036,0.166-0.073,0.301c-0.203,0.25-0.424,0.362-0.674,0.341
				C140.735,375.636,139.935,374.836,139.133,373.533z"/>
			<path style="fill:#407BFF;" d="M138.953,373.474c1.055,0.182,3.077,0.015,3.599-0.709c0.111-0.153,0.252-0.474-0.051-0.891
				c-0.192-0.264-0.458-0.412-0.788-0.448c-1.245-0.122-3.072,1.558-3.149,1.63c-0.053,0.05-0.076,0.124-0.06,0.195
				c0.016,0.071,0.068,0.128,0.137,0.15C138.731,373.43,138.836,373.454,138.953,373.474z M141.736,371.842
				c0.183,0.032,0.326,0.121,0.436,0.272c0.154,0.213,0.107,0.332,0.05,0.412c-0.353,0.489-2.042,0.724-3.079,0.569
				c0.638-0.528,1.79-1.335,2.532-1.262C141.695,371.836,141.716,371.839,141.736,371.842z"/>
			<path style="fill:#407BFF;" d="M216.064,406.113c0.857,0,1.648-0.133,2.091-0.531c0.281-0.253,0.405-0.587,0.369-0.994
				c-0.022-0.243-0.142-0.431-0.346-0.542c-1.058-0.582-4.492,1.176-4.88,1.378c-0.077,0.04-0.12,0.124-0.108,0.21
				c0.012,0.086,0.077,0.155,0.162,0.172C214.084,405.95,215.115,406.113,216.064,406.113z M217.601,404.329
				c0.158,0,0.288,0.023,0.381,0.074c0.084,0.046,0.126,0.114,0.135,0.221c0.025,0.276-0.052,0.489-0.234,0.653
				c-0.523,0.471-1.941,0.553-3.852,0.235C215.214,404.946,216.785,404.329,217.601,404.329z"/>
			<path style="fill:#407BFF;" d="M213.392,405.809c0.029,0,0.057-0.006,0.084-0.018c1.027-0.464,3.059-2.323,2.9-3.3
				c-0.038-0.231-0.202-0.519-0.767-0.576c-0.415-0.044-0.799,0.076-1.131,0.353c-1.083,0.902-1.282,3.223-1.29,3.321
				c-0.006,0.072,0.027,0.142,0.086,0.184C213.309,405.796,213.35,405.809,213.392,405.809z M215.445,402.315
				c0.04,0,0.081,0.002,0.123,0.006c0.373,0.038,0.397,0.187,0.405,0.236c0.096,0.586-1.284,2.048-2.331,2.683
				c0.101-0.675,0.387-2.067,1.098-2.659C214.955,402.402,215.186,402.315,215.445,402.315z"/>
			<path style="fill:#263238;" d="M205.96,130.362l1.733-0.13C207.692,130.232,206.587,131.334,205.96,130.362z"/>
			<g>
				<path style="fill:#FFFFFF;" d="M183.485,209.521l-0.895,3.133c-0.122,0.243,0.165,0.491,0.57,0.491h36.027
					c0.316,0,0.577-0.155,0.597-0.353l0.316-3.133c0.022-0.217-0.252-0.401-0.597-0.401h-35.448
					C183.795,209.258,183.564,209.365,183.485,209.521z"/>
			</g>
			<g>
				<path style="fill:#407BFF;" d="M188.363,213.485h-0.949c-0.189,0-0.333-0.098-0.32-0.217l0.445-4.071
					c0.013-0.119,0.178-0.217,0.367-0.217h0.949c0.189,0,0.333,0.097,0.32,0.217l-0.445,4.071
					C188.718,213.387,188.552,213.485,188.363,213.485z"/>
			</g>
			<g>
				<path style="fill:#407BFF;" d="M216.52,213.485h-0.949c-0.189,0-0.333-0.098-0.32-0.217l0.445-4.071
					c0.013-0.119,0.178-0.217,0.367-0.217h0.949c0.189,0,0.333,0.097,0.32,0.217l-0.445,4.071
					C216.874,213.387,216.709,213.485,216.52,213.485z"/>
			</g>
			<g>
				<path style="fill:#407BFF;" d="M202.5,213.485h-0.949c-0.189,0-0.333-0.098-0.32-0.217l0.445-4.071
					c0.013-0.119,0.178-0.217,0.367-0.217h0.949c0.189,0,0.333,0.097,0.32,0.217l-0.445,4.071
					C202.854,213.387,202.689,213.485,202.5,213.485z"/>
			</g>
			<path style="fill:#407BFF;" d="M218.016,203.5h8.563c0.551,0,1.029-0.38,1.152-0.917l3.723-16.163
				c0.171-0.741-0.392-1.448-1.152-1.448h-8.563c-0.551,0-1.029,0.38-1.152,0.917l-3.723,16.164
				C216.693,202.793,217.255,203.5,218.016,203.5z"/>
			<path style="fill:#FF8B7B;" d="M212.789,195.826l8.501-3.799l-2.423,8.423c0,0-5.397,1.225-7.746-1.481L212.789,195.826z"/>
			<path style="fill:#FF8B7B;" d="M182.449,170.897c-0.363,2.668-0.758,5.46-1.042,8.192c-0.332,2.739-0.601,5.479-0.747,8.176
				c-0.145,2.68-0.234,5.394,0.016,7.732c0.059,0.574,0.141,1.117,0.242,1.555c0.101,0.47,0.215,0.705,0.23,0.79
				c0.111,0.249,0.575,0.675,1.449,1.026c0.852,0.355,1.98,0.606,3.174,0.749c1.199,0.15,2.479,0.189,3.782,0.195
				c2.615-0.001,5.322-0.262,8.042-0.58c2.722-0.333,5.456-0.799,8.187-1.331c2.731-0.494,5.488-1.118,8.163-1.736l1.38,4.141
				c-5.411,2.196-10.884,3.922-16.617,5.232c-2.863,0.662-5.788,1.155-8.839,1.414c-1.529,0.127-3.089,0.168-4.717,0.082
				c-1.626-0.094-3.322-0.301-5.146-0.892c-0.91-0.298-1.853-0.71-2.793-1.316c-0.935-0.602-1.867-1.426-2.604-2.462
				c-0.763-1.099-1.195-2.19-1.47-3.086c-0.287-0.925-0.468-1.778-0.613-2.607c-0.517-3.285-0.566-6.268-0.501-9.248
				c0.078-2.969,0.283-5.882,0.552-8.781c0.324-2.905,0.655-5.738,1.175-8.671L182.449,170.897z"/>
			<path style="fill:#263238;" d="M177.804,159.305c-3.507,1.066-7.435,13.778-7.435,13.778l14.333,6.083
				c0,0,3.951-7.072,2.477-11.605C185.645,162.841,181.806,158.089,177.804,159.305z"/>
			<polygon style="fill:#FF8B7B;" points="228.323,193.775 225.913,200.717 218.868,200.45 221.291,192.026 			"/>
		</g>
	</g>
</g>
</svg>
