<?xml version="1.0" encoding="utf-8"?>
<!-- Generator: Adobe Illustrator 27.5.0, SVG Export Plug-In . SVG Version: 6.00 Build 0)  -->
<svg version="1.1" xmlns="http://www.w3.org/2000/svg" xmlns:xlink="http://www.w3.org/1999/xlink" x="0px" y="0px"
	 viewBox="0 0 500 500" style="enable-background:new 0 0 500 500;" xml:space="preserve">
<g id="Background_Complete">
	<g>
		<rect y="382.398" style="fill:#EBEBEB;" width="500" height="0.25"/>
		<rect x="52.459" y="391.922" style="fill:#EBEBEB;" width="33.122" height="0.25"/>
		<rect x="171.14" y="389.208" style="fill:#EBEBEB;" width="42.527" height="0.25"/>
		<rect x="93.474" y="395.431" style="fill:#EBEBEB;" width="19.192" height="0.25"/>
		<rect x="434.667" y="399.528" style="fill:#EBEBEB;" width="15.234" height="0.25"/>
		<rect x="391.471" y="399.528" style="fill:#EBEBEB;" width="34.292" height="0.25"/>
		<rect x="308" y="392.333" style="fill:#EBEBEB;" width="23.833" height="0.25"/>
		<path style="fill:#EBEBEB;" d="M237.014,337.8H43.915c-3.147,0-5.708-2.561-5.708-5.708V60.66c0-3.147,2.561-5.708,5.708-5.708
			h193.099c3.146,0,5.707,2.561,5.707,5.708v271.432C242.721,335.239,240.16,337.8,237.014,337.8z M43.915,55.203
			c-3.01,0-5.458,2.448-5.458,5.458v271.432c0,3.01,2.448,5.458,5.458,5.458h193.099c3.009,0,5.457-2.448,5.457-5.458V60.66
			c0-3.009-2.448-5.458-5.457-5.458H43.915z"/>
		<path style="fill:#EBEBEB;" d="M453.31,337.8H260.212c-3.147,0-5.707-2.561-5.707-5.708V60.66c0-3.147,2.561-5.708,5.707-5.708
			H453.31c3.148,0,5.708,2.561,5.708,5.708v271.432C459.019,335.239,456.458,337.8,453.31,337.8z M260.212,55.203
			c-3.009,0-5.457,2.448-5.457,5.458v271.432c0,3.01,2.448,5.458,5.457,5.458H453.31c3.01,0,5.458-2.448,5.458-5.458V60.66
			c0-3.009-2.448-5.458-5.458-5.458H260.212z"/>
	</g>
	<g>
		<g>
			<g>
				<g>
					
						<rect x="272.38" y="251.667" transform="matrix(-1 -1.224647e-16 1.224647e-16 -1 579.8612 634.0651)" style="fill:#E6E6E6;" width="35.101" height="130.732"/>
					<polygon style="fill:#F0F0F0;" points="278.222,382.398 272.38,382.398 272.38,370.635 284.347,370.635 					"/>
					
						<rect x="415.24" y="251.667" transform="matrix(-1 -1.224647e-16 1.224647e-16 -1 865.5811 634.0651)" style="fill:#E6E6E6;" width="35.101" height="130.732"/>
					
						<rect x="272.38" y="251.667" transform="matrix(-1 -1.224647e-16 1.224647e-16 -1 692.7184 629.5478)" style="fill:#F0F0F0;" width="147.958" height="126.214"/>
					
						<rect x="276.912" y="257.261" transform="matrix(-1 -1.224647e-16 1.224647e-16 -1 692.7183 549.1341)" style="fill:#E6E6E6;" width="138.895" height="34.613"/>
					<path style="fill:#F0F0F0;" d="M339.798,268.017h13.121c5.699,0,11.148-4.27,15.068-11.809l0,0H324.73l0,0
						C328.65,263.747,334.099,268.017,339.798,268.017z"/>
					<polygon style="fill:#F0F0F0;" points="414.496,382.398 420.338,382.398 420.338,370.635 408.372,370.635 					"/>
					
						<rect x="276.912" y="297.467" transform="matrix(-1 -1.224647e-16 1.224647e-16 -1 692.7183 629.5477)" style="fill:#E6E6E6;" width="138.895" height="34.613"/>
					<path style="fill:#F0F0F0;" d="M339.798,308.224h13.121c5.699,0,11.148-4.27,15.068-11.809l0,0H324.73l0,0
						C328.65,303.954,334.099,308.224,339.798,308.224z"/>
					
						<rect x="276.912" y="337.674" transform="matrix(-1 -1.224647e-16 1.224647e-16 -1 692.7183 709.9613)" style="fill:#E6E6E6;" width="138.895" height="34.613"/>
					<path style="fill:#F0F0F0;" d="M339.798,348.431h13.121c5.699,0,11.148-4.27,15.068-11.809l0,0H324.73l0,0
						C328.65,344.16,334.099,348.431,339.798,348.431z"/>
				</g>
			</g>
			<g>
				<polygon style="fill:#E6E6E6;" points="410.969,194.556 332.852,194.556 328.394,248.675 406.511,248.675 				"/>
				<polygon style="fill:#E6E6E6;" points="406.511,248.675 406.195,251.667 328.074,251.667 328.39,248.675 				"/>
				<polygon style="fill:#F0F0F0;" points="408.565,194.556 330.448,194.556 325.99,248.675 404.106,248.675 				"/>
				<path style="fill:#FFFFFF;" d="M402.527,245.15l3.264-46.881c0.046-0.668-0.403-1.24-0.974-1.24h-71.816
					c-0.509,0-0.932,0.458-0.974,1.053l-3.265,46.881c-0.047,0.668,0.403,1.24,0.974,1.24h71.817
					C402.062,246.203,402.486,245.745,402.527,245.15z"/>
				<polygon style="fill:#F0F0F0;" points="383.752,248.675 383.436,251.667 297.414,251.667 297.729,248.675 				"/>
			</g>
		</g>
		<g>
			<g>
				
					<rect x="52.912" y="302.129" transform="matrix(-1 -1.224647e-16 1.224647e-16 -1 133.0127 684.527)" style="fill:#E6E6E6;" width="27.188" height="80.269"/>
				<polygon style="fill:#F0F0F0;" points="58.076,382.398 52.912,382.398 52.912,363.254 63.491,363.254 				"/>
				
					<rect x="208.04" y="302.129" transform="matrix(-1 -1.224647e-16 1.224647e-16 -1 443.2682 684.527)" style="fill:#E6E6E6;" width="27.188" height="80.269"/>
				
					<rect x="52.912" y="302.129" transform="matrix(-1 -1.224647e-16 1.224647e-16 -1 265.4591 679.302)" style="fill:#F0F0F0;" width="159.635" height="75.044"/>
				<polygon style="fill:#F0F0F0;" points="207.383,382.398 212.547,382.398 212.547,363.254 201.968,363.254 				"/>
				<g>
					
						<rect x="154.307" y="315.648" transform="matrix(6.123234e-17 -1 1 6.123234e-17 -155.7305 522.8865)" style="fill:#E6E6E6;" width="58.543" height="47.321"/>
					<path style="fill:#F0F0F0;" d="M178.898,313.175h9.362c4.066,0,7.954-1.591,10.751-4.401l0,0h-30.864l0,0
						C170.944,311.584,174.831,313.175,178.898,313.175z"/>
				</g>
				<g>
					
						<rect x="103.458" y="315.648" transform="matrix(6.123234e-17 -1 1 6.123234e-17 -206.5793 472.0378)" style="fill:#E6E6E6;" width="58.543" height="47.321"/>
					<path style="fill:#F0F0F0;" d="M127.571,313.175h9.362c4.066,0,7.954-1.591,10.751-4.401l0,0H116.82l0,0
						C119.617,311.584,123.504,313.175,127.571,313.175z"/>
				</g>
				<g>
					
						<rect x="52.609" y="315.648" transform="matrix(6.123234e-17 -1 1 6.123234e-17 -257.428 421.189)" style="fill:#E6E6E6;" width="58.543" height="47.321"/>
					<path style="fill:#F0F0F0;" d="M76.722,313.175h9.362c4.066,0,7.954-1.591,10.751-4.401h0H65.971l0,0
						C68.768,311.584,72.655,313.175,76.722,313.175z"/>
				</g>
			</g>
			<g>
				<path style="fill:#F5F5F5;" d="M160.446,302.007h-28.035c-3.487,0-6.313-2.827-6.313-6.313v-33.173
					c0-3.487,2.826-6.313,6.313-6.313h28.035c3.487,0,6.313,2.827,6.313,6.313v33.173
					C166.759,299.181,163.933,302.007,160.446,302.007z"/>
				<path style="fill:#F5F5F5;" d="M203.184,302.007H181.62c-2.682,0-4.856-2.174-4.856-4.856v-25.516
					c0-2.682,2.174-4.856,4.856-4.856h21.564c2.682,0,4.856,2.174,4.856,4.856v25.516
					C208.04,299.833,205.866,302.007,203.184,302.007z"/>
				<path style="fill:#F0F0F0;" d="M61.243,284.538c0,0,1.003,17.47,39.439,17.47s39.439-17.47,39.439-17.47H61.243z"/>
			</g>
		</g>
		<g>
			
				<rect x="73.297" y="75.651" transform="matrix(-1 -1.224647e-16 1.224647e-16 -1 294.7744 311.7243)" style="fill:#E6E6E6;" width="148.18" height="160.422"/>
			
				<rect x="68.776" y="75.651" transform="matrix(-1 -1.224647e-16 1.224647e-16 -1 288.1404 311.7243)" style="fill:#F0F0F0;" width="150.589" height="160.422"/>
			
				<rect x="73.297" y="236.073" transform="matrix(-1 -1.224647e-16 1.224647e-16 -1 294.7744 478.8951)" style="fill:#E6E6E6;" width="148.18" height="6.748"/>
			
				<rect x="61.243" y="236.073" transform="matrix(-1 -1.224647e-16 1.224647e-16 -1 273.0759 478.8951)" style="fill:#F0F0F0;" width="150.589" height="6.748"/>
			
				<rect x="70.189" y="86.898" transform="matrix(-1.836970e-16 1 -1 -1.836970e-16 299.9325 11.792)" style="fill:#FAFAFA;" width="147.763" height="137.929"/>
			<polygon style="fill:#FFFFFF;" points="181.933,229.745 164.316,81.982 136.825,81.982 154.443,229.745 			"/>
			<path style="fill:#F0F0F0;" d="M210.104,224.333c0.25,0,0.452-0.202,0.452-0.452V86.099c0-0.25-0.202-0.452-0.452-0.452
				c-0.25,0-0.452,0.202-0.452,0.452v137.782C209.652,224.131,209.855,224.333,210.104,224.333z"/>
			<polygon style="fill:#FFFFFF;" points="148.537,229.745 130.92,81.982 120.203,81.982 137.82,229.745 			"/>
			
				<rect x="1.626" y="155.46" transform="matrix(-1.836970e-16 1 -1 -1.836970e-16 231.3697 80.3547)" style="fill:#E6E6E6;" width="147.763" height="0.804"/>
			<polygon style="opacity:0.6;fill:#EBEBEB;" points="67.277,95.442 215.458,95.442 216.04,84.44 67.86,84.44 			"/>
			<polygon style="opacity:0.6;fill:#EBEBEB;" points="67.277,113.487 215.458,113.487 216.04,102.484 67.86,102.484 			"/>
			<polygon style="opacity:0.6;fill:#EBEBEB;" points="67.277,131.531 215.458,131.531 216.04,120.529 67.86,120.529 			"/>
			<polygon style="opacity:0.6;fill:#EBEBEB;" points="67.277,149.576 215.458,149.576 216.04,138.573 67.86,138.573 			"/>
			<polygon style="opacity:0.6;fill:#EBEBEB;" points="67.277,167.62 215.458,167.62 216.04,156.618 67.86,156.618 			"/>
			<polygon style="opacity:0.6;fill:#EBEBEB;" points="67.277,185.665 215.458,185.665 216.04,174.663 67.86,174.663 			"/>
		</g>
		<g>
			
				<rect x="299.746" y="88.915" transform="matrix(-1 -1.224647e-16 1.224647e-16 -1 717.9232 260.5544)" style="fill:#F0F0F0;" width="118.432" height="82.725"/>
			
				<rect x="293.78" y="88.915" transform="matrix(-1 -1.224647e-16 1.224647e-16 -1 710.889 260.5544)" style="fill:#F5F5F5;" width="123.328" height="82.725"/>
			
				<rect x="320.601" y="75.132" transform="matrix(-1.836970e-16 1 -1 -1.836970e-16 485.7218 -225.1674)" style="fill:#FFFFFF;" width="69.686" height="110.29"/>
			<path style="fill:#F5F5F5;" d="M392.836,141.807v-23.06c0-3.547-2.875-6.423-6.423-6.423h-20.531
				c-3.547,0-6.423,2.876-6.423,6.423v23.06c0,3.547,2.875,6.423,6.423,6.423h20.531
				C389.961,148.23,392.836,145.354,392.836,141.807z"/>
			<path style="fill:#F5F5F5;" d="M351.429,141.807v-23.06c0-3.547-2.876-6.423-6.423-6.423h-20.531
				c-3.547,0-6.423,2.876-6.423,6.423v23.06c0,3.547,2.876,6.423,6.423,6.423h20.531
				C348.554,148.23,351.429,145.354,351.429,141.807z"/>
		</g>
	</g>
</g>
<g id="Background_Simple" style="display:none;">
	<g style="display:inline;">
		<path style="fill:#407BFF;" d="M272.967,160.69c43.429,4.996,79.041-3.929,113.355,34.654
			c32.45,36.487,27.77,72.629,1.291,106.311c-69.172,87.987-155.063-3.464-252.291-8.299
			c-84.73-4.214-122.285-140.79-55.107-197.783c21.653-18.37,65.745-38.131,94.829-20.217
			C215.801,100.458,213.275,153.823,272.967,160.69z"/>
		<path style="opacity:0.9;fill:#FFFFFF;" d="M272.967,160.69c43.429,4.996,79.041-3.929,113.355,34.654
			c32.45,36.487,27.77,72.629,1.291,106.311c-69.172,87.987-155.063-3.464-252.291-8.299
			c-84.73-4.214-122.285-140.79-55.107-197.783c21.653-18.37,65.745-38.131,94.829-20.217
			C215.801,100.458,213.275,153.823,272.967,160.69z"/>
	</g>
</g>
<g id="Shadow_1_">
	<ellipse id="_x3C_Path_x3E__139_" style="fill:#F5F5F5;" cx="250" cy="416.238" rx="193.889" ry="11.323"/>
</g>
<g id="Character_1_">
	<g>
		<polygon style="fill:#7F3E3B;" points="294.08,397.546 286.331,394.732 290.597,376.058 298.346,378.872 		"/>
		<polygon style="fill:#7F3E3B;" points="355.202,407.839 346.976,407.839 344.642,388.789 352.868,388.789 		"/>
		<path style="fill:#263238;" d="M345.897,406.886h10.029c0.336,0,0.63,0.234,0.706,0.562l1.698,7.312
			c0.176,0.758-0.413,1.476-1.19,1.463c-3.227-0.056-5.584-0.245-9.648-0.245c-2.5,0-10.038,0.26-13.491,0.26
			c-3.377,0-3.938-3.414-2.527-3.723c6.324-1.386,11.082-3.299,13.092-5.123C344.929,407.063,345.405,406.886,345.897,406.886z"/>
		<path style="fill:#263238;" d="M286.047,393.156l8.803,1.888c0.33,0.071,0.568,0.36,0.574,0.696l0.127,7.489
			c0.013,0.776-0.695,1.358-1.453,1.182c-3.165-0.735-7.715-1.905-11.706-2.761c-4.667-1.001-7.56-1.945-13.033-3.119
			c-3.309-0.71-3.543-4.244-2.096-4.249c6.588-0.023,10.578,1.267,16.714-0.916C284.644,393.129,285.351,393.007,286.047,393.156z"
			/>
		<path style="fill:#803E3C;" d="M338.312,162.955c-2.522,3.843-5.103,7.675-7.712,11.469l-7.859,11.329
			c-1.282,1.883-2.618,3.75-3.838,5.593c-0.832,1.206-1.898,2.595-3.348,3.769c-1.433,1.187-3.384,2.251-5.526,2.595
			c-1.063,0.193-2.123,0.173-3.125,0.072c-0.978-0.142-1.918-0.359-2.735-0.687c-1.655-0.65-2.99-1.508-4.117-2.445
			c-1.126-0.943-2.093-1.938-2.928-2.995c-0.427-0.52-0.815-1.062-1.185-1.613c-0.387-0.565-0.681-1.084-1.074-1.768l4.9-3.761
			l1.194,0.855c0.42,0.293,0.844,0.576,1.265,0.842c0.847,0.529,1.69,0.989,2.494,1.321c0.799,0.338,1.548,0.541,2.112,0.549
			c0.573,0.038,0.871-0.104,0.987-0.268c0.121-0.156,0.241-0.282,0.505-0.66c0.264-0.388,0.554-0.896,0.946-1.648
			c1.182-2.11,2.344-4.137,3.561-6.146c2.41-4.011,4.874-7.952,7.395-11.855c1.264-1.948,2.531-3.893,3.838-5.81
			c1.3-1.924,2.585-3.849,3.94-5.747L338.312,162.955z"/>
		<g>
			<path style="fill:#407BFF;" d="M342.478,158.037c1.33,7.773-16.535,26.251-16.535,26.251l-14.451-12.037
				c0,0,5.802-9.846,12.959-17.009C331.798,147.887,341.018,149.506,342.478,158.037z"/>
			<path style="opacity:0.7;fill:#FFFFFF;" d="M342.478,158.037c1.33,7.773-16.535,26.251-16.535,26.251l-14.451-12.037
				c0,0,5.802-9.846,12.959-17.009C331.798,147.887,341.018,149.506,342.478,158.037z"/>
		</g>
		<path style="opacity:0.2;" d="M331.148,167.049c-4.195,1.322-9.272,7.535-10.555,12.782l5.353,4.458
			c0,0,6.864-7.096,11.763-14.344C336.738,167.89,335.953,165.534,331.148,167.049z"/>
		<g>
			<polygon style="opacity:0.2;" points="290.598,376.063 288.397,385.688 296.149,388.504 298.35,378.879 			"/>
			<polygon style="opacity:0.2;" points="352.871,388.794 344.641,388.794 345.848,398.613 354.078,398.613 			"/>
		</g>
		<g>
			<path style="fill:#407BFF;" d="M379.247,159.319c-3.606,8.694-6.325,17.674-8.429,26.184c-1.536,6.227-2.729,12.206-3.678,17.645
				c-2.229,12.748-3.13,22.572-3.911,25.838c-6.325-1.278-30.16-6.101-43.156-8.737c-0.314-47.231,13.895-69.683,13.895-69.683
				s4.934-0.331,10.573,0.076c0.743,0.049,1.496,0.121,2.26,0.206c4.942,0.541,12.888,2.334,18.348,3.714
				c1.148,0.291,2.305,0.616,3.428,0.951C374.29,157.226,379.247,159.319,379.247,159.319z"/>
			<path style="opacity:0.7;fill:#FFFFFF;" d="M379.247,159.319c-3.606,8.694-6.325,17.674-8.429,26.184
				c-1.536,6.227-2.729,12.206-3.678,17.645c-2.229,12.748-3.13,22.572-3.911,25.838c-6.325-1.278-30.16-6.101-43.156-8.737
				c-0.314-47.231,13.895-69.683,13.895-69.683s4.934-0.331,10.573,0.076c0.743,0.049,1.496,0.121,2.26,0.206
				c4.942,0.541,12.888,2.334,18.348,3.714c1.148,0.291,2.305,0.616,3.428,0.951C374.29,157.226,379.247,159.319,379.247,159.319z"
				/>
		</g>
		<path style="fill:#407BFF;" d="M347.728,159.714c-1.692,3.02-4.023,5.34-6.931,13.492c0.186,1.857,0.458,3.736,0.814,5.636
			c1.332-1.53,2.732-3.044,4.197-4.542c2.115-7.986,1.724-10.282,3.633-14.18L347.728,159.714z"/>
		<polygon style="fill:#407BFF;" points="347.321,162.336 346.619,157.984 349.788,157.296 351.713,159.075 		"/>
		<path style="fill:#263238;" d="M368.577,155.512c-10.71,7.364-19.811,15.113-26.966,23.329
			c-1.885-10.065-1.435-19.536,1.922-28.265c-5.206-0.302-9.565-0.01-9.565-0.01s-14.209,22.451-13.895,69.683
			c12.995,2.635,36.831,7.459,43.156,8.737c0.782-3.265,1.683-13.09,3.911-25.838c0.949-5.439,2.143-11.418,3.678-17.645
			c2.104-8.511,4.823-17.49,8.429-26.185C379.247,159.319,374.29,157.226,368.577,155.512z"/>
		<path style="fill:#7F3E3B;" d="M367.303,133.527c-2.293,5.671-5.529,16.258-2.156,21.035c-3.628,2.506-8.623,4.252-15.226,2.765
			c-5.057-1.139-4.63-4.742-3.119-6.48c6.885-0.239,7.654-5.16,7.39-9.98L367.303,133.527z"/>
		<g>
			<path style="fill:#FFFFFF;" d="M349.788,157.296c0,0,1.423,2.847,3.184,5.736c3.701-1.068,12.501-4.157,13.12-8.608
				c-0.165-1.37-1.694-2.503-1.694-2.503S358.481,155.563,349.788,157.296z"/>
		</g>
		<g>
			<path style="fill:#FFFFFF;" d="M349.788,157.296c0,0-3.063,1.574-5.352,3.916c-2.046-2.183,1.04-10.054,2.137-10.764
				c2.201-0.817,3.488-0.398,3.488-0.398S346.162,155.538,349.788,157.296z"/>
		</g>
		<path style="opacity:0.2;" d="M361.957,136.522l-7.76,4.339c0.066,1.142,0.069,2.286-0.061,3.372
			c2.585,0.146,6.57-1.916,7.343-4.496C361.866,138.451,362.053,137.177,361.957,136.522z"/>
		<path style="fill:#263238;" d="M352.332,112.992c-2.242,2.448-4.496,8.575,0.407,8.529
			C357.642,121.474,356.185,108.784,352.332,112.992z"/>
		<path style="fill:#7F3E3B;" d="M371.202,126.514c-2.999,7.582-4.369,12.176-9.568,14.834c-7.82,3.998-16.203-2.763-15.527-11.112
			c0.608-7.515,5.411-18.652,13.98-19.183C368.529,110.53,374.201,118.932,371.202,126.514z"/>
		<path style="fill:#263238;" d="M354.404,115.979c-5.091-2.541-6.689-9.643,1.743-11.47c2.744-0.595,5.911-0.014,5.911-0.014
			s-2.197,1.367-1.441,3.405c1.363-1.399,5.436-3.725,9.728-1.265c-1.579,1.233-1.93,5.108,0.991,5.188
			c4.423,0.121,9.561,3.332,6.999,7.775c3.735,4.675-2.086,11.162-10.341,11.825c-2.241-4.53,1.383-11.233,1.383-11.233
			C365.23,120.111,359.019,118.283,354.404,115.979z"/>
		<path style="fill:#263238;" d="M377.097,119.764c0,0,3.769-0.528,2.489-4.072C382.403,118.052,380.345,120.226,377.097,119.764z"
			/>
		<path style="fill:#263238;" d="M376.323,120.346c0,0,3.654-1.064,3.939,2.693C381.865,119.732,379.096,118.593,376.323,120.346z"
			/>
		<path style="fill:#7F3E3B;" d="M372.085,133.938c-1.268,1.79-3.246,2.818-5.03,3.079c-2.683,0.394-3.704-2.104-2.69-4.47
			c0.913-2.13,3.408-4.901,5.972-4.21C372.863,129.016,373.535,131.891,372.085,133.938z"/>
		<g>
			<g>
				<path style="fill:#407BFF;" d="M286.124,382.846l13.123,4.76c0,0,10.253-45.138,15.701-70.161
					c1.658-7.612,4.991-18.079,8.938-29.23c4.98-14.049,10.924-29.167,15.723-40.987c5.06-12.448,8.83-21.233,8.83-21.233
					l-28.372-5.745c0,0-21.649,62.296-26.512,86.918C288.495,332.767,286.124,382.846,286.124,382.846z"/>
			</g>
			<g style="opacity:0.3;">
				<path d="M286.124,382.846l13.123,4.76c0,0,10.253-45.138,15.701-70.161c1.658-7.612,4.991-18.079,8.938-29.23
					c4.98-14.049,10.924-29.167,15.723-40.987c5.06-12.448,8.83-21.233,8.83-21.233l-28.372-5.745c0,0-21.649,62.296-26.512,86.918
					C288.495,332.767,286.124,382.846,286.124,382.846z"/>
			</g>
		</g>
		<path style="opacity:0.2;" d="M323.886,288.215c4.98-14.049,10.924-29.167,15.723-40.987l-2.196-6.791
			C329.296,247.951,324.228,273.836,323.886,288.215z"/>
		<g>
			<g>
				<path style="fill:#407BFF;" d="M335.374,223.349c0,0-5.065,71.031-5.372,95.166c-0.335,26.43,12.024,78.196,12.024,78.196
					h15.067c0,0-6.018-46.708-4.015-72.893c2.24-29.282,10.144-94.828,10.144-94.828L335.374,223.349z"/>
			</g>
			<g style="opacity:0.3;">
				<path d="M335.374,223.349c0,0-5.065,71.031-5.372,95.166c-0.335,26.43,12.024,78.196,12.024,78.196h15.067
					c0,0-6.018-46.708-4.015-72.893c2.24-29.282,10.144-94.828,10.144-94.828L335.374,223.349z"/>
			</g>
		</g>
		<polygon style="fill:#263238;" points="340.226,397.037 357.968,397.037 357.915,391.737 339.392,390.667 		"/>
		<polygon style="fill:#263238;" points="284.372,382.677 300.087,388.132 301.797,383.061 284.61,376.802 		"/>
		<path style="fill:#263238;" d="M358.775,124.727c-0.206,0.63-0.706,1.029-1.117,0.89c-0.411-0.139-0.578-0.762-0.372-1.392
			c0.206-0.63,0.706-1.029,1.117-0.89C358.814,123.473,358.98,124.096,358.775,124.727z"/>
		<path style="fill:#263238;" d="M351.663,122.329c-0.206,0.63-0.706,1.029-1.117,0.89c-0.411-0.139-0.578-0.762-0.373-1.392
			c0.206-0.63,0.706-1.029,1.117-0.89C351.701,121.076,351.868,121.699,351.663,122.329z"/>
		<path style="fill:#630F0F;" d="M353.821,123.405c0,0-2.608,3.007-4.752,4.17c0.777,1.355,2.825,1.515,2.825,1.515L353.821,123.405
			z"/>
		<path style="fill:#263238;" d="M354.584,134.489c-0.27-0.052-0.549-0.125-0.837-0.222c-0.102-0.034-0.158-0.145-0.125-0.247
			c0.033-0.103,0.146-0.157,0.245-0.123c2.765,0.928,4.681-0.567,4.701-0.582c0.083-0.067,0.206-0.052,0.273,0.032
			c0.067,0.085,0.054,0.208-0.03,0.275C358.736,133.682,357.083,134.973,354.584,134.489z"/>
		<path style="fill:#263238;" d="M361.718,123.165c-0.133-0.026-0.25-0.121-0.297-0.26c-0.565-1.652-1.95-2.03-1.964-2.034
			c-0.208-0.054-0.335-0.268-0.283-0.476c0.052-0.208,0.264-0.333,0.472-0.279c0.074,0.019,1.809,0.493,2.51,2.542
			c0.07,0.205-0.038,0.426-0.241,0.494C361.849,123.174,361.782,123.177,361.718,123.165z"/>
		<path style="fill:#263238;" d="M349.397,118.845c-0.073-0.014-0.142-0.049-0.199-0.105c-0.154-0.151-0.159-0.399-0.01-0.552
			c1.496-1.544,3.254-1.195,3.335-1.189c0.211,0.043,0.349,0.249,0.308,0.46c-0.041,0.211-0.242,0.347-0.452,0.306
			c-0.073-0.017-1.43-0.269-2.631,0.97C349.653,118.833,349.521,118.869,349.397,118.845z"/>
		<path style="fill:#407BFF;" d="M343.191,408.323c-0.626,0-1.213-0.106-1.589-0.419c-0.297-0.248-0.437-0.594-0.413-1.03
			c0.017-0.324,0.188-0.479,0.328-0.551c0.903-0.469,3.575,1.163,3.877,1.35c0.067,0.042,0.103,0.119,0.091,0.197
			c-0.012,0.077-0.069,0.139-0.145,0.158C344.77,408.166,343.952,408.323,343.191,408.323z M341.951,406.621
			c-0.102,0-0.187,0.015-0.252,0.049c-0.052,0.027-0.113,0.077-0.121,0.229c-0.016,0.31,0.073,0.541,0.272,0.707
			c0.454,0.377,1.529,0.429,2.922,0.148C343.838,407.217,342.582,406.621,341.951,406.621z"/>
		<path style="fill:#407BFF;" d="M345.294,408.033c-0.032,0-0.064-0.008-0.093-0.023c-0.856-0.463-2.52-2.265-2.355-3.182
			c0.03-0.166,0.15-0.454,0.615-0.511c0.303-0.035,0.582,0.047,0.832,0.251c0.964,0.781,1.184,3.155,1.193,3.255
			c0.006,0.072-0.027,0.14-0.086,0.179C345.368,408.023,345.331,408.033,345.294,408.033z M343.601,404.699
			c-0.029,0-0.059,0.002-0.088,0.005c-0.253,0.031-0.274,0.147-0.283,0.197c-0.097,0.541,0.965,1.904,1.817,2.546
			c-0.103-0.693-0.379-2.077-0.997-2.577C343.909,404.755,343.761,404.699,343.601,404.699z"/>
		<path style="fill:#407BFF;" d="M285.026,394.096c-0.009,0.001-0.018,0.002-0.026,0.002c-1.351-0.02-3.727-0.199-4.45-1.169
			c-0.218-0.292-0.274-0.63-0.168-1.004c0.064-0.222,0.209-0.375,0.419-0.439c1.096-0.342,3.995,2,4.322,2.267
			c0.064,0.053,0.089,0.14,0.061,0.218C285.159,394.039,285.098,394.088,285.026,394.096z M280.994,391.843
			c-0.027,0.003-0.052,0.008-0.076,0.015c-0.085,0.026-0.134,0.079-0.162,0.178c-0.072,0.253-0.038,0.47,0.105,0.662
			c0.406,0.545,1.717,0.906,3.557,0.993C283.264,392.808,281.644,391.763,280.994,391.843z"/>
		<path style="fill:#407BFF;" d="M285.026,394.096c-0.049,0.006-0.099-0.006-0.139-0.036c-0.883-0.644-2.454-2.796-2.12-3.674
			c0.079-0.207,0.285-0.438,0.82-0.38c0.398,0.044,0.731,0.23,0.992,0.554c0.853,1.06,0.626,3.272,0.616,3.366
			c-0.008,0.069-0.051,0.128-0.114,0.156C285.062,394.09,285.044,394.094,285.026,394.096z M283.344,390.391
			c-0.169,0.021-0.201,0.104-0.214,0.137c-0.2,0.526,0.829,2.174,1.7,2.982c0.026-0.655,0.005-2.012-0.555-2.708
			c-0.195-0.242-0.434-0.376-0.728-0.409C283.463,390.384,283.397,390.385,283.344,390.391z"/>
		<g>
			<path style="fill:#7F3E3B;" d="M300.092,184.538l-6.081-5.774l-2.869,8.847c0,0,5.737,4.824,8.097,1.764L300.092,184.538z"/>
			<polygon style="fill:#7F3E3B;" points="285.892,177.013 286.008,185.457 291.142,187.611 294.011,178.764 			"/>
			<g>
				<g>
					<path style="fill:#407BFF;" d="M313.953,164.565l-62.452-13l-5.524,26.536l62.452,13c7.961,1.657,13.288,9.784,11.631,17.745
						c-1.657,7.961-9.785,13.287-17.745,11.63l-62.452-13l-5.524,26.536l62.452,13c22.675,4.72,45.085-9.967,49.805-32.642
						l2.136-10.26L313.953,164.565z"/>
					<path style="opacity:0.1;" d="M313.953,164.565l-62.452-13l-5.524,26.536l62.452,13c7.961,1.657,13.288,9.784,11.631,17.745
						c-1.657,7.961-9.785,13.287-17.745,11.63l-62.452-13l-5.524,26.536l62.452,13c22.675,4.72,45.085-9.967,49.805-32.642
						l2.136-10.26L313.953,164.565z"/>
				</g>
				<path style="fill:#407BFF;" d="M348.478,205.326c-4.72,22.675-27.129,37.362-49.805,32.642l-62.452-13l5.524-26.536l62.452,13
					c7.961,1.657,16.088-3.669,17.745-11.63c1.657-7.961-3.67-16.088-11.631-17.745l-62.452-13l5.524-26.536l62.452,13
					c11.344,2.361,20.676,9.135,26.588,18.173C348.339,182.719,350.837,193.995,348.478,205.326z"/>
				
					<rect x="249.426" y="144.614" transform="matrix(0.979 0.2038 -0.2038 0.979 38.6625 -49.8878)" style="opacity:0.5;fill:#FFFFFF;" width="24.281" height="36.343"/>
				
					<rect x="237.787" y="200.525" transform="matrix(0.979 0.2038 -0.2038 0.979 49.8122 -46.3428)" style="opacity:0.5;fill:#FFFFFF;" width="24.281" height="36.343"/>
			</g>
		</g>
		<path style="fill:#803E3C;" d="M383.117,166.552c0.847,2.958,1.483,5.778,2.128,8.692c0.645,2.894,1.156,5.824,1.621,8.786
			c0.43,2.969,0.813,5.971,0.992,9.069c0.153,3.117,0.27,6.259-0.275,9.859c-0.143,0.906-0.331,1.848-0.633,2.868
			c-0.155,0.514-0.332,1.039-0.565,1.598c-0.118,0.281-0.237,0.558-0.392,0.857l-0.233,0.45l-0.316,0.527
			c-0.878,1.394-2.065,2.448-3.2,3.181c-1.14,0.725-2.252,1.157-3.283,1.47c-2.068,0.607-3.883,0.754-5.608,0.804
			c-1.721,0.027-3.347-0.096-4.926-0.275c-6.302-0.797-11.945-2.502-17.581-4.782l1.676-5.945l4.142,0.464
			c1.392,0.14,2.785,0.242,4.162,0.356c2.756,0.197,5.49,0.319,8.085,0.238c1.293-0.036,2.551-0.143,3.7-0.319
			c1.141-0.161,2.199-0.431,2.859-0.752c0.329-0.153,0.536-0.323,0.594-0.396c0.045-0.082-0.072-0.04-0.211,0.116
			c-0.018,0.018-0.034,0.038-0.046,0.06c-0.009,0.012,0.001-0.026,0.003-0.035l0.036-0.133c0.031-0.11,0.067-0.273,0.104-0.452
			c0.074-0.369,0.136-0.847,0.175-1.368c0.152-2.12,0.016-4.763-0.29-7.374c-0.313-2.636-0.715-5.34-1.228-8.047
			c-0.985-5.398-2.229-10.964-3.527-16.262L383.117,166.552z"/>
		<g>
			<path style="fill:#407BFF;" d="M381.465,160.517c6.452,4.537,8.584,27.965,8.584,27.965l-20.026,2.429
				c0,0-2.437-10.408-2.662-20.601C367.116,159.205,373.65,155.021,381.465,160.517z"/>
			<path style="opacity:0.7;fill:#FFFFFF;" d="M381.465,160.517c6.452,4.537,8.584,27.965,8.584,27.965l-20.026,2.429
				c0,0-2.437-10.408-2.662-20.601C367.116,159.205,373.65,155.021,381.465,160.517z"/>
		</g>
		<path style="fill:#7F3E3B;" d="M354.56,203.973l-5.866-5.93l-3.653,9.903c0,0,6.107,3.926,8.536,0.886L354.56,203.973z"/>
		<polygon style="fill:#7F3E3B;" points="341.913,197.168 339.273,205.495 345.041,207.946 348.694,198.043 		"/>
	</g>
</g>
<g id="E-mails">
	<g>
		<g>
			<g>
				<g>
					<path style="fill:#407BFF;" d="M227.702,103.124v38.429c0,2.35-1.923,4.272-4.272,4.272h-65.717
						c-2.35,0-4.272-1.922-4.272-4.272v-38.429c0-0.562,0.11-1.104,0.313-1.595c0.634-1.566,2.172-2.677,3.959-2.677h65.717
						c1.784,0,3.325,1.111,3.959,2.674C227.592,102.02,227.702,102.558,227.702,103.124z"/>
					<path style="opacity:0.3;" d="M227.389,101.525l-35.068,29.112c-1.015,0.843-2.486,0.843-3.502,0l-35.065-29.109
						c0.634-1.566,2.172-2.677,3.959-2.677h65.717C225.214,98.852,226.755,99.962,227.389,101.525z"/>
				</g>
				<g>
					<g>
						<g>
							<g>
								<g>
									<path style="fill:#FFFFFF;" d="M201.95,78.345h-34.894V98.85v13.719l21.763,18.066c1.015,0.845,2.487,0.845,3.503,0
										l21.763-18.066V98.85V85.977L201.95,78.345z"/>
									<path style="fill:#407BFF;" d="M190.571,131.877c-0.76,0-1.52-0.258-2.141-0.774l-21.763-18.066
										c-0.139-0.116-0.22-0.287-0.22-0.468V78.345c0-0.336,0.272-0.608,0.608-0.608h34.894c0.115,0,0.227,0.032,0.324,0.093
										l12.135,7.632c0.177,0.111,0.285,0.306,0.285,0.515v26.592c0,0.181-0.081,0.352-0.22,0.468l-21.763,18.066
										C192.091,131.619,191.331,131.877,190.571,131.877z M167.664,112.283l21.544,17.884c0.79,0.658,1.936,0.658,2.725,0.001
										l21.544-17.885V86.313l-11.702-7.359h-34.111V112.283z"/>
								</g>
								<g>
									<polygon style="fill:#EBEBEB;" points="214.085,85.978 201.951,78.344 205.879,88.458 									"/>
									<path style="fill:#407BFF;" d="M205.879,89.066c-0.245,0-0.474-0.149-0.567-0.388l-3.928-10.114
										c-0.095-0.245-0.022-0.522,0.18-0.689c0.202-0.167,0.489-0.185,0.711-0.046l12.134,7.635
										c0.202,0.127,0.311,0.36,0.279,0.596c-0.032,0.236-0.198,0.432-0.427,0.501l-8.206,2.479
										C205.997,89.058,205.937,89.066,205.879,89.066z M203.184,79.838l3.059,7.875l6.389-1.93L203.184,79.838z"/>
								</g>
							</g>
						</g>
					</g>
				</g>
			</g>
			<g>
				<path style="fill:#407BFF;" d="M200.088,110.75h2.765c-1.001,1.757-2.436,3.132-4.304,4.127
					c-2.139,1.142-4.684,1.713-7.635,1.713c-2.855,0-5.284-0.482-7.286-1.447c-2.002-0.965-3.437-2.388-4.304-4.27
					c-0.867-1.882-1.215-3.931-1.044-6.146c0.188-2.432,0.938-4.696,2.251-6.795c1.313-2.098,3.01-3.673,5.09-4.725
					c2.08-1.051,4.405-1.577,6.975-1.577c2.18,0,4.086,0.424,5.716,1.272c1.63,0.848,2.833,2.053,3.608,3.615
					c0.775,1.562,1.091,3.269,0.948,5.12c-0.171,2.207-1.004,4.201-2.5,5.984c-1.879,2.25-4.15,3.375-6.815,3.375
					c-0.718,0-1.249-0.125-1.593-0.376c-0.344-0.251-0.558-0.619-0.642-1.103c-1.097,0.986-2.312,1.48-3.645,1.48
					c-1.436,0-2.59-0.495-3.461-1.486c-0.871-0.991-1.243-2.308-1.116-3.952c0.157-2.033,0.872-3.889,2.144-5.568
					c1.542-2.042,3.395-3.063,5.558-3.063c1.54,0,2.633,0.588,3.277,1.765l0.436-1.441h3.426l-2.679,9.306
					c-0.167,0.588-0.257,0.969-0.27,1.142c-0.017,0.216,0.02,0.379,0.112,0.487c0.091,0.108,0.206,0.162,0.344,0.162
					c0.415,0,0.971-0.251,1.668-0.753c0.933-0.658,1.715-1.54,2.346-2.648c0.631-1.108,0.992-2.254,1.083-3.439
					c0.165-2.129-0.468-3.909-1.897-5.341c-1.43-1.432-3.524-2.148-6.285-2.148c-2.345,0-4.37,0.478-6.075,1.434
					c-1.705,0.956-3.038,2.302-3.998,4.037c-0.96,1.735-1.513,3.541-1.658,5.419c-0.141,1.826,0.191,3.487,0.997,4.984
					c0.806,1.497,2.015,2.589,3.628,3.277c1.612,0.688,3.492,1.032,5.638,1.032c2.068,0,3.868-0.288,5.401-0.863
					C197.826,112.764,199.091,111.901,200.088,110.75z M186.47,105.415c-0.085,1.099,0.075,1.908,0.481,2.427
					c0.405,0.519,0.937,0.779,1.595,0.779c0.493,0,0.965-0.121,1.417-0.364c0.342-0.173,0.688-0.446,1.037-0.818
					c0.499-0.528,0.955-1.298,1.366-2.31c0.411-1.012,0.651-1.955,0.718-2.829c0.076-0.978-0.093-1.728-0.507-2.252
					s-0.967-0.785-1.659-0.785c-0.744,0-1.454,0.288-2.13,0.863c-0.676,0.575-1.215,1.395-1.618,2.46
					C186.766,103.65,186.533,104.593,186.47,105.415z"/>
			</g>
		</g>
		<g>
			<g>
				<g>
					<path style="fill:#407BFF;" d="M178.474,196.125v34.409c0,2.104-1.721,3.825-3.825,3.825h-58.843
						c-2.104,0-3.825-1.721-3.825-3.825v-34.409c0-0.504,0.099-0.988,0.281-1.428c0.567-1.403,1.945-2.397,3.545-2.397h58.843
						c1.597,0,2.978,0.995,3.545,2.394C178.376,195.136,178.474,195.618,178.474,196.125z"/>
					<path style="opacity:0.3;" d="M178.194,194.693l-31.4,26.067c-0.909,0.755-2.226,0.755-3.135,0l-31.397-26.064
						c0.567-1.403,1.945-2.397,3.545-2.397h58.843C176.246,192.299,177.626,193.294,178.194,194.693z"/>
				</g>
				<g>
					<g>
						<g>
							<g>
								<g>
									<path style="fill:#FFFFFF;" d="M155.416,173.938h-31.244v18.361v12.284l19.487,16.177c0.909,0.757,2.227,0.757,3.136,0
										l19.487-16.177v-12.284v-11.527L155.416,173.938z"/>
									<path style="fill:#407BFF;" d="M145.227,221.871c-0.681,0-1.361-0.231-1.917-0.693l-19.487-16.176
										c-0.124-0.104-0.197-0.257-0.197-0.419v-30.644c0-0.301,0.244-0.544,0.544-0.544h31.244c0.103,0,0.203,0.029,0.29,0.083
										l10.866,6.833c0.158,0.1,0.255,0.274,0.255,0.461v23.811c0,0.162-0.072,0.316-0.197,0.419l-19.487,16.177
										C146.588,221.64,145.907,221.871,145.227,221.871z M124.716,204.326l19.291,16.013c0.707,0.589,1.733,0.589,2.44,0.001
										l19.291-16.014v-23.254l-10.478-6.59h-30.543V204.326z"/>
								</g>
								<g>
									<polygon style="fill:#EBEBEB;" points="166.282,180.773 155.417,173.937 158.934,182.993 									"/>
									<path style="fill:#407BFF;" d="M158.934,183.538c-0.219,0-0.424-0.133-0.508-0.348l-3.517-9.056
										c-0.085-0.219-0.02-0.467,0.161-0.617c0.181-0.149,0.438-0.166,0.637-0.041l10.865,6.836
										c0.18,0.114,0.278,0.322,0.249,0.534c-0.029,0.211-0.178,0.387-0.382,0.448l-7.347,2.22
										C159.039,183.53,158.986,183.538,158.934,183.538z M156.52,175.274l2.739,7.051l5.721-1.729L156.52,175.274z"/>
								</g>
							</g>
						</g>
					</g>
				</g>
			</g>
			<g>
				<path style="fill:#407BFF;" d="M153.749,202.953h2.476c-0.896,1.573-2.181,2.805-3.854,3.696
					c-1.915,1.023-4.194,1.534-6.836,1.534c-2.557,0-4.732-0.432-6.524-1.296c-1.793-0.864-3.077-2.138-3.853-3.824
					c-0.776-1.685-1.088-3.519-0.934-5.503c0.168-2.177,0.84-4.205,2.016-6.084c1.176-1.879,2.695-3.289,4.557-4.23
					c1.863-0.941,3.944-1.412,6.245-1.412c1.952,0,3.659,0.38,5.118,1.139c1.46,0.759,2.537,1.838,3.23,3.237
					c0.694,1.398,0.977,2.927,0.849,4.585c-0.153,1.976-0.899,3.762-2.239,5.358c-1.682,2.014-3.716,3.022-6.102,3.022
					c-0.643,0-1.119-0.112-1.427-0.337c-0.308-0.225-0.499-0.554-0.574-0.988c-0.982,0.883-2.07,1.325-3.264,1.325
					c-1.286,0-2.319-0.444-3.099-1.331c-0.78-0.887-1.113-2.067-0.999-3.539c0.141-1.821,0.781-3.483,1.919-4.986
					c1.381-1.828,3.04-2.743,4.977-2.743c1.379,0,2.357,0.527,2.934,1.58l0.39-1.29h3.068l-2.399,8.333
					c-0.149,0.527-0.23,0.868-0.242,1.023c-0.015,0.194,0.018,0.339,0.1,0.436c0.082,0.097,0.184,0.145,0.308,0.145
					c0.372,0,0.87-0.225,1.493-0.674c0.836-0.589,1.536-1.379,2.101-2.371c0.565-0.992,0.888-2.018,0.97-3.08
					c0.147-1.906-0.419-3.5-1.699-4.782s-3.156-1.923-5.627-1.923c-2.1,0-3.913,0.428-5.439,1.284
					c-1.527,0.856-2.72,2.061-3.58,3.614c-0.86,1.553-1.355,3.171-1.485,4.852c-0.126,1.635,0.171,3.122,0.893,4.463
					c0.722,1.34,1.804,2.318,3.248,2.935c1.444,0.616,3.126,0.924,5.048,0.924c1.852,0,3.464-0.258,4.836-0.773
					C151.723,204.756,152.855,203.984,153.749,202.953z M141.555,198.177c-0.076,0.984,0.067,1.708,0.431,2.173
					c0.363,0.465,0.839,0.697,1.428,0.697c0.442,0,0.865-0.108,1.269-0.325c0.306-0.155,0.616-0.399,0.928-0.732
					c0.447-0.473,0.855-1.162,1.223-2.069c0.368-0.906,0.583-1.751,0.643-2.533c0.068-0.876-0.084-1.548-0.454-2.016
					c-0.371-0.469-0.866-0.703-1.486-0.703c-0.666,0-1.302,0.258-1.908,0.773c-0.605,0.515-1.088,1.249-1.449,2.202
					C141.82,196.596,141.612,197.441,141.555,198.177z"/>
			</g>
		</g>
		<g>
			<g>
				<g>
					<path style="fill:#407BFF;" d="M126.622,127.373v29.79c0,1.822-1.49,3.312-3.312,3.312H72.366c-1.822,0-3.312-1.49-3.312-3.312
						v-29.79c0-0.436,0.086-0.856,0.243-1.236c0.491-1.214,1.684-2.075,3.069-2.075h50.943c1.383,0,2.578,0.861,3.069,2.073
						C126.536,126.518,126.622,126.935,126.622,127.373z"/>
					<path style="opacity:0.3;" d="M126.379,126.134l-27.185,22.568c-0.787,0.653-1.927,0.653-2.714,0l-27.182-22.565
						c0.491-1.214,1.684-2.075,3.069-2.075h50.943C124.693,124.062,125.888,124.923,126.379,126.134z"/>
				</g>
				<g>
					<g>
						<g>
							<g>
								<g>
									<path style="fill:#FFFFFF;" d="M106.659,108.165h-27.05v15.896v10.635L96.48,148.7c0.787,0.655,1.928,0.655,2.715,0
										l16.871-14.005v-10.635v-9.98L106.659,108.165z"/>
									<path style="fill:#407BFF;" d="M97.838,149.663c-0.589,0-1.178-0.2-1.659-0.6l-16.87-14.005
										c-0.108-0.09-0.17-0.223-0.17-0.363v-26.53c0-0.26,0.211-0.471,0.471-0.471h27.05c0.089,0,0.176,0.025,0.251,0.072
										l9.407,5.916c0.137,0.086,0.22,0.237,0.22,0.399v20.614c0,0.14-0.063,0.273-0.171,0.363l-16.871,14.005
										C99.016,149.463,98.427,149.663,97.838,149.663z M80.08,134.474l16.701,13.864c0.612,0.51,1.5,0.51,2.113,0.001
										l16.701-13.864v-20.132l-9.072-5.705H80.08V134.474z"/>
								</g>
								<g>
									<polygon style="fill:#EBEBEB;" points="116.066,114.082 106.66,108.164 109.705,116.004 									"/>
									<path style="fill:#407BFF;" d="M109.705,116.476c-0.19,0-0.367-0.115-0.439-0.301l-3.045-7.84
										c-0.074-0.189-0.017-0.405,0.139-0.534c0.157-0.13,0.379-0.144,0.551-0.035l9.406,5.918
										c0.156,0.098,0.241,0.279,0.216,0.462c-0.025,0.183-0.154,0.335-0.331,0.388l-6.361,1.922
										C109.796,116.469,109.75,116.476,109.705,116.476z M107.615,109.322l2.371,6.105l4.953-1.497L107.615,109.322z"/>
								</g>
							</g>
						</g>
					</g>
				</g>
			</g>
			<g>
				<path style="fill:#407BFF;" d="M105.215,133.285h2.143c-0.776,1.362-1.888,2.428-3.336,3.2
					c-1.658,0.885-3.631,1.328-5.918,1.328c-2.214,0-4.096-0.374-5.648-1.122c-1.552-0.748-2.664-1.851-3.336-3.31
					c-0.672-1.459-0.942-3.047-0.809-4.764c0.146-1.885,0.727-3.641,1.745-5.267c1.018-1.627,2.333-2.847,3.945-3.662
					c1.612-0.815,3.415-1.222,5.407-1.222c1.69,0,3.167,0.329,4.431,0.986c1.264,0.657,2.196,1.591,2.797,2.802
					c0.601,1.211,0.846,2.534,0.735,3.969c-0.132,1.71-0.778,3.257-1.938,4.638c-1.456,1.744-3.217,2.616-5.283,2.616
					c-0.557,0-0.968-0.097-1.235-0.292s-0.432-0.48-0.497-0.855c-0.851,0.765-1.792,1.147-2.825,1.147
					c-1.113,0-2.008-0.384-2.683-1.152c-0.675-0.768-0.964-1.789-0.865-3.064c0.122-1.576,0.676-3.015,1.662-4.316
					c1.195-1.583,2.632-2.374,4.309-2.374c1.194,0,2.041,0.456,2.54,1.368l0.338-1.117h2.656l-2.077,7.214
					c-0.129,0.456-0.199,0.751-0.209,0.885c-0.013,0.168,0.016,0.294,0.086,0.377c0.071,0.084,0.16,0.126,0.267,0.126
					c0.322,0,0.753-0.195,1.293-0.584c0.724-0.51,1.33-1.194,1.819-2.052c0.489-0.859,0.769-1.747,0.84-2.666
					c0.127-1.65-0.363-3.03-1.471-4.14c-1.108-1.11-2.732-1.665-4.872-1.665c-1.818,0-3.387,0.371-4.709,1.112
					c-1.322,0.741-2.355,1.784-3.099,3.129c-0.744,1.345-1.173,2.745-1.285,4.201c-0.109,1.415,0.148,2.703,0.773,3.864
					c0.625,1.161,1.562,2.007,2.812,2.541c1.25,0.533,2.707,0.8,4.37,0.8c1.603,0,2.999-0.223,4.187-0.669
					C103.461,134.846,104.442,134.177,105.215,133.285z M94.658,129.15c-0.066,0.852,0.058,1.479,0.373,1.882
					c0.314,0.402,0.726,0.604,1.236,0.604c0.382,0,0.748-0.094,1.098-0.282c0.265-0.134,0.533-0.345,0.804-0.634
					c0.387-0.409,0.74-1.006,1.059-1.791c0.319-0.785,0.505-1.516,0.557-2.194c0.059-0.758-0.073-1.34-0.393-1.746
					c-0.321-0.406-0.749-0.609-1.286-0.609c-0.577,0-1.127,0.223-1.651,0.669c-0.524,0.446-0.942,1.082-1.254,1.907
					C94.888,127.781,94.708,128.512,94.658,129.15z"/>
			</g>
		</g>
		<rect x="149.494" y="150.779" style="fill:#407BFF;" width="25.983" height="1.045"/>
		<rect x="163.753" y="157.395" style="fill:#407BFF;" width="18.282" height="1.045"/>
		<rect x="76.399" y="233.837" style="fill:#407BFF;" width="16.842" height="1.045"/>
		<rect x="90.658" y="240.453" style="fill:#407BFF;" width="9.141" height="1.045"/>
		<rect x="76.399" y="182.471" style="fill:#407BFF;" width="9.141" height="1.045"/>
		<rect x="139.143" y="150.779" style="fill:#407BFF;" width="5.572" height="1.045"/>
	</g>
</g>
</svg>
