<?xml version="1.0" encoding="utf-8"?>
<!-- Generator: Adobe Illustrator 27.5.0, SVG Export Plug-In . SVG Version: 6.00 Build 0)  -->
<svg version="1.1" xmlns="http://www.w3.org/2000/svg" xmlns:xlink="http://www.w3.org/1999/xlink" x="0px" y="0px"
	 viewBox="0 0 600 400" style="enable-background:new 0 0 600 400;" xml:space="preserve">
<g id="background">
</g>
<g id="objects">
	<g>
		<path style="fill:#EDF3F4;" d="M508.474,369.625c0,0,26.924-89.726-53.114-108.571c-83-19.543-46.821-97.714-115.988-113.999
			c-91.513-9.771-115.319,73.844-186.968,117.688C81.961,307.85,87.27,369.625,87.27,369.625H508.474z"/>
		<g>
			<path style="fill:#3E31B8;" d="M428.165,367.56H171.835c0.024-0.164,0.044-0.331,0.068-0.495
				c6.695-48.801,5.906-79.122,12.116-112.275c5.745-30.615,21.154-31.664,41.283-46.338c20.132-14.667,30.779-18.09,30.779-18.09
				h87.839c0,0,10.647,3.423,30.779,18.09c20.129,14.674,35.537,15.723,41.283,46.338c6.21,33.153,5.421,63.475,12.116,112.275
				C428.121,367.229,428.142,367.396,428.165,367.56z"/>
			<path style="fill:#F5AA8D;" d="M245.735,104.541c-7.624,0.346-3.164,23.909,0.238,28.25c4.201,5.335,10.108,6.533,10.108,6.533
				l4.884-18.336L245.735,104.541z"/>
			<path style="fill:#F5AA8D;" d="M354.265,104.541c7.624,0.346,3.164,23.909-0.238,28.25c-4.201,5.335-10.108,6.533-10.108,6.533
				l-3.853-15.784L354.265,104.541z"/>
			<path style="fill:#7E3F35;" d="M344.819,128.325c0,0,9.926-9.569,9.926-31.936s0-7.177,0-17.224
				c0-10.318-3.693-17.873-7.939-23.802c-6.937-9.688-13.994-11.243-13.994-11.243c0.718-6.339-3.947-10.286-3.947-10.286
				c-1.794,1.914-7.775,3.349-7.775,3.349c2.392-4.545-2.99-13.516-2.99-13.516c-3.349,5.263-11.841,8.732-11.841,8.732
				c0.957-3.469-2.392-9.397-2.392-9.397s-6.339,7.124-26.314,14.301c-18.274,6.565-32.295,16.745-32.295,41.864
				c0,10.047,0-5.143,0,17.224s9.926,31.936,9.926,31.936H344.819z"/>
			<path style="fill:#262494;" d="M428.165,367.56h-7.214c-6.036-46.447-5.465-76-11.426-108.228
				c-5.68-30.612-20.908-31.66-40.801-46.338c-17.646-13.014-35.647-21.003-39.472-22.633h14.667c0,0,10.647,3.423,30.779,18.09
				c20.129,14.674,35.537,15.723,41.283,46.338c6.21,33.153,5.421,63.475,12.116,112.275
				C428.121,367.229,428.142,367.396,428.165,367.56z"/>
			<path style="fill:#262494;" d="M348.24,192.164c-3.51,5.086-19.179,25.075-48.239,25.075c-28.563,0-44.19-19.309-48.056-24.795
				l4.136-2.084h87.839C343.92,190.361,345.378,190.825,348.24,192.164z"/>
			<path style="fill:#F5AA8D;" d="M332.235,170.89c0,0-1.21,14.373,11.685,19.471l0,0.002c0,0-10.621,20.732-43.92,20.732
				s-43.92-20.732-43.92-20.732l0-0.002c12.894-5.097,11.685-19.471,11.685-19.471H332.235z"/>
			<path style="fill:#F5AA8D;" d="M345.929,107.586l-1.231,23.013c0,0-1.22,14.643-3.11,21.76
				c-3.585,13.51-6.652,14.028-17.224,29.201c-4.989,7.149-15.129,13.758-17.57,14.438c-2.43,0.68-6.793,0.475-6.793,0.475
				s-4.363,0.205-6.793-0.475c-2.441-0.68-12.581-7.289-17.57-14.438c-10.572-15.173-13.639-15.691-17.224-29.201
				c-1.89-7.117-3.11-21.76-3.11-21.76l-1.231-23.013c-0.119-2.095,0.637-4.136,2.106-5.626c0.302-0.302,0.616-0.648,0.95-1.037
				c1.544-1.825,2.365-4.168,2.365-6.555v-7.095c0-7.883,5.432-13.963,12.635-14.762c6.188-0.68,15.14-1.242,27.872-1.242
				c12.732,0,21.684,0.562,27.872,1.242c7.203,0.799,12.635,6.879,12.635,14.762v7.095c0,2.387,0.821,4.73,2.365,6.555
				c0.335,0.389,0.648,0.734,0.95,1.037C345.291,103.45,346.047,105.491,345.929,107.586z"/>
			<path style="fill:#FFFFFF;" d="M321.835,154.875c0,0-5.505,11.121-10.553,16.102c-1.303,1.286-3.02,1.962-4.783,1.962h-13.572
				c-1.763,0-3.48-0.677-4.783-1.962c-5.048-4.981-10.044-16.102-10.044-16.102s3.984,5.02,14.474,5.02s4.298,0,14.788,0
				C317.851,159.895,321.835,154.875,321.835,154.875L321.835,154.875z"/>
			<path style="fill:#D78E76;" d="M343.92,190.361c0,0-1.091,2.127-3.661,5.011c-7.397-2.991-10.097-9.06-11.058-13.618
				c-0.875,1.199-1.814,2.516-2.819,3.952c-4.989,7.149-15.129,13.758-17.57,14.438c-2.43,0.68-6.793,0.475-6.793,0.475
				s-4.363,0.205-6.793-0.475c-2.441-0.68-12.581-7.289-17.57-14.438c-4.384-6.296-7.484-10.075-9.87-13.304
				c0.011-0.194,0.011-0.367,0.011-0.529c0-0.562-0.022-0.907-0.032-0.972c2.073,2.7,4.611,5.983,7.872,10.659
				c4.989,7.149,15.129,13.758,17.57,14.438c2.43,0.68,6.793,0.475,6.793,0.475s4.363,0.205,6.793-0.475
				c2.441-0.68,12.581-7.289,17.57-14.438c3.261-4.676,5.799-7.959,7.872-10.659c-0.011,0.194-0.194,2.765,0.54,6.069
				C333.801,181.527,336.566,187.456,343.92,190.361z"/>
			<path style="fill:#D78E76;" d="M276.771,158.244c-0.158,0-0.32-0.035-0.471-0.109c-0.536-0.261-0.759-0.907-0.499-1.443
				c0.146-0.3,1.467-2.967,2.92-4.225c0.448-0.39,1.133-0.342,1.523,0.109c0.39,0.451,0.342,1.133-0.11,1.523
				c-0.951,0.825-2.048,2.833-2.391,3.537C277.557,158.021,277.172,158.244,276.771,158.244z"/>
			<path style="fill:#D78E76;" d="M323.163,158.244c-0.401,0-0.785-0.224-0.972-0.607c-0.344-0.705-1.443-2.716-2.391-3.537
				c-0.451-0.391-0.5-1.073-0.11-1.523c0.39-0.451,1.075-0.499,1.523-0.109c1.453,1.259,2.775,3.925,2.92,4.225
				c0.26,0.536,0.037,1.182-0.499,1.443C323.483,158.209,323.322,158.244,323.163,158.244z"/>
			<path style="fill:#DDDFEB;" d="M295.014,166.279c-2.927-0.032-9.355-0.432-11.212-0.896c-0.626-0.961-1.22-1.944-1.76-2.905
				C283.813,163.935,290.846,165.836,295.014,166.279z"/>
			<path style="fill:#DDDFEB;" d="M304.608,166.279c2.927-0.032,9.294-0.474,11.151-0.938c0.667-1.011,1.323-1.942,1.863-2.903
				C315.851,163.896,308.776,165.836,304.608,166.279z"/>
			<path style="fill:#97AAAF;" d="M396.49,355.627v9.03c0,1.603-1.341,2.903-2.995,2.903H206.505c-1.654,0-2.995-1.3-2.995-2.903
				v-9.03c0-1.603,1.341-2.903,2.995-2.903h5.354v-5.483h176.011v5.483h5.626C395.149,352.724,396.49,354.024,396.49,355.627z"/>
			<path style="fill:#B3C2C6;" d="M388.878,352.724H211.122c-3.894,0-7.106-2.955-7.31-6.724l-6.553-121.266
				c-0.219-4.059,3.117-7.467,7.31-7.467h190.862c4.193,0,7.529,3.408,7.31,7.467L396.188,346
				C395.984,349.769,392.772,352.724,388.878,352.724z"/>
			<circle style="fill:#FFFFFF;" cx="300" cy="285.411" r="46.283"/>
			<path style="fill:#CEA82E;" d="M293.395,287.669c-5.403,3.998-11.863,6.318-18.575,6.671l0.048,4.769h0.012
				c7.79-0.374,15.291-3.07,21.536-7.742L293.395,287.669z"/>
			<path style="fill:#CEA82E;" d="M300.721,280.344c3.998-5.403,6.318-11.863,6.671-18.575l4.769,0.048v0.012
				c-0.374,7.79-3.07,15.291-7.742,21.536L300.721,280.344z"/>
			<circle style="fill:#E5C028;" cx="269.397" cy="296.778" r="5.946"/>
			<circle style="fill:#E5C028;" cx="309.83" cy="256.346" r="5.946"/>
			<path style="fill:#E5C028;" d="M304.466,288.692c0.403-0.813,0.61-1.709,0.606-2.616c0-3.284-2.662-5.946-5.946-5.946
				s-5.946,2.662-5.946,5.946s2.662,5.946,5.946,5.946c0.907,0.004,1.803-0.204,2.616-0.606"/>
			<path style="fill:#3E31B8;" d="M331.354,301.135l-10.863,5.438c-0.372,0.189-0.674,0.491-0.863,0.863l-5.426,10.866
				c-0.483,0.96-1.653,1.347-2.614,0.864c-0.458-0.23-0.807-0.632-0.97-1.119l-9.007-27.04c-0.341-1.012,0.203-2.109,1.215-2.45
				c0.4-0.135,0.834-0.135,1.235,0l27.037,9.007c1.015,0.336,1.566,1.431,1.23,2.446
				C332.165,300.501,331.815,300.905,331.354,301.135z"/>
			<path style="fill:#83969B;" d="M396.486,355.623v9.029c0,1.612-1.338,2.908-2.992,2.908h-7.87c1.654,0,2.992-1.296,2.992-2.908
				v-9.029c0-1.601-1.338-2.897-2.992-2.897h7.87C395.148,352.726,396.486,354.022,396.486,355.623z"/>
			<path style="fill:#A3B3B7;" d="M402.744,224.738l-6.553,121.266c-0.211,3.761-3.424,6.722-7.312,6.722h-7.87
				c3.129,0,5.826-1.917,6.859-4.636c0.253-0.653,0.4-1.359,0.443-2.086l6.553-121.266c0.221-4.067-3.119-7.47-7.312-7.47h7.881
				C399.626,217.268,402.955,220.671,402.744,224.738z"/>
		</g>
		<path style="fill:#201E42;" d="M523.571,377H76.429c-2.209,0-4-1.791-4-4v-4.272c0-2.209,1.791-4,4-4h447.143c2.209,0,4,1.791,4,4
			V373C527.571,375.209,525.781,377,523.571,377z"/>
	</g>
</g>
</svg>
